Eczar-Bold.ufo
<glyph name="quotedbl" format="1">
  <advance width="442"/>
  <unicode hex="0022"/>
  <outline>
    <contour>
      <point x="240" y="437" type="curve"/>
      <point x="338" y="402" type="line"/>
      <point x="404" y="486"/>
      <point x="445" y="623"/>
      <point x="439" y="671" type="curve"/>
      <point x="328" y="693" type="line"/>
      <point x="281" y="646" type="line"/>
      <point x="285" y="605"/>
      <point x="271" y="516"/>
    </contour>
    <contour>
      <point x="11" y="437" type="curve"/>
      <point x="109" y="402" type="line"/>
      <point x="175" y="486"/>
      <point x="216" y="623"/>
      <point x="210" y="671" type="curve"/>
      <point x="99" y="693" type="line"/>
      <point x="52" y="646" type="line"/>
      <point x="56" y="605"/>
      <point x="42" y="516"/>
    </contour>
  </outline>
</glyph>
<glyph name="numbersign" format="1">
  <advance width="621"/>
  <unicode hex="0023"/>
  <outline>
    <contour>
      <point x="127" y="0" type="line"/>
      <point x="217" y="-11" type="line"/>
      <point x="298" y="520" type="line"/>
      <point x="208" y="530" type="line"/>
    </contour>
    <contour>
      <point x="326" y="0" type="line"/>
      <point x="416" y="-11" type="line"/>
      <point x="497" y="520" type="line"/>
      <point x="407" y="530" type="line"/>
    </contour>
    <contour>
      <point x="83" y="324" type="line"/>
      <point x="567" y="324" type="line"/>
      <point x="567" y="407" type="line"/>
      <point x="83" y="407" type="line"/>
    </contour>
    <contour>
      <point x="54" y="122" type="line"/>
      <point x="538" y="122" type="line"/>
      <point x="538" y="207" type="line"/>
      <point x="54" y="207" type="line"/>
    </contour>
  </outline>
</glyph>
<glyph name="dollar" format="1">
  <advance width="600"/>
  <unicode hex="0024"/>
  <outline>
    <contour>
      <point x="251" y="35" type="line"/>
      <point x="251" y="-145" type="line"/>
      <point x="374" y="-145" type="line"/>
      <point x="374" y="35" type="line"/>
    </contour>
    <contour>
      <point x="251" y="785" type="line"/>
      <point x="251" y="633" type="line"/>
      <point x="373" y="633" type="line"/>
      <point x="373" y="785" type="line"/>
    </contour>
    <component base="S"/>
  </outline>
</glyph>
<glyph name="percent" format="1">
  <advance width="831"/>
  <unicode hex="0025"/>
  <outline>
    <contour>
      <point x="216" y="-30" type="line"/>
      <point x="671" y="544" type="line"/>
      <point x="600" y="602" type="line"/>
      <point x="144" y="29" type="line"/>
    </contour>
    <contour>
      <point x="169" y="345"/>
      <point x="144" y="389"/>
      <point x="144" y="435" type="curve" smooth="yes"/>
      <point x="144" y="463"/>
      <point x="154" y="493"/>
      <point x="171" y="512" type="curve"/>
      <point x="228" y="529"/>
      <point x="255" y="482"/>
      <point x="255" y="433" type="curve" smooth="yes"/>
      <point x="255" y="403"/>
      <point x="245" y="372"/>
      <point x="225" y="354" type="curve"/>
    </contour>
    <contour>
      <point x="42" y="340"/>
      <point x="117" y="265"/>
      <point x="206" y="265" type="curve" smooth="yes"/>
      <point x="296" y="265"/>
      <point x="361" y="340"/>
      <point x="361" y="431" type="curve" smooth="yes"/>
      <point x="361" y="526"/>
      <point x="290" y="607"/>
      <point x="201" y="607" type="curve" smooth="yes"/>
      <point x="112" y="607"/>
      <point x="42" y="525"/>
      <point x="42" y="433" type="curve" smooth="yes"/>
    </contour>
    <contour>
      <point x="597" y="61"/>
      <point x="572" y="104"/>
      <point x="572" y="150" type="curve" smooth="yes"/>
      <point x="572" y="179"/>
      <point x="582" y="207"/>
      <point x="599" y="227" type="curve"/>
      <point x="656" y="244"/>
      <point x="683" y="198"/>
      <point x="683" y="148" type="curve" smooth="yes"/>
      <point x="683" y="118"/>
      <point x="673" y="87"/>
      <point x="653" y="69" type="curve"/>
    </contour>
    <contour>
      <point x="469" y="54"/>
      <point x="544" y="-20"/>
      <point x="633" y="-20" type="curve" smooth="yes"/>
      <point x="723" y="-20"/>
      <point x="788" y="56"/>
      <point x="788" y="147" type="curve" smooth="yes"/>
      <point x="788" y="241"/>
      <point x="717" y="321"/>
      <point x="628" y="321" type="curve" smooth="yes"/>
      <point x="539" y="321"/>
      <point x="469" y="240"/>
      <point x="469" y="149" type="curve" smooth="yes"/>
    </contour>
  </outline>
</glyph>
<glyph name="quotesingle" format="1">
  <advance width="186"/>
  <unicode hex="0027"/>
  <outline>
    <contour>
      <point x="-27" y="499" type="curve"/>
      <point x="70" y="464" type="line"/>
      <point x="122" y="534"/>
      <point x="162" y="653"/>
      <point x="159" y="733" type="curve"/>
      <point x="48" y="749" type="line"/>
      <point x="3" y="702" type="line"/>
      <point x="7" y="661"/>
      <point x="5" y="578"/>
    </contour>
  </outline>
</glyph>
<glyph name="parenright" format="1">
  <advance width="358"/>
  <unicode hex="0029"/>
  <outline>
    <contour>
      <point x="257" y="-16"/>
      <point x="327" y="137"/>
      <point x="327" y="303" type="curve" smooth="yes"/>
      <point x="327" y="453"/>
      <point x="268" y="596"/>
      <point x="136" y="732" type="curve"/>
      <point x="36" y="676" type="line"/>
      <point x="114" y="550"/>
      <point x="152" y="429"/>
      <point x="152" y="307" type="curve" smooth="yes"/>
      <point x="152" y="171"/>
      <point x="108" y="39"/>
      <point x="39" y="-98" type="curve"/>
      <point x="141" y="-155" type="line"/>
    </contour>
  </outline>
</glyph>
<glyph name="plus" format="1">
  <advance width="570"/>
  <unicode hex="002B"/>
  <outline>
    <contour>
      <point x="338" y="306" type="line"/>
      <point x="338" y="491" type="line"/>
      <point x="231" y="491" type="line"/>
      <point x="231" y="306" type="line"/>
      <point x="54" y="306" type="line"/>
      <point x="54" y="207" type="line"/>
      <point x="231" y="207" type="line"/>
      <point x="231" y="24" type="line"/>
      <point x="338" y="24" type="line"/>
      <point x="338" y="207" type="line"/>
      <point x="516" y="207" type="line"/>
      <point x="516" y="306" type="line"/>
    </contour>
  </outline>
</glyph>
<glyph name="comma" format="1">
  <advance width="308"/>
  <unicode hex="002C"/>
  <outline>
    <contour>
      <point x="49" y="-91" type="curve"/>
      <point x="92" y="-142" type="line"/>
      <point x="177" y="-104"/>
      <point x="250" y="-18"/>
      <point x="250" y="59" type="curve"/>
      <point x="250" y="110"/>
      <point x="219" y="156"/>
      <point x="152" y="181" type="curve"/>
      <point x="108" y="157"/>
      <point x="73" y="119"/>
      <point x="64" y="66" type="curve"/>
      <point x="118" y="20" type="line"/>
      <point x="116" y="-13"/>
      <point x="89" y="-57"/>
    </contour>
  </outline>
</glyph>
<glyph name="hyphen" format="1">
  <advance width="463"/>
  <unicode hex="002D"/>
  <outline>
    <contour>
      <point x="33" y="312" type="line"/>
      <point x="89" y="222" type="line"/>
      <point x="393" y="222" type="line"/>
      <point x="414" y="264" type="line"/>
      <point x="358" y="354" type="line"/>
      <point x="54" y="354" type="line"/>
    </contour>
  </outline>
</glyph>
<glyph name="slash" format="1">
  <advance width="422"/>
  <unicode hex="002F"/>
  <outline>
    <contour>
      <point x="13" y="-78" type="line"/>
      <point x="118" y="-121" type="line"/>
      <point x="424" y="686" type="line"/>
      <point x="321" y="731" type="line"/>
    </contour>
  </outline>
</glyph>
<glyph name="zero" format="1">
  <advance width="602"/>
  <unicode hex="0030"/>
  <outline>
    <contour>
      <point x="302" y="-15" type="curve"/>
      <point x="478" y="-15"/>
      <point x="576" y="137"/>
      <point x="576" y="331" type="curve"/>
      <point x="576" y="539"/>
      <point x="456" y="666"/>
      <point x="304" y="666" type="curve"/>
      <point x="140" y="666"/>
      <point x="24" y="518"/>
      <point x="24" y="324" type="curve"/>
      <point x="24" y="145"/>
      <point x="122" y="-15"/>
    </contour>
    <contour>
      <point x="318" y="80" type="curve"/>
      <point x="236" y="80"/>
      <point x="205" y="221"/>
      <point x="205" y="335" type="curve"/>
      <point x="205" y="421"/>
      <point x="223" y="526"/>
      <point x="259" y="569" type="curve"/>
      <point x="270" y="571"/>
      <point x="279" y="572"/>
      <point x="287" y="572" type="curve"/>
      <point x="365" y="572"/>
      <point x="398" y="443"/>
      <point x="398" y="317" type="curve"/>
      <point x="398" y="227"/>
      <point x="382" y="130"/>
      <point x="345" y="85" type="curve"/>
      <point x="335" y="81"/>
      <point x="326" y="80"/>
    </contour>
  </outline>
</glyph>
<glyph name="one" format="1">
  <advance width="454"/>
  <unicode hex="0031"/>
  <outline>
    <contour>
      <point x="163" y="602" type="line"/>
      <point x="163" y="0" type="line"/>
      <point x="336" y="0" type="line"/>
      <point x="336" y="618" type="line"/>
    </contour>
    <contour>
      <point x="27" y="33" type="curve"/>
      <point x="33" y="0" type="line"/>
      <point x="176" y="0" type="line"/>
      <point x="181" y="91" type="line"/>
      <point x="129" y="78"/>
      <point x="65" y="56"/>
    </contour>
    <contour>
      <point x="316" y="77" type="line"/>
      <point x="313" y="0" type="line"/>
      <point x="451" y="0" type="line"/>
      <point x="454" y="53" type="line"/>
    </contour>
    <contour>
      <point x="10" y="519" type="line"/>
      <point x="45" y="453" type="line"/>
      <point x="257" y="539" type="line"/>
      <point x="280" y="626" type="line"/>
      <point x="262" y="670" type="line"/>
    </contour>
    <contour>
      <point x="262" y="670" type="line"/>
      <point x="241" y="591" type="line"/>
      <point x="336" y="618" type="line"/>
    </contour>
  </outline>
</glyph>
<glyph name="three" format="1">
  <advance width="591"/>
  <unicode hex="0033"/>
  <outline>
    <contour>
      <point x="224" y="612" type="line"/>
      <point x="58" y="609" type="line"/>
      <point x="53" y="559"/>
      <point x="57" y="482"/>
      <point x="69" y="432" type="curve"/>
      <point x="171" y="431" type="line"/>
    </contour>
    <contour>
      <point x="342" y="420"/>
      <point x="292" y="359"/>
      <point x="183" y="355" type="curve"/>
      <point x="191" y="272" type="line"/>
      <point x="371" y="322" type="line"/>
      <point x="371" y="338" type="line"/>
      <point x="472" y="366"/>
      <point x="520" y="433"/>
      <point x="520" y="499" type="curve" smooth="yes"/>
      <point x="520" y="585"/>
      <point x="441" y="670"/>
      <point x="284" y="670" type="curve" smooth="yes"/>
      <point x="205" y="670"/>
      <point x="117" y="649"/>
      <point x="57" y="609" type="curve"/>
      <point x="94" y="545" type="line"/>
      <point x="140" y="571"/>
      <point x="179" y="581"/>
      <point x="215" y="581" type="curve" smooth="yes"/>
      <point x="292" y="581"/>
      <point x="342" y="537"/>
      <point x="342" y="477" type="curve" smooth="yes"/>
    </contour>
    <contour>
      <point x="42" y="32" type="line"/>
      <point x="114" y="-1"/>
      <point x="203" y="-20"/>
      <point x="280" y="-20" type="curve" smooth="yes"/>
      <point x="443" y="-20"/>
      <point x="548" y="66"/>
      <point x="548" y="174" type="curve" smooth="yes"/>
      <point x="548" y="269"/>
      <point x="468" y="349"/>
      <point x="364" y="346" type="curve"/>
      <point x="359" y="359" type="line"/>
      <point x="183" y="355" type="line"/>
      <point x="173" y="355" type="line"/>
      <point x="178" y="269" type="line"/>
      <point x="234" y="271" type="line"/>
      <point x="319" y="271"/>
      <point x="366" y="218"/>
      <point x="366" y="161" type="curve" smooth="yes"/>
      <point x="366" y="134"/>
      <point x="355" y="105"/>
      <point x="332" y="82" type="curve"/>
      <point x="259" y="91"/>
      <point x="167" y="146"/>
      <point x="89" y="192" type="curve"/>
    </contour>
  </outline>
</glyph>
<glyph name="four" format="1">
  <advance width="614"/>
  <unicode hex="0034"/>
  <outline>
    <contour>
      <point x="143" y="226" type="line"/>
      <point x="384" y="579" type="line"/>
      <point x="418" y="553" type="line"/>
      <point x="421" y="654" type="line"/>
      <point x="350" y="670" type="line"/>
      <point x="13" y="250" type="line"/>
      <point x="48" y="157" type="line"/>
      <point x="563" y="157" type="line"/>
      <point x="594" y="187" type="line"/>
      <point x="590" y="267" type="line"/>
      <point x="98" y="255" type="line"/>
    </contour>
    <contour>
      <point x="313" y="0" type="line"/>
      <point x="480" y="0" type="line"/>
      <point x="480" y="654" type="line"/>
      <point x="346" y="656" type="line"/>
      <point x="324" y="539" type="line"/>
      <point x="313" y="401" type="line"/>
    </contour>
    <contour>
      <point x="331" y="0" type="line"/>
      <point x="336" y="91" type="line"/>
      <point x="290" y="77"/>
      <point x="231" y="56"/>
      <point x="194" y="33" type="curve"/>
      <point x="200" y="0" type="line"/>
    </contour>
    <contour>
      <point x="550" y="0" type="line"/>
      <point x="553" y="53" type="line"/>
      <point x="415" y="77" type="line"/>
      <point x="412" y="0" type="line"/>
    </contour>
  </outline>
</glyph>
<glyph name="five" format="1">
  <advance width="573"/>
  <unicode hex="0035"/>
  <outline>
    <contour>
      <point x="284" y="-23" type="curve"/>
      <point x="444" y="-23"/>
      <point x="537" y="78"/>
      <point x="537" y="196" type="curve"/>
      <point x="537" y="336"/>
      <point x="408" y="402"/>
      <point x="296" y="404" type="curve"/>
      <point x="271" y="404"/>
      <point x="242" y="403"/>
      <point x="220" y="394" type="curve"/>
      <point x="234" y="561" type="line"/>
      <point x="448" y="549" type="line"/>
      <point x="457" y="650" type="line"/>
      <point x="97" y="650" type="line"/>
      <point x="67" y="321" type="line"/>
      <point x="120" y="265" type="line"/>
      <point x="151" y="275"/>
      <point x="182" y="280"/>
      <point x="208" y="280" type="curve"/>
      <point x="304" y="280"/>
      <point x="379" y="244"/>
      <point x="379" y="164" type="curve"/>
      <point x="379" y="140"/>
      <point x="373" y="112"/>
      <point x="342" y="80" type="curve"/>
      <point x="266" y="90"/>
      <point x="167" y="137"/>
      <point x="88" y="204" type="curve"/>
      <point x="35" y="47" type="line"/>
      <point x="110" y="1"/>
      <point x="208" y="-23"/>
    </contour>
    <contour>
      <point x="337" y="646" type="line"/>
      <point x="380" y="448" type="line"/>
      <point x="486" y="448" type="line"/>
      <point x="499" y="498"/>
      <point x="508" y="601"/>
      <point x="505" y="650" type="curve"/>
    </contour>
  </outline>
</glyph>
<glyph name="six" format="1">
  <advance width="582"/>
  <unicode hex="0036"/>
  <outline>
    <contour>
      <point x="256" y="268" type="line"/>
      <point x="277" y="282"/>
      <point x="297" y="290"/>
      <point x="315" y="290" type="curve" smooth="yes"/>
      <point x="361" y="290"/>
      <point x="392" y="238"/>
      <point x="392" y="177" type="curve" smooth="yes"/>
      <point x="392" y="132"/>
      <point x="375" y="89"/>
      <point x="340" y="65" type="curve"/>
      <point x="250" y="60"/>
      <point x="206" y="162"/>
      <point x="206" y="278" type="curve" smooth="yes"/>
      <point x="206" y="383"/>
      <point x="243" y="496"/>
      <point x="314" y="534" type="curve"/>
      <point x="501" y="494" type="line"/>
      <point x="501" y="659" type="line"/>
      <point x="172" y="667"/>
      <point x="34" y="451"/>
      <point x="34" y="263" type="curve" smooth="yes"/>
      <point x="34" y="79"/>
      <point x="169" y="-20"/>
      <point x="315" y="-20" type="curve" smooth="yes"/>
      <point x="467" y="-20"/>
      <point x="556" y="85"/>
      <point x="556" y="204" type="curve" smooth="yes"/>
      <point x="556" y="322"/>
      <point x="470" y="398"/>
      <point x="373" y="398" type="curve" smooth="yes"/>
      <point x="332" y="398"/>
      <point x="279" y="384"/>
      <point x="233" y="343" type="curve"/>
    </contour>
  </outline>
</glyph>
<glyph name="seven" format="1">
  <advance width="510"/>
  <unicode hex="0037"/>
  <outline>
    <contour>
      <point x="470" y="650" type="line"/>
      <point x="32" y="650" type="line"/>
      <point x="78" y="537" type="line"/>
      <point x="354" y="547" type="line"/>
      <point x="361" y="539" type="line"/>
      <point x="251" y="380"/>
      <point x="162" y="212"/>
      <point x="79" y="34" type="curve"/>
      <point x="243" y="-22" type="line"/>
      <point x="322" y="183"/>
      <point x="410" y="370"/>
      <point x="515" y="555" type="curve"/>
    </contour>
    <contour>
      <point x="154" y="434" type="line"/>
      <point x="189" y="646" type="line"/>
      <point x="23" y="650" type="line"/>
      <point x="18" y="601"/>
      <point x="28" y="484"/>
      <point x="40" y="434" type="curve"/>
    </contour>
  </outline>
</glyph>
<glyph name="eight" format="1">
  <advance width="570"/>
  <unicode hex="0038"/>
  <outline>
    <contour>
      <point x="286" y="-22" type="curve"/>
      <point x="427" y="-22"/>
      <point x="533" y="52"/>
      <point x="533" y="169" type="curve"/>
      <point x="533" y="277"/>
      <point x="444" y="335"/>
      <point x="349" y="386" type="curve"/>
      <point x="276" y="425"/>
      <point x="211" y="455"/>
      <point x="211" y="514" type="curve"/>
      <point x="211" y="532"/>
      <point x="218" y="555"/>
      <point x="235" y="575" type="curve"/>
      <point x="251" y="582"/>
      <point x="267" y="585"/>
      <point x="281" y="585" type="curve"/>
      <point x="332" y="585"/>
      <point x="367" y="548"/>
      <point x="367" y="497" type="curve"/>
      <point x="367" y="467"/>
      <point x="354" y="423"/>
      <point x="299" y="388" type="curve"/>
      <point x="372" y="336" type="line"/>
      <point x="466" y="371"/>
      <point x="507" y="439"/>
      <point x="507" y="502" type="curve"/>
      <point x="507" y="588"/>
      <point x="428" y="668"/>
      <point x="288" y="668" type="curve"/>
      <point x="140" y="668"/>
      <point x="57" y="580"/>
      <point x="57" y="483" type="curve"/>
      <point x="57" y="412"/>
      <point x="101" y="360"/>
      <point x="169" y="319" type="curve"/>
      <point x="229" y="285" type="line"/>
      <point x="334" y="228"/>
      <point x="373" y="195"/>
      <point x="373" y="134" type="curve"/>
      <point x="373" y="110"/>
      <point x="367" y="92"/>
      <point x="351" y="67" type="curve"/>
      <point x="332" y="60"/>
      <point x="314" y="58"/>
      <point x="299" y="58" type="curve"/>
      <point x="235" y="58"/>
      <point x="201" y="103"/>
      <point x="201" y="155" type="curve"/>
      <point x="201" y="204"/>
      <point x="229" y="258"/>
      <point x="292" y="287" type="curve"/>
      <point x="229" y="358" type="line"/>
      <point x="107" y="330"/>
      <point x="37" y="249"/>
      <point x="37" y="161" type="curve"/>
      <point x="37" y="51"/>
      <point x="144" y="-22"/>
    </contour>
  </outline>
</glyph>
<glyph name="nine" format="1">
  <advance width="570"/>
  <unicode hex="0039"/>
  <outline>
    <contour>
      <point x="249" y="322"/>
      <point x="202" y="384"/>
      <point x="202" y="460" type="curve" smooth="yes"/>
      <point x="202" y="509"/>
      <point x="219" y="558"/>
      <point x="253" y="574" type="curve"/>
      <point x="342" y="590"/>
      <point x="377" y="480"/>
      <point x="377" y="367" type="curve" smooth="yes"/>
      <point x="377" y="263"/>
      <point x="348" y="155"/>
      <point x="276" y="113" type="curve"/>
      <point x="82" y="159" type="line"/>
      <point x="110" y="-10" type="line"/>
      <point x="353" y="-26"/>
      <point x="543" y="136"/>
      <point x="543" y="368" type="curve" smooth="yes"/>
      <point x="543" y="539"/>
      <point x="441" y="670"/>
      <point x="271" y="670" type="curve" smooth="yes"/>
      <point x="127" y="670"/>
      <point x="27" y="574"/>
      <point x="27" y="446" type="curve" smooth="yes"/>
      <point x="27" y="286"/>
      <point x="182" y="185"/>
      <point x="338" y="248" type="curve"/>
      <point x="328" y="340" type="line"/>
    </contour>
  </outline>
</glyph>
<glyph name="colon" format="1">
  <advance width="286"/>
  <unicode hex="003A"/>
  <outline>
    <contour>
      <point x="201" y="-20" type="curve"/>
      <point x="244" y="2"/>
      <point x="273" y="36"/>
      <point x="286" y="81" type="curve"/>
      <point x="274" y="125"/>
      <point x="234" y="162"/>
      <point x="186" y="183" type="curve"/>
      <point x="138" y="156"/>
      <point x="104" y="119"/>
      <point x="96" y="65" type="curve"/>
      <point x="118" y="22"/>
      <point x="153" y="-6"/>
    </contour>
    <contour>
      <point x="201" y="289" type="curve"/>
      <point x="244" y="311"/>
      <point x="273" y="345"/>
      <point x="286" y="390" type="curve"/>
      <point x="274" y="435"/>
      <point x="234" y="470"/>
      <point x="186" y="491" type="curve"/>
      <point x="138" y="466"/>
      <point x="104" y="427"/>
      <point x="96" y="374" type="curve"/>
      <point x="118" y="332"/>
      <point x="153" y="304"/>
    </contour>
  </outline>
</glyph>
<glyph name="semicolon" format="1">
  <advance width="312"/>
  <unicode hex="003B"/>
  <outline>
    <contour>
      <point x="242" y="435"/>
      <point x="202" y="470"/>
      <point x="154" y="491" type="curve"/>
      <point x="106" y="466"/>
      <point x="72" y="427"/>
      <point x="64" y="374" type="curve"/>
      <point x="86" y="332"/>
      <point x="121" y="304"/>
      <point x="169" y="289" type="curve"/>
      <point x="212" y="311"/>
      <point x="241" y="345"/>
      <point x="254" y="390" type="curve"/>
    </contour>
    <contour>
      <point x="92" y="-142" type="line"/>
      <point x="177" y="-104"/>
      <point x="250" y="-18"/>
      <point x="250" y="59" type="curve" smooth="yes"/>
      <point x="250" y="110"/>
      <point x="219" y="156"/>
      <point x="152" y="181" type="curve"/>
      <point x="108" y="157"/>
      <point x="73" y="119"/>
      <point x="64" y="66" type="curve"/>
      <point x="118" y="20" type="line"/>
      <point x="116" y="-13"/>
      <point x="89" y="-57"/>
      <point x="49" y="-91" type="curve"/>
    </contour>
  </outline>
</glyph>
<glyph name="less" format="1">
  <advance width="577"/>
  <unicode hex="003C"/>
  <outline>
    <contour>
      <point x="62" y="272" type="line"/>
      <point x="66" y="202" type="line"/>
      <point x="465" y="-6" type="line"/>
      <point x="513" y="86" type="line"/>
      <point x="214" y="239" type="line"/>
      <point x="213" y="245" type="line"/>
      <point x="511" y="412" type="line"/>
      <point x="464" y="500" type="line"/>
    </contour>
  </outline>
</glyph>
<glyph name="equal" format="1">
  <advance width="580"/>
  <unicode hex="003D"/>
  <outline>
    <contour>
      <point x="54" y="207" type="line"/>
      <point x="54" y="118" type="line"/>
      <point x="526" y="118" type="line"/>
      <point x="526" y="207" type="line"/>
    </contour>
    <contour>
      <point x="54" y="393" type="line"/>
      <point x="54" y="304" type="line"/>
      <point x="526" y="304" type="line"/>
      <point x="526" y="393" type="line"/>
    </contour>
  </outline>
</glyph>
<glyph name="greater" format="1">
  <advance width="577"/>
  <unicode hex="003E"/>
  <outline>
    <contour>
      <point x="63" y="86" type="line"/>
      <point x="112" y="-6" type="line"/>
      <point x="511" y="202" type="line"/>
      <point x="514" y="272" type="line"/>
      <point x="112" y="500" type="line"/>
      <point x="65" y="412" type="line"/>
      <point x="364" y="245" type="line"/>
      <point x="363" y="239" type="line"/>
    </contour>
  </outline>
</glyph>
<glyph name="question" format="1">
  <advance width="641"/>
  <unicode hex="003F"/>
  <outline>
    <contour>
      <point x="212" y="457" type="line"/>
      <point x="281" y="641" type="line"/>
      <point x="90" y="638" type="line"/>
      <point x="87" y="608"/>
      <point x="98" y="516"/>
      <point x="111" y="457" type="curve"/>
    </contour>
    <contour>
      <point x="392" y="369"/>
      <point x="549" y="376"/>
      <point x="549" y="519" type="curve" smooth="yes"/>
      <point x="549" y="632"/>
      <point x="452" y="719"/>
      <point x="307" y="719" type="curve" smooth="yes"/>
      <point x="208" y="719"/>
      <point x="138" y="680"/>
      <point x="89" y="638" type="curve"/>
      <point x="131" y="526" type="line"/>
      <point x="202" y="583"/>
      <point x="255" y="610"/>
      <point x="317" y="609" type="curve"/>
      <point x="355" y="592"/>
      <point x="373" y="557"/>
      <point x="373" y="522" type="curve" smooth="yes"/>
      <point x="373" y="424"/>
      <point x="226" y="402"/>
      <point x="227" y="249" type="curve"/>
      <point x="371" y="249" type="line"/>
    </contour>
    <contour>
      <point x="260" y="156"/>
      <point x="226" y="119"/>
      <point x="218" y="65" type="curve"/>
      <point x="240" y="22"/>
      <point x="275" y="-6"/>
      <point x="323" y="-20" type="curve"/>
      <point x="366" y="2"/>
      <point x="395" y="36"/>
      <point x="408" y="81" type="curve"/>
      <point x="396" y="125"/>
      <point x="356" y="162"/>
      <point x="308" y="183" type="curve"/>
    </contour>
  </outline>
</glyph>
<glyph name="A" format="1">
  <advance width="730"/>
  <unicode hex="0041"/>
  <outline>
    <contour>
      <point x="263" y="646" type="line"/>
      <point x="505" y="0" type="line"/>
      <point x="696" y="0" type="line"/>
      <point x="419" y="686" type="line"/>
    </contour>
    <contour>
      <point x="-20" y="32" type="curve"/>
      <point x="-14" y="0" type="line"/>
      <point x="80" y="0" type="line"/>
      <point x="79" y="85" type="line"/>
      <point x="42" y="69"/>
      <point x="9" y="52"/>
    </contour>
    <contour>
      <point x="129" y="75" type="line"/>
      <point x="126" y="0" type="line"/>
      <point x="266" y="0" type="line"/>
      <point x="267" y="53" type="line"/>
    </contour>
    <contour>
      <point x="396" y="32" type="curve"/>
      <point x="402" y="0" type="line"/>
      <point x="517" y="0" type="line"/>
      <point x="495" y="85" type="line"/>
      <point x="458" y="69"/>
      <point x="425" y="52"/>
    </contour>
    <contour>
      <point x="294" y="644" type="line"/>
      <point x="32" y="0" type="line"/>
      <point x="156" y="0" type="line"/>
      <point x="390" y="624" type="line"/>
    </contour>
    <contour>
      <point x="183" y="256" type="line"/>
      <point x="183" y="172" type="line"/>
      <point x="506" y="172" type="line"/>
      <point x="506" y="256" type="line"/>
    </contour>
    <contour>
      <point x="604" y="75" type="line"/>
      <point x="601" y="0" type="line"/>
      <point x="741" y="0" type="line"/>
      <point x="742" y="53" type="line"/>
    </contour>
    <contour>
      <point x="696" y="0" type="move" name="ogonek"/>
    </contour>
    <contour>
      <point x="354" y="650" type="move" name="top"/>
    </contour>
  </outline>
</glyph>
<glyph name="B" format="1">
  <advance width="693"/>
  <unicode hex="0042"/>
  <outline>
    <contour>
      <point x="289" y="670"/>
      <point x="134" y="667"/>
      <point x="39" y="662" type="curve"/>
      <point x="284" y="567" type="line"/>
      <point x="386" y="583" type="line"/>
      <point x="427" y="571"/>
      <point x="453" y="522"/>
      <point x="453" y="478" type="curve" smooth="yes"/>
      <point x="453" y="429"/>
      <point x="419" y="380"/>
      <point x="335" y="380" type="curve" smooth="yes"/>
      <point x="263" y="380" type="line"/>
      <point x="263" y="314" type="line"/>
      <point x="345" y="322" type="line"/>
      <point x="476" y="345" type="line"/>
      <point x="584" y="351"/>
      <point x="633" y="433"/>
      <point x="633" y="499" type="curve" smooth="yes"/>
      <point x="633" y="583"/>
      <point x="551" y="670"/>
      <point x="377" y="670" type="curve"/>
    </contour>
    <contour>
      <point x="86" y="69"/>
      <point x="53" y="52"/>
      <point x="24" y="32" type="curve"/>
      <point x="30" y="0" type="line"/>
      <point x="124" y="0" type="line"/>
      <point x="123" y="85" type="line"/>
    </contour>
    <contour>
      <point x="109" y="662" type="line"/>
      <point x="109" y="0" type="line"/>
      <point x="290" y="0" type="line"/>
      <point x="290" y="662" type="line"/>
    </contour>
    <contour>
      <point x="286" y="338" type="line"/>
      <point x="269" y="308" type="line"/>
      <point x="364" y="308" type="line" smooth="yes"/>
      <point x="433" y="308"/>
      <point x="476" y="245"/>
      <point x="476" y="188" type="curve" smooth="yes"/>
      <point x="476" y="133"/>
      <point x="439" y="77"/>
      <point x="360" y="85" type="curve" smooth="yes"/>
      <point x="269" y="95" type="line"/>
      <point x="266" y="0" type="line"/>
      <point x="382" y="0" type="line" smooth="yes"/>
      <point x="588" y="0"/>
      <point x="662" y="92"/>
      <point x="662" y="184" type="curve" smooth="yes"/>
      <point x="662" y="282"/>
      <point x="579" y="366"/>
      <point x="418" y="354" type="curve"/>
    </contour>
    <contour>
      <point x="39" y="662" type="line"/>
      <point x="38" y="609" type="line"/>
      <point x="160" y="591" type="line"/>
      <point x="161" y="662" type="line"/>
    </contour>
  </outline>
</glyph>
<glyph name="C" format="1">
  <advance width="597"/>
  <unicode hex="0043"/>
  <outline>
    <contour>
      <point x="561" y="154" type="line"/>
      <point x="391" y="100" type="line"/>
      <point x="257" y="97"/>
      <point x="191" y="208"/>
      <point x="191" y="348" type="curve" smooth="yes"/>
      <point x="191" y="436"/>
      <point x="217" y="531"/>
      <point x="278" y="586" type="curve"/>
      <point x="387" y="581"/>
      <point x="466" y="540"/>
      <point x="539" y="479" type="curve"/>
      <point x="570" y="617" type="line"/>
      <point x="527" y="648"/>
      <point x="462" y="682"/>
      <point x="359" y="682" type="curve" smooth="yes"/>
      <point x="122" y="682"/>
      <point x="9" y="502"/>
      <point x="9" y="322" type="curve" smooth="yes"/>
      <point x="9" y="162"/>
      <point x="99" y="-28"/>
      <point x="379" y="-17" type="curve"/>
      <point x="589" y="72" type="line"/>
    </contour>
    <contour>
      <point x="546" y="425" type="line"/>
      <point x="562" y="481"/>
      <point x="574" y="575"/>
      <point x="570" y="617" type="curve"/>
      <point x="397" y="608" type="line"/>
      <point x="438" y="425" type="line"/>
    </contour>
    <contour>
      <point x="334" y="650" type="move" name="top"/>
    </contour>
    <contour>
      <point x="334" y="0" type="move" name="bottom"/>
    </contour>
  </outline>
</glyph>
<glyph name="F" format="1">
  <advance width="633"/>
  <unicode hex="0046"/>
  <outline>
    <contour>
      <point x="103" y="662" type="line"/>
      <point x="103" y="0" type="line"/>
      <point x="284" y="0" type="line"/>
      <point x="284" y="662" type="line"/>
    </contour>
    <contour>
      <point x="24" y="32" type="curve"/>
      <point x="30" y="0" type="line"/>
      <point x="124" y="0" type="line"/>
      <point x="123" y="85" type="line"/>
      <point x="86" y="69"/>
      <point x="53" y="52"/>
    </contour>
    <contour>
      <point x="268" y="75" type="line"/>
      <point x="265" y="0" type="line"/>
      <point x="405" y="0" type="line"/>
      <point x="406" y="53" type="line"/>
    </contour>
    <contour>
      <point x="266" y="265" type="line"/>
      <point x="506" y="254" type="line"/>
      <point x="506" y="368" type="line"/>
      <point x="266" y="350" type="line"/>
    </contour>
    <contour>
      <point x="29" y="609" type="line"/>
      <point x="151" y="591" type="line"/>
      <point x="152" y="662" type="line"/>
      <point x="30" y="662" type="line"/>
    </contour>
    <contour>
      <point x="259" y="576" type="line"/>
      <point x="553" y="555" type="line"/>
      <point x="583" y="662" type="line"/>
      <point x="184" y="662" type="line"/>
    </contour>
    <contour>
      <point x="431" y="644" type="line"/>
      <point x="464" y="454" type="line"/>
      <point x="564" y="454" type="line"/>
      <point x="578" y="521"/>
      <point x="585" y="619"/>
      <point x="582" y="662" type="curve"/>
    </contour>
    <contour>
      <point x="115" y="0" type="move" name="bottom"/>
    </contour>
    <contour>
      <point x="115" y="260" type="move" name="top"/>
    </contour>
  </outline>
</glyph>
<glyph name="G" format="1">
  <advance width="710"/>
  <unicode hex="0047"/>
  <outline>
    <contour>
      <point x="394" y="-20" type="curve"/>
      <point x="616" y="68" type="line"/>
      <point x="571" y="122" type="line"/>
      <point x="527" y="107"/>
      <point x="447" y="87"/>
      <point x="385" y="89" type="curve"/>
      <point x="254" y="95"/>
      <point x="192" y="217"/>
      <point x="192" y="345" type="curve"/>
      <point x="192" y="438"/>
      <point x="221" y="534"/>
      <point x="284" y="586" type="curve"/>
      <point x="437" y="589"/>
      <point x="532" y="521"/>
      <point x="575" y="485" type="curve"/>
      <point x="605" y="621" type="line"/>
      <point x="570" y="645"/>
      <point x="494" y="682"/>
      <point x="387" y="682" type="curve"/>
      <point x="142" y="682"/>
      <point x="11" y="506"/>
      <point x="11" y="319" type="curve"/>
      <point x="11" y="161"/>
      <point x="107" y="-35"/>
    </contour>
    <contour>
      <point x="471" y="214" type="curve"/>
      <point x="466" y="304" type="line"/>
      <point x="364" y="304" type="line"/>
      <point x="358" y="271" type="line"/>
      <point x="391" y="248"/>
      <point x="432" y="230"/>
    </contour>
    <contour>
      <point x="453" y="304" type="line"/>
      <point x="453" y="64" type="line"/>
      <point x="616" y="68" type="line"/>
      <point x="616" y="304" type="line"/>
    </contour>
    <contour>
      <point x="534" y="304" type="line"/>
      <point x="549" y="221" type="line"/>
      <point x="692" y="257" type="line"/>
      <point x="691" y="304" type="line"/>
    </contour>
    <contour>
      <point x="432" y="611" type="line"/>
      <point x="476" y="439" type="line"/>
      <point x="583" y="439" type="line"/>
      <point x="599" y="498"/>
      <point x="609" y="578"/>
      <point x="605" y="621" type="curve"/>
    </contour>
    <contour>
      <point x="355" y="0" type="move" name="bottom"/>
    </contour>
    <contour>
      <point x="355" y="650" type="move" name="top"/>
    </contour>
  </outline>
</glyph>
<glyph name="I" format="1">
  <advance width="405"/>
  <unicode hex="0049"/>
  <outline>
    <contour>
      <point x="290" y="0" type="line"/>
      <point x="290" y="662" type="line"/>
      <point x="109" y="662" type="line"/>
      <point x="109" y="0" type="line"/>
    </contour>
    <contour>
      <point x="124" y="0" type="line"/>
      <point x="123" y="85" type="line"/>
      <point x="86" y="69"/>
      <point x="53" y="52"/>
      <point x="24" y="32" type="curve"/>
      <point x="30" y="0" type="line"/>
    </contour>
    <contour>
      <point x="380" y="0" type="line"/>
      <point x="381" y="53" type="line"/>
      <point x="243" y="75" type="line"/>
      <point x="240" y="0" type="line"/>
    </contour>
    <contour>
      <point x="33" y="662" type="line"/>
      <point x="32" y="609" type="line"/>
      <point x="170" y="587" type="line"/>
      <point x="173" y="662" type="line"/>
    </contour>
    <contour>
      <point x="275" y="662" type="line"/>
      <point x="276" y="577" type="line"/>
      <point x="313" y="593"/>
      <point x="347" y="610"/>
      <point x="375" y="630" type="curve"/>
      <point x="369" y="662" type="line"/>
    </contour>
    <contour>
      <point x="321" y="0" type="move" name="ogonek"/>
    </contour>
    <contour>
      <point x="200" y="650" type="move" name="top"/>
    </contour>
  </outline>
</glyph>
<glyph name="J" format="1">
  <advance width="406"/>
  <unicode hex="004A"/>
  <outline>
    <contour>
      <point x="35" y="662" type="line"/>
      <point x="34" y="609" type="line"/>
      <point x="172" y="587" type="line"/>
      <point x="175" y="662" type="line"/>
    </contour>
    <contour>
      <point x="119" y="662" type="line"/>
      <point x="119" y="146" type="line" smooth="yes"/>
      <point x="119" y="-16"/>
      <point x="60" y="-78"/>
      <point x="-25" y="-131" type="curve"/>
      <point x="10" y="-188" type="line"/>
      <point x="180" y="-130"/>
      <point x="299" y="-47"/>
      <point x="299" y="153" type="curve" smooth="yes"/>
      <point x="299" y="662" type="line"/>
    </contour>
    <contour>
      <point x="284" y="662" type="line"/>
      <point x="285" y="577" type="line"/>
      <point x="322" y="593"/>
      <point x="356" y="610"/>
      <point x="384" y="630" type="curve"/>
      <point x="378" y="662" type="line"/>
    </contour>
    <contour>
      <point x="212" y="650" type="move" name="top"/>
    </contour>
  </outline>
</glyph>
<glyph name="K" format="1">
  <advance width="753"/>
  <unicode hex="004B"/>
  <outline>
    <contour>
      <point x="558" y="662" type="line"/>
      <point x="229" y="309" type="line"/>
      <point x="249" y="200" type="line"/>
      <point x="642" y="615" type="line"/>
      <point x="648" y="662" type="line"/>
    </contour>
    <contour>
      <point x="86" y="69"/>
      <point x="53" y="52"/>
      <point x="24" y="32" type="curve"/>
      <point x="30" y="0" type="line"/>
      <point x="124" y="0" type="line"/>
      <point x="123" y="85" type="line"/>
    </contour>
    <contour>
      <point x="228" y="0" type="line"/>
      <point x="368" y="0" type="line"/>
      <point x="369" y="53" type="line"/>
      <point x="231" y="75" type="line"/>
    </contour>
    <contour>
      <point x="109" y="662" type="line"/>
      <point x="109" y="0" type="line"/>
      <point x="290" y="0" type="line"/>
      <point x="290" y="662" type="line"/>
    </contour>
    <contour>
      <point x="275" y="662" type="line"/>
      <point x="276" y="577" type="line"/>
      <point x="313" y="593"/>
      <point x="347" y="610"/>
      <point x="375" y="630" type="curve"/>
      <point x="369" y="662" type="line"/>
    </contour>
    <contour>
      <point x="435" y="662" type="line"/>
      <point x="434" y="609" type="line"/>
      <point x="572" y="587" type="line"/>
      <point x="575" y="662" type="line"/>
    </contour>
    <contour>
      <point x="588" y="662" type="line"/>
      <point x="589" y="577" type="line"/>
      <point x="626" y="592"/>
      <point x="678" y="610"/>
      <point x="706" y="630" type="curve"/>
      <point x="700" y="662" type="line"/>
    </contour>
    <contour>
      <point x="33" y="662" type="line"/>
      <point x="32" y="609" type="line"/>
      <point x="170" y="587" type="line"/>
      <point x="173" y="662" type="line"/>
    </contour>
    <contour>
      <point x="309" y="289" type="line"/>
      <point x="514" y="0" type="line"/>
      <point x="733" y="0" type="line"/>
      <point x="433" y="404" type="line"/>
    </contour>
    <contour>
      <point x="623" y="0" type="line"/>
      <point x="745" y="0" type="line"/>
      <point x="746" y="53" type="line"/>
      <point x="624" y="77" type="line"/>
    </contour>
    <contour>
      <point x="381" y="650" type="move" name="top"/>
    </contour>
    <contour>
      <point x="397" y="0" type="move" name="bottom"/>
    </contour>
  </outline>
</glyph>
<glyph name="L" format="1">
  <advance width="619"/>
  <unicode hex="004C"/>
  <outline>
    <contour>
      <point x="33" y="662" type="line"/>
      <point x="32" y="609" type="line"/>
      <point x="170" y="587" type="line"/>
      <point x="173" y="662" type="line"/>
    </contour>
    <contour>
      <point x="275" y="662" type="line"/>
      <point x="276" y="577" type="line"/>
      <point x="313" y="593"/>
      <point x="347" y="610"/>
      <point x="375" y="630" type="curve"/>
      <point x="369" y="662" type="line"/>
    </contour>
    <contour>
      <point x="86" y="69"/>
      <point x="53" y="52"/>
      <point x="24" y="32" type="curve"/>
      <point x="30" y="0" type="line"/>
      <point x="124" y="0" type="line"/>
      <point x="123" y="85" type="line"/>
    </contour>
    <contour>
      <point x="263" y="90" type="line"/>
      <point x="188" y="0" type="line"/>
      <point x="601" y="0" type="line"/>
      <point x="584" y="121" type="line"/>
    </contour>
    <contour>
      <point x="109" y="662" type="line"/>
      <point x="109" y="0" type="line"/>
      <point x="290" y="0" type="line"/>
      <point x="290" y="662" type="line"/>
    </contour>
    <contour>
      <point x="439" y="16" type="line"/>
      <point x="602" y="0" type="line"/>
      <point x="614" y="67"/>
      <point x="618" y="176"/>
      <point x="616" y="246" type="curve"/>
      <point x="513" y="255" type="line"/>
    </contour>
    <contour>
      <point x="213" y="650" type="move" name="top"/>
    </contour>
    <contour>
      <point x="317" y="0" type="move" name="bottom"/>
    </contour>
    <contour>
      <point x="576" y="650" type="move" name="topright"/>
    </contour>
  </outline>
</glyph>
<glyph name="M" format="1">
  <advance width="981"/>
  <unicode hex="004D"/>
  <outline>
    <contour>
      <point x="180" y="605" type="line"/>
      <point x="401" y="-7" type="line"/>
      <point x="529" y="16" type="line"/>
      <point x="525" y="120" type="line"/>
      <point x="336" y="650" type="line"/>
    </contour>
    <contour>
      <point x="24" y="32" type="curve"/>
      <point x="30" y="0" type="line"/>
      <point x="124" y="0" type="line"/>
      <point x="123" y="85" type="line"/>
      <point x="86" y="69"/>
      <point x="53" y="52"/>
    </contour>
    <contour>
      <point x="185" y="81" type="line"/>
      <point x="182" y="0" type="line"/>
      <point x="322" y="0" type="line"/>
      <point x="323" y="47" type="line" smooth="yes"/>
    </contour>
    <contour>
      <point x="126" y="650" type="line"/>
      <point x="110" y="0" type="line"/>
      <point x="237" y="0" type="line"/>
      <point x="241" y="303" type="line"/>
      <point x="221" y="540" type="line"/>
      <point x="337" y="650" type="line"/>
    </contour>
    <contour>
      <point x="607" y="32" type="curve"/>
      <point x="613" y="0" type="line"/>
      <point x="707" y="0" type="line"/>
      <point x="706" y="85" type="line"/>
      <point x="669" y="69"/>
      <point x="636" y="52"/>
    </contour>
    <contour>
      <point x="40" y="603" type="line"/>
      <point x="178" y="569" type="line"/>
      <point x="181" y="650" type="line"/>
      <point x="41" y="650" type="line"/>
    </contour>
    <contour>
      <point x="819" y="81" type="line"/>
      <point x="816" y="0" type="line"/>
      <point x="956" y="0" type="line"/>
      <point x="957" y="47" type="line"/>
    </contour>
    <contour>
      <point x="450" y="36" type="line"/>
      <point x="529" y="16" type="line"/>
      <point x="755" y="613" type="line"/>
      <point x="679" y="650" type="line"/>
    </contour>
    <contour>
      <point x="691" y="303" type="line"/>
      <point x="693" y="0" type="line"/>
      <point x="866" y="0" type="line"/>
      <point x="856" y="650" type="line"/>
      <point x="679" y="650" type="line"/>
      <point x="710" y="545" type="line"/>
    </contour>
    <contour>
      <point x="843" y="650" type="line"/>
      <point x="844" y="565" type="line"/>
      <point x="881" y="581"/>
      <point x="915" y="598"/>
      <point x="943" y="618" type="curve"/>
      <point x="937" y="650" type="line"/>
    </contour>
  </outline>
</glyph>
<glyph name="N" format="1">
  <advance width="788"/>
  <unicode hex="004E"/>
  <outline>
    <contour>
      <point x="181" y="0" type="line"/>
      <point x="321" y="0" type="line"/>
      <point x="322" y="53" type="line"/>
      <point x="184" y="75" type="line"/>
    </contour>
    <contour>
      <point x="86" y="69"/>
      <point x="53" y="52"/>
      <point x="24" y="32" type="curve"/>
      <point x="30" y="0" type="line"/>
      <point x="124" y="0" type="line"/>
      <point x="123" y="85" type="line"/>
    </contour>
    <contour>
      <point x="109" y="662" type="line"/>
      <point x="109" y="0" type="line"/>
      <point x="234" y="0" type="line"/>
      <point x="234" y="315" type="line"/>
      <point x="207" y="551" type="line"/>
      <point x="282" y="662" type="line"/>
    </contour>
    <contour>
      <point x="37" y="662" type="line"/>
      <point x="36" y="609" type="line"/>
      <point x="162" y="587" type="line"/>
      <point x="165" y="662" type="line"/>
    </contour>
    <contour>
      <point x="132" y="662" type="line"/>
      <point x="130" y="571" type="line"/>
      <point x="519" y="-13" type="line"/>
      <point x="633" y="16" type="line"/>
      <point x="651" y="93" type="line"/>
      <point x="281" y="662" type="line"/>
    </contour>
    <contour>
      <point x="462" y="662" type="line"/>
      <point x="461" y="609" type="line"/>
      <point x="599" y="587" type="line"/>
      <point x="602" y="662" type="line"/>
    </contour>
    <contour>
      <point x="560" y="662" type="line"/>
      <point x="560" y="336" type="line"/>
      <point x="593" y="44" type="line"/>
      <point x="519" y="-13" type="line"/>
      <point x="679" y="0" type="line"/>
      <point x="685" y="662" type="line"/>
    </contour>
    <contour>
      <point x="664" y="662" type="line"/>
      <point x="665" y="577" type="line"/>
      <point x="702" y="593"/>
      <point x="736" y="610"/>
      <point x="764" y="630" type="curve"/>
      <point x="758" y="662" type="line"/>
    </contour>
    <contour>
      <point x="374" y="650" type="move" name="top"/>
    </contour>
    <contour>
      <point x="392" y="0" type="move" name="bottom"/>
    </contour>
  </outline>
</glyph>
<glyph name="P" format="1">
  <advance width="656"/>
  <unicode hex="0050"/>
  <outline>
    <contour>
      <point x="259" y="341" type="curve"/>
      <point x="256" y="233" type="line"/>
      <point x="384" y="234" type="line" smooth="yes"/>
      <point x="541" y="235"/>
      <point x="644" y="328"/>
      <point x="644" y="447" type="curve"/>
      <point x="644" y="561"/>
      <point x="552" y="672"/>
      <point x="375" y="670" type="curve"/>
      <point x="30" y="662" type="line"/>
      <point x="273" y="567" type="line"/>
      <point x="408" y="583" type="line"/>
      <point x="443" y="561"/>
      <point x="461" y="500"/>
      <point x="461" y="450" type="curve"/>
      <point x="461" y="385"/>
      <point x="428" y="326"/>
      <point x="351" y="326" type="curve"/>
      <point x="330" y="326"/>
      <point x="292" y="330"/>
    </contour>
    <contour>
      <point x="24" y="32" type="curve"/>
      <point x="30" y="0" type="line"/>
      <point x="124" y="0" type="line"/>
      <point x="123" y="85" type="line"/>
      <point x="86" y="69"/>
      <point x="53" y="52"/>
    </contour>
    <contour>
      <point x="268" y="75" type="line"/>
      <point x="265" y="0" type="line"/>
      <point x="405" y="0" type="line"/>
      <point x="406" y="53" type="line"/>
    </contour>
    <contour>
      <point x="103" y="662" type="line"/>
      <point x="103" y="0" type="line"/>
      <point x="284" y="0" type="line"/>
      <point x="284" y="662" type="line"/>
    </contour>
    <contour>
      <point x="29" y="609" type="line"/>
      <point x="151" y="591" type="line"/>
      <point x="152" y="662" type="line"/>
      <point x="30" y="662" type="line"/>
    </contour>
  </outline>
</glyph>
<glyph name="Q" format="1">
  <advance width="724"/>
  <unicode hex="0051"/>
  <outline>
    <contour>
      <point x="344" y="-3" type="line"/>
      <point x="658" y="-192" type="line"/>
      <point x="739" y="-40" type="line"/>
      <point x="379" y="46" type="line"/>
    </contour>
    <component base="O"/>
  </outline>
</glyph>
<glyph name="R" format="1">
  <advance width="719"/>
  <unicode hex="0052"/>
  <outline>
    <contour>
      <point x="252" y="357" type="curve"/>
      <point x="261" y="251" type="line"/>
      <point x="395" y="252" type="line" smooth="yes"/>
      <point x="544" y="252"/>
      <point x="649" y="348"/>
      <point x="649" y="461" type="curve"/>
      <point x="649" y="573"/>
      <point x="545" y="670"/>
      <point x="374" y="670" type="curve"/>
      <point x="35" y="662" type="line"/>
      <point x="280" y="567" type="line"/>
      <point x="413" y="583" type="line"/>
      <point x="448" y="554"/>
      <point x="464" y="505"/>
      <point x="464" y="458" type="curve"/>
      <point x="464" y="389"/>
      <point x="431" y="337"/>
      <point x="346" y="337" type="curve"/>
      <point x="320" y="337"/>
      <point x="286" y="343"/>
    </contour>
    <contour>
      <point x="24" y="32" type="curve"/>
      <point x="30" y="0" type="line"/>
      <point x="124" y="0" type="line"/>
      <point x="123" y="85" type="line"/>
      <point x="86" y="69"/>
      <point x="53" y="52"/>
    </contour>
    <contour>
      <point x="235" y="75" type="line"/>
      <point x="232" y="0" type="line"/>
      <point x="372" y="0" type="line"/>
      <point x="373" y="53" type="line"/>
    </contour>
    <contour>
      <point x="109" y="662" type="line"/>
      <point x="109" y="0" type="line"/>
      <point x="290" y="0" type="line"/>
      <point x="290" y="662" type="line"/>
    </contour>
    <contour>
      <point x="335" y="291" type="line"/>
      <point x="488" y="0" type="line"/>
      <point x="690" y="0" type="line"/>
      <point x="505" y="300" type="line"/>
    </contour>
    <contour>
      <point x="575" y="74" type="line"/>
      <point x="572" y="0" type="line"/>
      <point x="712" y="0" type="line"/>
      <point x="713" y="53" type="line"/>
    </contour>
    <contour>
      <point x="34" y="609" type="line"/>
      <point x="156" y="591" type="line"/>
      <point x="157" y="662" type="line"/>
      <point x="35" y="662" type="line"/>
    </contour>
    <contour>
      <point x="353" y="0" type="move" name="bottom"/>
    </contour>
    <contour>
      <point x="338" y="650" type="move" name="top"/>
    </contour>
  </outline>
</glyph>
<glyph name="S" format="1">
  <advance width="600"/>
  <unicode hex="0053"/>
  <outline>
    <contour>
      <point x="163" y="682"/>
      <point x="51" y="600"/>
      <point x="51" y="477" type="curve" smooth="yes"/>
      <point x="51" y="361"/>
      <point x="150" y="308"/>
      <point x="239" y="267" type="curve" smooth="yes"/>
      <point x="321" y="229"/>
      <point x="386" y="202"/>
      <point x="386" y="143" type="curve" smooth="yes"/>
      <point x="386" y="116"/>
      <point x="371" y="86"/>
      <point x="332" y="68" type="curve"/>
      <point x="252" y="71"/>
      <point x="160" y="98"/>
      <point x="96" y="171" type="curve"/>
      <point x="52" y="42" type="line"/>
      <point x="120" y="2"/>
      <point x="227" y="-19"/>
      <point x="303" y="-19" type="curve" smooth="yes"/>
      <point x="444" y="-19"/>
      <point x="564" y="54"/>
      <point x="564" y="186" type="curve" smooth="yes"/>
      <point x="564" y="308"/>
      <point x="470" y="360"/>
      <point x="379" y="402" type="curve" smooth="yes"/>
      <point x="294" y="441"/>
      <point x="221" y="467"/>
      <point x="221" y="522" type="curve" smooth="yes"/>
      <point x="221" y="547"/>
      <point x="234" y="579"/>
      <point x="266" y="597" type="curve"/>
      <point x="345" y="596"/>
      <point x="420" y="571"/>
      <point x="479" y="507" type="curve"/>
      <point x="534" y="644" type="line"/>
      <point x="480" y="664"/>
      <point x="393" y="682"/>
      <point x="320" y="682" type="curve" smooth="yes"/>
    </contour>
    <contour>
      <point x="513" y="453" type="line"/>
      <point x="527" y="512"/>
      <point x="532" y="589"/>
      <point x="534" y="644" type="curve"/>
      <point x="363" y="634" type="line"/>
      <point x="421" y="453" type="line"/>
    </contour>
    <contour>
      <point x="57" y="182"/>
      <point x="48" y="84"/>
      <point x="53" y="42" type="curve"/>
      <point x="242" y="33" type="line"/>
      <point x="151" y="235" type="line"/>
      <point x="70" y="235" type="line"/>
    </contour>
    <contour>
      <point x="310" y="650" type="move" name="top"/>
    </contour>
    <contour>
      <point x="298" y="0" type="move" name="bottom"/>
    </contour>
  </outline>
</glyph>
<glyph name="T" format="1">
  <advance width="668"/>
  <unicode hex="0054"/>
  <outline>
    <contour>
      <point x="244" y="662" type="line"/>
      <point x="244" y="0" type="line"/>
      <point x="425" y="0" type="line"/>
      <point x="425" y="662" type="line"/>
    </contour>
    <contour>
      <point x="214" y="69"/>
      <point x="175" y="52"/>
      <point x="146" y="32" type="curve"/>
      <point x="152" y="0" type="line"/>
      <point x="252" y="0" type="line"/>
      <point x="251" y="85" type="line"/>
    </contour>
    <contour>
      <point x="382" y="0" type="line"/>
      <point x="522" y="0" type="line"/>
      <point x="523" y="53" type="line"/>
      <point x="385" y="75" type="line"/>
    </contour>
    <contour>
      <point x="398" y="662"/>
      <point x="276" y="662"/>
      <point x="8" y="668" type="curve"/>
      <point x="25" y="565" type="line"/>
      <point x="335" y="595" type="line"/>
      <point x="644" y="565" type="line"/>
      <point x="660" y="668" type="line"/>
    </contour>
    <contour>
      <point x="642" y="436" type="line"/>
      <point x="655" y="502"/>
      <point x="664" y="625"/>
      <point x="661" y="668" type="curve"/>
      <point x="525" y="646" type="line"/>
      <point x="548" y="436" type="line" smooth="yes"/>
    </contour>
    <contour>
      <point x="142" y="646" type="line"/>
      <point x="8" y="668" type="line"/>
      <point x="3" y="625"/>
      <point x="13" y="502"/>
      <point x="27" y="436" type="curve"/>
      <point x="120" y="436" type="line"/>
    </contour>
    <contour>
      <point x="334" y="325" type="move" name="center"/>
    </contour>
    <contour>
      <point x="334" y="0" type="move" name="bottom"/>
    </contour>
    <contour>
      <point x="334" y="650" type="move" name="top"/>
    </contour>
  </outline>
</glyph>
<glyph name="U" format="1">
  <advance width="755"/>
  <unicode hex="0055"/>
  <outline>
    <contour>
      <point x="538" y="662" type="line"/>
      <point x="538" y="290" type="line" smooth="yes"/>
      <point x="538" y="201"/>
      <point x="524" y="137"/>
      <point x="495" y="105" type="curve"/>
      <point x="473" y="89"/>
      <point x="447" y="80"/>
      <point x="412" y="80" type="curve" smooth="yes"/>
      <point x="327" y="80"/>
      <point x="265" y="134"/>
      <point x="265" y="261" type="curve" smooth="yes"/>
      <point x="265" y="662" type="line"/>
      <point x="84" y="662" type="line"/>
      <point x="84" y="301" type="line" smooth="yes"/>
      <point x="84" y="83"/>
      <point x="219" y="-20"/>
      <point x="394" y="-20" type="curve" smooth="yes"/>
      <point x="543" y="-20"/>
      <point x="663" y="57"/>
      <point x="663" y="290" type="curve" smooth="yes"/>
      <point x="663" y="662" type="line"/>
    </contour>
    <contour>
      <point x="8" y="662" type="line"/>
      <point x="7" y="609" type="line"/>
      <point x="145" y="587" type="line"/>
      <point x="148" y="662" type="line"/>
    </contour>
    <contour>
      <point x="250" y="662" type="line"/>
      <point x="251" y="577" type="line"/>
      <point x="288" y="593"/>
      <point x="322" y="610"/>
      <point x="350" y="630" type="curve"/>
      <point x="344" y="662" type="line"/>
    </contour>
    <contour>
      <point x="456" y="662" type="line"/>
      <point x="455" y="609" type="line"/>
      <point x="593" y="587" type="line"/>
      <point x="596" y="662" type="line"/>
    </contour>
    <contour>
      <point x="648" y="662" type="line"/>
      <point x="649" y="577" type="line"/>
      <point x="686" y="593"/>
      <point x="720" y="610"/>
      <point x="748" y="630" type="curve"/>
      <point x="742" y="662" type="line"/>
    </contour>
    <contour>
      <point x="528" y="0" type="move" name="ogonek"/>
    </contour>
    <contour>
      <point x="378" y="650" type="move" name="top"/>
    </contour>
  </outline>
</glyph>
<glyph name="V" format="1">
  <advance width="724"/>
  <unicode hex="0056"/>
  <outline>
    <contour>
      <point x="46" y="662" type="line"/>
      <point x="286" y="-16" type="line"/>
      <point x="344" y="-13"/>
      <point x="402" y="-7"/>
      <point x="448" y="1" type="curve"/>
      <point x="397" y="122" type="line"/>
      <point x="371" y="123" type="line"/>
      <point x="358" y="260" type="line"/>
      <point x="231" y="662" type="line"/>
    </contour>
    <contour>
      <point x="-2" y="662" type="line"/>
      <point x="-3" y="609" type="line"/>
      <point x="135" y="587" type="line"/>
      <point x="138" y="662" type="line"/>
    </contour>
    <contour>
      <point x="447" y="1" type="line"/>
      <point x="675" y="662" type="line"/>
      <point x="557" y="662" type="line"/>
      <point x="350" y="36" type="line"/>
    </contour>
    <contour>
      <point x="227" y="662" type="line"/>
      <point x="236" y="577" type="line"/>
      <point x="273" y="593"/>
      <point x="307" y="610"/>
      <point x="335" y="630" type="curve"/>
      <point x="329" y="662" type="line"/>
    </contour>
    <contour>
      <point x="448" y="662" type="line"/>
      <point x="447" y="609" type="line"/>
      <point x="585" y="587" type="line"/>
      <point x="588" y="662" type="line"/>
    </contour>
    <contour>
      <point x="618" y="662" type="line"/>
      <point x="627" y="577" type="line"/>
      <point x="664" y="593"/>
      <point x="698" y="610"/>
      <point x="726" y="630" type="curve"/>
      <point x="720" y="662" type="line"/>
    </contour>
  </outline>
</glyph>
<glyph name="W" format="1">
  <advance width="1011"/>
  <unicode hex="0057"/>
  <outline>
    <contour>
      <point x="45" y="662" type="line"/>
      <point x="262" y="-16" type="line"/>
      <point x="322" y="-13"/>
      <point x="374" y="-8"/>
      <point x="420" y="1" type="curve"/>
      <point x="379" y="122" type="line"/>
      <point x="345" y="123" type="line"/>
      <point x="338" y="264" type="line"/>
      <point x="230" y="662" type="line"/>
    </contour>
    <contour>
      <point x="-3" y="609" type="line"/>
      <point x="135" y="587" type="line"/>
      <point x="138" y="662" type="line"/>
      <point x="-2" y="662" type="line"/>
    </contour>
    <contour>
      <point x="326" y="36" type="line"/>
      <point x="421" y="1" type="line"/>
      <point x="483" y="204" type="line"/>
      <point x="508" y="329" type="line"/>
      <point x="526" y="329" type="line"/>
      <point x="570" y="476" type="line"/>
      <point x="466" y="522" type="line"/>
    </contour>
    <contour>
      <point x="223" y="662" type="line"/>
      <point x="232" y="577" type="line"/>
      <point x="269" y="593"/>
      <point x="303" y="610"/>
      <point x="331" y="630" type="curve"/>
      <point x="325" y="662" type="line"/>
    </contour>
    <contour>
      <point x="412" y="621" type="line"/>
      <point x="612" y="-16" type="line"/>
      <point x="672" y="-13"/>
      <point x="724" y="-8"/>
      <point x="771" y="1" type="curve"/>
      <point x="735" y="122" type="line"/>
      <point x="696" y="123" type="line"/>
      <point x="687" y="280" type="line"/>
      <point x="582" y="658" type="line"/>
    </contour>
    <contour>
      <point x="674" y="36" type="line"/>
      <point x="771" y="1" type="line"/>
      <point x="961" y="662" type="line"/>
      <point x="844" y="662" type="line"/>
    </contour>
    <contour>
      <point x="730" y="609" type="line"/>
      <point x="868" y="587" type="line"/>
      <point x="871" y="662" type="line"/>
      <point x="731" y="662" type="line"/>
    </contour>
    <contour>
      <point x="905" y="662" type="line"/>
      <point x="914" y="577" type="line"/>
      <point x="951" y="593"/>
      <point x="985" y="610"/>
      <point x="1013" y="630" type="curve"/>
      <point x="1007" y="662" type="line"/>
    </contour>
    <contour>
      <point x="500" y="650" type="move" name="top"/>
    </contour>
  </outline>
</glyph>
<glyph name="X" format="1">
  <advance width="713"/>
  <unicode hex="0058"/>
  <outline>
    <contour>
      <point x="162" y="587" type="line"/>
      <point x="165" y="662" type="line"/>
      <point x="25" y="662" type="line"/>
      <point x="24" y="609" type="line"/>
    </contour>
    <contour>
      <point x="232" y="662" type="line"/>
      <point x="241" y="577" type="line"/>
      <point x="278" y="593"/>
      <point x="312" y="610"/>
      <point x="340" y="630" type="curve"/>
      <point x="334" y="662" type="line"/>
    </contour>
    <contour>
      <point x="423" y="662" type="line"/>
      <point x="422" y="609" type="line"/>
      <point x="560" y="587" type="line"/>
      <point x="563" y="662" type="line"/>
    </contour>
    <contour>
      <point x="587" y="662" type="line"/>
      <point x="596" y="577" type="line"/>
      <point x="633" y="593"/>
      <point x="667" y="610"/>
      <point x="695" y="630" type="curve"/>
      <point x="689" y="662" type="line"/>
    </contour>
    <contour>
      <point x="60" y="69"/>
      <point x="27" y="52"/>
      <point x="-2" y="32" type="curve"/>
      <point x="4" y="0" type="line"/>
      <point x="106" y="0" type="line"/>
      <point x="97" y="85" type="line"/>
    </contour>
    <contour>
      <point x="150" y="0" type="line"/>
      <point x="290" y="0" type="line"/>
      <point x="291" y="53" type="line"/>
      <point x="153" y="75" type="line"/>
    </contour>
    <contour>
      <point x="456" y="69"/>
      <point x="423" y="52"/>
      <point x="394" y="32" type="curve"/>
      <point x="400" y="0" type="line"/>
      <point x="502" y="0" type="line"/>
      <point x="493" y="85" type="line"/>
    </contour>
    <contour>
      <point x="586" y="0" type="line"/>
      <point x="726" y="0" type="line"/>
      <point x="727" y="53" type="line"/>
      <point x="581" y="75" type="line"/>
    </contour>
    <contour>
      <point x="46" y="662" type="line"/>
      <point x="495" y="0" type="line"/>
      <point x="698" y="0" type="line"/>
      <point x="247" y="662" type="line"/>
    </contour>
    <contour>
      <point x="538" y="662" type="line"/>
      <point x="360" y="375" type="line"/>
      <point x="453" y="342" type="line"/>
      <point x="663" y="662" type="line"/>
    </contour>
    <contour>
      <point x="29" y="0" type="line"/>
      <point x="169" y="0" type="line"/>
      <point x="394" y="344" type="line"/>
      <point x="302" y="392" type="line"/>
    </contour>
  </outline>
</glyph>
<glyph name="Z" format="1">
  <advance width="660"/>
  <unicode hex="005A"/>
  <outline>
    <contour>
      <point x="98" y="555" type="line"/>
      <point x="547" y="589" type="line"/>
      <point x="580" y="662" type="line"/>
      <point x="66" y="662" type="line"/>
    </contour>
    <contour>
      <point x="518" y="619" type="line"/>
      <point x="429" y="607" type="line"/>
      <point x="32" y="79" type="line"/>
      <point x="81" y="-1" type="line"/>
      <point x="136" y="37" type="line"/>
      <point x="215" y="47" type="line"/>
      <point x="619" y="585" type="line"/>
      <point x="580" y="662" type="line"/>
    </contour>
    <contour>
      <point x="144" y="91" type="line"/>
      <point x="81" y="-1" type="line"/>
      <point x="599" y="0" type="line"/>
      <point x="585" y="108" type="line"/>
    </contour>
    <contour>
      <point x="224" y="603" type="line"/>
      <point x="66" y="662" type="line"/>
      <point x="60" y="595"/>
      <point x="61" y="501"/>
      <point x="73" y="429" type="curve"/>
      <point x="172" y="429" type="line"/>
    </contour>
    <contour>
      <point x="433" y="22" type="line"/>
      <point x="598" y="0" type="line"/>
      <point x="612" y="81"/>
      <point x="621" y="144"/>
      <point x="624" y="223" type="curve"/>
      <point x="518" y="237" type="line"/>
    </contour>
  </outline>
</glyph>
<glyph name="asciicircum" format="1">
  <advance width="497"/>
  <unicode hex="005E"/>
  <outline>
    <contour>
      <point x="16" y="374" type="line"/>
      <point x="102" y="321" type="line"/>
      <point x="245" y="539" type="line"/>
      <point x="252" y="539" type="line"/>
      <point x="404" y="323" type="line"/>
      <point x="485" y="376" type="line"/>
      <point x="292" y="650" type="line"/>
      <point x="202" y="650" type="line"/>
    </contour>
  </outline>
</glyph>
<glyph name="underscore" format="1">
  <advance width="532"/>
  <unicode hex="005F"/>
  <outline>
    <contour>
      <point x="10" y="-128" type="line"/>
      <point x="10" y="-217" type="line"/>
      <point x="522" y="-217" type="line"/>
      <point x="522" y="-128" type="line"/>
    </contour>
  </outline>
</glyph>
<glyph name="a" format="1">
  <advance width="563"/>
  <unicode hex="0061"/>
  <outline>
    <contour>
      <point x="54" y="203"/>
      <point x="30" y="155"/>
      <point x="30" y="114" type="curve" smooth="yes"/>
      <point x="30" y="46"/>
      <point x="96" y="-31"/>
      <point x="216" y="-13" type="curve"/>
      <point x="338" y="67" type="line"/>
      <point x="326" y="109" type="line"/>
      <point x="299" y="100"/>
      <point x="256" y="85"/>
      <point x="218" y="82" type="curve"/>
      <point x="206" y="93"/>
      <point x="201" y="111"/>
      <point x="201" y="125" type="curve" smooth="yes"/>
      <point x="201" y="167"/>
      <point x="255" y="176"/>
      <point x="304" y="175" type="curve"/>
      <point x="332" y="174" type="line"/>
      <point x="333" y="237" type="line"/>
      <point x="111" y="232" type="line"/>
    </contour>
    <contour>
      <point x="54" y="396"/>
      <point x="61" y="340"/>
      <point x="77" y="295" type="curve"/>
      <point x="175" y="297" type="line"/>
      <point x="199" y="407" type="line"/>
      <point x="213" y="413"/>
      <point x="236" y="418"/>
      <point x="255" y="419" type="curve"/>
      <point x="280" y="406"/>
      <point x="301" y="381"/>
      <point x="301" y="318" type="curve" smooth="yes"/>
      <point x="301" y="75" type="line"/>
      <point x="315" y="70" type="line"/>
      <point x="338" y="18"/>
      <point x="384" y="-16"/>
      <point x="424" y="-17" type="curve"/>
      <point x="556" y="57" type="line"/>
      <point x="550" y="101" type="line"/>
      <point x="529" y="100"/>
      <point x="514" y="98"/>
      <point x="499" y="98" type="curve" smooth="yes"/>
      <point x="483" y="98"/>
      <point x="474" y="108"/>
      <point x="474" y="122" type="curve"/>
      <point x="474" y="327" type="line"/>
      <point x="474" y="386"/>
      <point x="472" y="413"/>
      <point x="462" y="429" type="curve" smooth="yes"/>
      <point x="428" y="477"/>
      <point x="376" y="502"/>
      <point x="321" y="502" type="curve" smooth="yes"/>
      <point x="266" y="502"/>
      <point x="143" y="478"/>
      <point x="60" y="446" type="curve"/>
    </contour>
    <contour>
      <point x="265" y="468" type="move" name="top"/>
    </contour>
  </outline>
</glyph>
<glyph name="b" format="1">
  <advance width="573"/>
  <unicode hex="0062"/>
  <outline>
    <contour>
      <point x="175" y="737" type="line"/>
      <point x="56" y="684" type="line"/>
      <point x="56" y="20" type="line"/>
      <point x="229" y="42" type="line"/>
      <point x="229" y="687" type="line"/>
    </contour>
    <contour>
      <point x="172" y="330" type="line"/>
      <point x="211" y="354"/>
      <point x="245" y="373"/>
      <point x="278" y="373" type="curve" smooth="yes"/>
      <point x="340" y="373"/>
      <point x="377" y="307"/>
      <point x="377" y="232" type="curve" smooth="yes"/>
      <point x="377" y="172"/>
      <point x="355" y="110"/>
      <point x="316" y="76" type="curve"/>
      <point x="245" y="66"/>
      <point x="188" y="93"/>
      <point x="152" y="137" type="curve"/>
      <point x="55" y="20" type="line"/>
      <point x="125" y="-4"/>
      <point x="201" y="-18"/>
      <point x="264" y="-18" type="curve" smooth="yes"/>
      <point x="460" y="-18"/>
      <point x="555" y="118"/>
      <point x="555" y="262" type="curve" smooth="yes"/>
      <point x="555" y="396"/>
      <point x="473" y="514"/>
      <point x="335" y="491" type="curve"/>
      <point x="163" y="366" type="line"/>
    </contour>
    <contour>
      <point x="-19" y="650" type="line"/>
      <point x="99" y="629" type="line"/>
      <point x="175" y="666" type="line"/>
      <point x="175" y="737" type="line"/>
      <point x="105" y="733"/>
      <point x="35" y="721"/>
      <point x="-23" y="700" type="curve"/>
    </contour>
  </outline>
</glyph>
<glyph name="c" format="1">
  <advance width="463"/>
  <unicode hex="0063"/>
  <outline>
    <contour>
      <point x="427" y="126" type="line"/>
      <point x="388" y="107"/>
      <point x="352" y="96"/>
      <point x="318" y="96" type="curve" smooth="yes"/>
      <point x="226" y="96"/>
      <point x="178" y="168"/>
      <point x="178" y="265" type="curve" smooth="yes"/>
      <point x="178" y="310"/>
      <point x="189" y="369"/>
      <point x="226" y="409" type="curve"/>
      <point x="266" y="387"/>
      <point x="298" y="348"/>
      <point x="326" y="293" type="curve"/>
      <point x="463" y="370" type="line"/>
      <point x="437" y="458"/>
      <point x="353" y="500"/>
      <point x="264" y="500" type="curve" smooth="yes"/>
      <point x="122" y="500"/>
      <point x="11" y="395"/>
      <point x="11" y="239" type="curve" smooth="yes"/>
      <point x="11" y="66"/>
      <point x="151" y="-37"/>
      <point x="306" y="-13" type="curve"/>
      <point x="451" y="71" type="line"/>
    </contour>
    <contour>
      <point x="262" y="468" type="move" name="top"/>
    </contour>
    <contour>
      <point x="250" y="0" type="move" name="bottom"/>
    </contour>
  </outline>
</glyph>
<glyph name="f" format="1">
  <advance width="390"/>
  <unicode hex="0066"/>
  <outline>
    <contour>
      <point x="87" y="535" type="curve"/>
      <point x="87" y="0" type="line"/>
      <point x="261" y="0" type="line"/>
      <point x="261" y="437" type="line"/>
      <point x="263" y="465" type="line"/>
      <point x="199" y="641" type="line"/>
      <point x="256" y="623"/>
      <point x="307" y="593"/>
      <point x="350" y="551" type="curve"/>
      <point x="440" y="702" type="line"/>
      <point x="392" y="735"/>
      <point x="336" y="751"/>
      <point x="291" y="751" type="curve"/>
      <point x="180" y="751"/>
      <point x="87" y="659"/>
    </contour>
    <contour>
      <point x="21" y="35" type="curve"/>
      <point x="23" y="0" type="line"/>
      <point x="135" y="0" type="line"/>
      <point x="145" y="83" type="line"/>
      <point x="107" y="74"/>
      <point x="59" y="57"/>
    </contour>
    <contour>
      <point x="229" y="97" type="curve"/>
      <point x="204" y="0" type="line"/>
      <point x="350" y="0" type="line"/>
      <point x="352" y="49" type="line"/>
      <point x="315" y="72"/>
      <point x="271" y="87"/>
    </contour>
    <contour>
      <point x="11" y="415" type="curve"/>
      <point x="13" y="360" type="line"/>
      <point x="201" y="362" type="line"/>
      <point x="214" y="431" type="line"/>
      <point x="147" y="491" type="line"/>
      <point x="103" y="468"/>
      <point x="57" y="444"/>
    </contour>
    <contour>
      <point x="207" y="473" type="line"/>
      <point x="207" y="360" type="line"/>
      <point x="323" y="360" type="line"/>
      <point x="374" y="424" type="line"/>
      <point x="372" y="473" type="line"/>
    </contour>
  </outline>
</glyph>
<glyph name="h" format="1">
  <advance width="642"/>
  <unicode hex="0068"/>
  <outline>
    <contour>
      <point x="390" y="285" type="curve"/>
      <point x="390" y="0" type="line"/>
      <point x="563" y="0" type="line"/>
      <point x="563" y="296" type="line" smooth="yes"/>
      <point x="563" y="380"/>
      <point x="561" y="406"/>
      <point x="551" y="423" type="curve"/>
      <point x="516" y="478"/>
      <point x="451" y="494"/>
      <point x="412" y="495" type="curve"/>
      <point x="340" y="472"/>
      <point x="250" y="413"/>
      <point x="166" y="329" type="curve"/>
      <point x="171" y="303" type="line"/>
      <point x="219" y="339"/>
      <point x="276" y="376"/>
      <point x="322" y="378" type="curve"/>
      <point x="365" y="380"/>
      <point x="390" y="346"/>
    </contour>
    <contour>
      <point x="15" y="35" type="curve"/>
      <point x="17" y="0" type="line"/>
      <point x="129" y="0" type="line"/>
      <point x="139" y="83" type="line"/>
      <point x="101" y="74"/>
      <point x="53" y="57"/>
    </contour>
    <contour>
      <point x="194" y="103" type="curve"/>
      <point x="169" y="0" type="line"/>
      <point x="315" y="0" type="line"/>
      <point x="317" y="49" type="line"/>
      <point x="280" y="75"/>
      <point x="236" y="93"/>
    </contour>
    <contour>
      <point x="90" y="684" type="line"/>
      <point x="90" y="0" type="line"/>
      <point x="263" y="0" type="line"/>
      <point x="263" y="687" type="line"/>
      <point x="209" y="737" type="line"/>
    </contour>
    <contour>
      <point x="506" y="103" type="curve"/>
      <point x="481" y="0" type="line"/>
      <point x="627" y="0" type="line"/>
      <point x="629" y="49" type="line"/>
      <point x="592" y="75"/>
      <point x="548" y="93"/>
    </contour>
    <contour>
      <point x="16" y="650" type="line"/>
      <point x="133" y="629" type="line"/>
      <point x="209" y="666" type="line"/>
      <point x="209" y="737" type="line"/>
      <point x="139" y="733"/>
      <point x="69" y="721"/>
      <point x="11" y="700" type="curve"/>
    </contour>
  </outline>
</glyph>
<glyph name="i" format="1">
  <advance width="348"/>
  <unicode hex="0069"/>
  <outline>
    <contour>
      <point x="90" y="446" type="line"/>
      <point x="90" y="0" type="line"/>
      <point x="263" y="0" type="line"/>
      <point x="263" y="450" type="line"/>
      <point x="209" y="498" type="line"/>
    </contour>
    <contour>
      <point x="14" y="35" type="curve"/>
      <point x="16" y="0" type="line"/>
      <point x="128" y="0" type="line"/>
      <point x="138" y="83" type="line"/>
      <point x="100" y="74"/>
      <point x="52" y="57"/>
    </contour>
    <contour>
      <point x="200" y="103" type="curve"/>
      <point x="175" y="0" type="line"/>
      <point x="333" y="0" type="line"/>
      <point x="335" y="49" type="line"/>
      <point x="298" y="75"/>
      <point x="242" y="93"/>
    </contour>
    <contour>
      <point x="16" y="413" type="line"/>
      <point x="133" y="391" type="line"/>
      <point x="209" y="428" type="line"/>
      <point x="209" y="498" type="line"/>
      <point x="139" y="496"/>
      <point x="69" y="483"/>
      <point x="11" y="461" type="curve"/>
    </contour>
    <contour>
      <point x="186" y="551" type="curve"/>
      <point x="224" y="578"/>
      <point x="258" y="618"/>
      <point x="279" y="660" type="curve"/>
      <point x="251" y="701"/>
      <point x="210" y="739"/>
      <point x="166" y="762" type="curve"/>
      <point x="126" y="733"/>
      <point x="92" y="690"/>
      <point x="67" y="642" type="curve"/>
      <point x="97" y="605"/>
      <point x="141" y="571"/>
    </contour>
    <contour>
      <point x="96" y="0" type="move" name="ogonek"/>
    </contour>
  </outline>
</glyph>
<glyph name="j" format="1">
  <advance width="328"/>
  <unicode hex="006A"/>
  <outline>
    <contour>
      <point x="221" y="578"/>
      <point x="255" y="617"/>
      <point x="276" y="660" type="curve"/>
      <point x="248" y="700"/>
      <point x="207" y="738"/>
      <point x="163" y="762" type="curve"/>
      <point x="123" y="732"/>
      <point x="89" y="690"/>
      <point x="64" y="642" type="curve"/>
      <point x="94" y="605"/>
      <point x="138" y="571"/>
      <point x="183" y="550" type="curve"/>
    </contour>
    <contour>
      <point x="207" y="498" type="line"/>
      <point x="88" y="446" type="line"/>
      <point x="88" y="-55" type="line" smooth="yes"/>
      <point x="88" y="-123"/>
      <point x="50" y="-157"/>
      <point x="-10" y="-177" type="curve"/>
      <point x="7" y="-219" type="line"/>
      <point x="196" y="-202"/>
      <point x="261" y="-111"/>
      <point x="261" y="-45" type="curve" smooth="yes"/>
      <point x="261" y="450" type="line"/>
    </contour>
    <contour>
      <point x="130" y="391" type="line"/>
      <point x="206" y="428" type="line"/>
      <point x="206" y="498" type="line"/>
      <point x="136" y="496"/>
      <point x="66" y="483"/>
      <point x="8" y="461" type="curve"/>
      <point x="13" y="413" type="line"/>
    </contour>
    <contour>
      <point x="60" y="200" type="move" name="top"/>
    </contour>
  </outline>
</glyph>
<glyph name="k" format="1">
  <advance width="610"/>
  <unicode hex="006B"/>
  <outline>
    <contour>
      <point x="92" y="684" type="line"/>
      <point x="92" y="0" type="line"/>
      <point x="265" y="0" type="line"/>
      <point x="265" y="687" type="line"/>
      <point x="211" y="737" type="line"/>
    </contour>
    <contour>
      <point x="16" y="35" type="curve"/>
      <point x="18" y="0" type="line"/>
      <point x="130" y="0" type="line"/>
      <point x="140" y="83" type="line"/>
      <point x="102" y="74"/>
      <point x="54" y="57"/>
    </contour>
    <contour>
      <point x="413" y="-6" type="curve"/>
      <point x="584" y="-6" type="line"/>
      <point x="592" y="41" type="line"/>
      <point x="570" y="53"/>
      <point x="558" y="65"/>
      <point x="546" y="76" type="curve"/>
      <point x="410" y="267" type="line"/>
      <point x="263" y="213" type="line"/>
      <point x="365" y="49" type="line" smooth="yes"/>
      <point x="382" y="23"/>
      <point x="394" y="6"/>
    </contour>
    <contour>
      <point x="240" y="225" type="line"/>
      <point x="358" y="175" type="line"/>
      <point x="567" y="431" type="line"/>
      <point x="520" y="498" type="line"/>
      <point x="406" y="445" type="line"/>
    </contour>
    <contour>
      <point x="16" y="650" type="line"/>
      <point x="133" y="629" type="line"/>
      <point x="209" y="666" type="line"/>
      <point x="209" y="737" type="line"/>
      <point x="139" y="733"/>
      <point x="69" y="721"/>
      <point x="11" y="700" type="curve"/>
    </contour>
    <contour>
      <point x="323" y="413" type="line"/>
      <point x="444" y="392" type="line"/>
      <point x="520" y="429" type="line"/>
      <point x="520" y="498" type="line"/>
      <point x="450" y="496"/>
      <point x="376" y="483"/>
      <point x="318" y="462" type="curve"/>
    </contour>
    <contour>
      <point x="318" y="0" type="move" name="bottom"/>
    </contour>
  </outline>
</glyph>
<glyph name="l" format="1">
  <advance width="351"/>
  <unicode hex="006C"/>
  <outline>
    <contour>
      <point x="86" y="0" type="line"/>
      <point x="259" y="0" type="line"/>
      <point x="259" y="687" type="line"/>
      <point x="205" y="737" type="line"/>
      <point x="86" y="684" type="line"/>
    </contour>
    <contour>
      <point x="129" y="629" type="line"/>
      <point x="205" y="666" type="line"/>
      <point x="205" y="737" type="line"/>
      <point x="135" y="733"/>
      <point x="65" y="721"/>
      <point x="7" y="700" type="curve"/>
      <point x="12" y="650" type="line"/>
    </contour>
    <contour>
      <point x="329" y="0" type="line"/>
      <point x="331" y="49" type="line"/>
      <point x="294" y="75"/>
      <point x="238" y="93"/>
      <point x="196" y="103" type="curve"/>
      <point x="171" y="0" type="line"/>
    </contour>
    <contour>
      <point x="124" y="0" type="line"/>
      <point x="134" y="83" type="line"/>
      <point x="96" y="74"/>
      <point x="48" y="57"/>
      <point x="10" y="35" type="curve"/>
      <point x="12" y="0" type="line"/>
    </contour>
    <contour>
      <point x="167" y="735" type="move" name="top"/>
    </contour>
    <contour>
      <point x="182" y="0" type="move" name="bottom"/>
    </contour>
    <contour>
      <point x="334" y="468" type="move" name="topright"/>
    </contour>
  </outline>
</glyph>
<glyph name="n" format="1">
  <advance width="650"/>
  <unicode hex="006E"/>
  <outline>
    <contour>
      <point x="392" y="285" type="curve"/>
      <point x="392" y="0" type="line"/>
      <point x="565" y="0" type="line"/>
      <point x="565" y="296" type="line" smooth="yes"/>
      <point x="565" y="380"/>
      <point x="563" y="406"/>
      <point x="553" y="423" type="curve"/>
      <point x="518" y="478"/>
      <point x="453" y="494"/>
      <point x="414" y="495" type="curve"/>
      <point x="342" y="472"/>
      <point x="252" y="413"/>
      <point x="168" y="329" type="curve"/>
      <point x="173" y="303" type="line"/>
      <point x="221" y="339"/>
      <point x="278" y="376"/>
      <point x="324" y="378" type="curve"/>
      <point x="367" y="380"/>
      <point x="392" y="346"/>
    </contour>
    <contour>
      <point x="16" y="35" type="curve"/>
      <point x="18" y="0" type="line"/>
      <point x="130" y="0" type="line"/>
      <point x="140" y="83" type="line"/>
      <point x="102" y="74"/>
      <point x="54" y="57"/>
    </contour>
    <contour>
      <point x="198" y="103" type="curve"/>
      <point x="173" y="0" type="line"/>
      <point x="319" y="0" type="line"/>
      <point x="321" y="49" type="line"/>
      <point x="284" y="75"/>
      <point x="240" y="93"/>
    </contour>
    <contour>
      <point x="90" y="446" type="line"/>
      <point x="90" y="0" type="line"/>
      <point x="263" y="0" type="line"/>
      <point x="263" y="444" type="line"/>
      <point x="209" y="498" type="line"/>
    </contour>
    <contour>
      <point x="16" y="413" type="line"/>
      <point x="133" y="391" type="line"/>
      <point x="209" y="428" type="line"/>
      <point x="209" y="498" type="line"/>
      <point x="139" y="496"/>
      <point x="69" y="483"/>
      <point x="11" y="461" type="curve"/>
    </contour>
    <contour>
      <point x="500" y="103" type="curve"/>
      <point x="475" y="0" type="line"/>
      <point x="634" y="0" type="line"/>
      <point x="637" y="49" type="line"/>
      <point x="599" y="75"/>
      <point x="542" y="93"/>
    </contour>
    <contour>
      <point x="333" y="0" type="move" name="bottom"/>
    </contour>
    <contour>
      <point x="325" y="468" type="move" name="top"/>
    </contour>
  </outline>
</glyph>
<glyph name="o" format="1">
  <advance width="527"/>
  <unicode hex="006F"/>
  <outline>
    <contour>
      <point x="11" y="77"/>
      <point x="133" y="-20"/>
      <point x="266" y="-20" type="curve" smooth="yes"/>
      <point x="397" y="-20"/>
      <point x="511" y="72"/>
      <point x="511" y="238" type="curve" smooth="yes"/>
      <point x="511" y="408"/>
      <point x="392" y="500"/>
      <point x="262" y="500" type="curve" smooth="yes"/>
      <point x="131" y="500"/>
      <point x="11" y="408"/>
      <point x="11" y="243" type="curve" smooth="yes"/>
    </contour>
    <contour>
      <point x="288" y="71"/>
      <point x="280" y="70"/>
      <point x="271" y="70" type="curve" smooth="yes"/>
      <point x="210" y="70"/>
      <point x="186" y="147"/>
      <point x="186" y="241" type="curve" smooth="yes"/>
      <point x="186" y="307"/>
      <point x="196" y="365"/>
      <point x="216" y="393" type="curve"/>
      <point x="225" y="400"/>
      <point x="240" y="404"/>
      <point x="255" y="404" type="curve" smooth="yes"/>
      <point x="314" y="404"/>
      <point x="336" y="324"/>
      <point x="336" y="227" type="curve" smooth="yes"/>
      <point x="336" y="160"/>
      <point x="328" y="97"/>
      <point x="299" y="75" type="curve"/>
    </contour>
    <contour>
      <point x="261" y="468" type="move" name="top"/>
    </contour>
  </outline>
</glyph>
<glyph name="p" format="1">
  <advance width="604"/>
  <unicode hex="0070"/>
  <outline>
    <contour>
      <point x="333" y="-6" type="curve"/>
      <point x="500" y="-6"/>
      <point x="588" y="123"/>
      <point x="588" y="261" type="curve"/>
      <point x="588" y="396"/>
      <point x="505" y="514"/>
      <point x="367" y="491" type="curve"/>
      <point x="195" y="364" type="line"/>
      <point x="204" y="329" type="line"/>
      <point x="243" y="354"/>
      <point x="278" y="373"/>
      <point x="310" y="373" type="curve"/>
      <point x="371" y="373"/>
      <point x="404" y="305"/>
      <point x="404" y="232" type="curve"/>
      <point x="404" y="172"/>
      <point x="382" y="110"/>
      <point x="348" y="78" type="curve"/>
      <point x="282" y="74"/>
      <point x="212" y="99"/>
      <point x="179" y="128" type="curve"/>
      <point x="109" y="52" type="line"/>
      <point x="178" y="17"/>
      <point x="265" y="-6"/>
    </contour>
    <contour>
      <point x="23" y="-167" type="curve"/>
      <point x="25" y="-202" type="line"/>
      <point x="137" y="-202" type="line"/>
      <point x="147" y="-119" type="line"/>
      <point x="109" y="-134"/>
      <point x="61" y="-151"/>
    </contour>
    <contour>
      <point x="234" y="-99" type="curve"/>
      <point x="209" y="-202" type="line"/>
      <point x="355" y="-202" type="line"/>
      <point x="357" y="-153" type="line"/>
      <point x="320" y="-133"/>
      <point x="276" y="-115"/>
    </contour>
    <contour>
      <point x="89" y="446" type="line"/>
      <point x="89" y="-202" type="line"/>
      <point x="262" y="-202" type="line"/>
      <point x="262" y="450" type="line"/>
      <point x="208" y="498" type="line"/>
    </contour>
    <contour>
      <point x="16" y="413" type="line"/>
      <point x="133" y="391" type="line"/>
      <point x="216" y="456" type="line"/>
      <point x="209" y="498" type="line"/>
      <point x="139" y="496"/>
      <point x="69" y="483"/>
      <point x="11" y="461" type="curve"/>
    </contour>
  </outline>
</glyph>
<glyph name="q" format="1">
  <advance width="575"/>
  <unicode hex="0071"/>
  <outline>
    <contour>
      <point x="234" y="-11" type="curve"/>
      <point x="407" y="117" type="line"/>
      <point x="413" y="165" type="line"/>
      <point x="366" y="130"/>
      <point x="321" y="114"/>
      <point x="290" y="114" type="curve"/>
      <point x="227" y="114"/>
      <point x="192" y="179"/>
      <point x="192" y="256" type="curve"/>
      <point x="192" y="315"/>
      <point x="211" y="377"/>
      <point x="248" y="410" type="curve"/>
      <point x="317" y="413"/>
      <point x="379" y="377"/>
      <point x="415" y="328" type="curve"/>
      <point x="507" y="451" type="line"/>
      <point x="453" y="479"/>
      <point x="367" y="501"/>
      <point x="295" y="501" type="curve"/>
      <point x="112" y="501"/>
      <point x="11" y="380"/>
      <point x="11" y="238" type="curve"/>
      <point x="11" y="107"/>
      <point x="96" y="-14"/>
    </contour>
    <contour>
      <point x="232" y="-167" type="curve"/>
      <point x="234" y="-202" type="line"/>
      <point x="352" y="-202" type="line"/>
      <point x="356" y="-119" type="line"/>
      <point x="318" y="-128"/>
      <point x="270" y="-145"/>
    </contour>
    <contour>
      <point x="438" y="-99" type="curve"/>
      <point x="413" y="-202" type="line"/>
      <point x="559" y="-202" type="line"/>
      <point x="561" y="-153" type="line"/>
      <point x="524" y="-127"/>
      <point x="480" y="-109"/>
    </contour>
    <contour>
      <point x="334" y="417" type="line"/>
      <point x="334" y="-202" type="line"/>
      <point x="507" y="-202" type="line"/>
      <point x="507" y="451" type="line"/>
      <point x="361" y="423" type="line"/>
    </contour>
  </outline>
</glyph>
<glyph name="r" format="1">
  <advance width="496"/>
  <unicode hex="0072"/>
  <outline>
    <contour>
      <point x="183" y="314" type="line"/>
      <point x="155" y="249" type="line"/>
      <point x="278" y="339" type="line"/>
      <point x="317" y="334"/>
      <point x="355" y="303"/>
      <point x="385" y="278" type="curve"/>
      <point x="500" y="423" type="line"/>
      <point x="477" y="484"/>
      <point x="403" y="512"/>
      <point x="342" y="494" type="curve"/>
    </contour>
    <contour>
      <point x="16" y="35" type="curve"/>
      <point x="18" y="0" type="line"/>
      <point x="130" y="0" type="line"/>
      <point x="140" y="83" type="line"/>
      <point x="102" y="74"/>
      <point x="54" y="57"/>
    </contour>
    <contour>
      <point x="241" y="97" type="curve"/>
      <point x="216" y="0" type="line"/>
      <point x="370" y="0" type="line"/>
      <point x="372" y="49" type="line"/>
      <point x="335" y="72"/>
      <point x="283" y="87"/>
    </contour>
    <contour>
      <point x="90" y="446" type="line"/>
      <point x="90" y="0" type="line"/>
      <point x="263" y="0" type="line"/>
      <point x="263" y="423" type="line"/>
      <point x="209" y="498" type="line"/>
    </contour>
    <contour>
      <point x="16" y="413" type="line"/>
      <point x="133" y="391" type="line"/>
      <point x="209" y="428" type="line"/>
      <point x="209" y="498" type="line"/>
      <point x="139" y="496"/>
      <point x="69" y="483"/>
      <point x="11" y="461" type="curve"/>
    </contour>
    <contour>
      <point x="193" y="0" type="move" name="bottom"/>
    </contour>
    <contour>
      <point x="263" y="468" type="move" name="top"/>
    </contour>
  </outline>
</glyph>
<glyph name="s" format="1">
  <advance width="459"/>
  <unicode hex="0073"/>
  <outline>
    <contour>
      <point x="17" y="34" type="line"/>
      <point x="89" y="-4"/>
      <point x="163" y="-20"/>
      <point x="226" y="-20" type="curve" smooth="yes"/>
      <point x="354" y="-20"/>
      <point x="431" y="47"/>
      <point x="431" y="135" type="curve" smooth="yes"/>
      <point x="431" y="290"/>
      <point x="189" y="298"/>
      <point x="189" y="381" type="curve" smooth="yes"/>
      <point x="189" y="396"/>
      <point x="196" y="413"/>
      <point x="229" y="423" type="curve"/>
      <point x="273" y="422"/>
      <point x="332" y="406"/>
      <point x="374" y="379" type="curve"/>
      <point x="409" y="467" type="line"/>
      <point x="365" y="490"/>
      <point x="305" y="500"/>
      <point x="254" y="500" type="curve" smooth="yes"/>
      <point x="125" y="500"/>
      <point x="33" y="437"/>
      <point x="33" y="343" type="curve" smooth="yes"/>
      <point x="33" y="192"/>
      <point x="272" y="185"/>
      <point x="272" y="102" type="curve" smooth="yes"/>
      <point x="272" y="89"/>
      <point x="265" y="74"/>
      <point x="254" y="65" type="curve"/>
      <point x="191" y="87"/>
      <point x="128" y="123"/>
      <point x="74" y="165" type="curve"/>
    </contour>
    <contour>
      <point x="394" y="327" type="line"/>
      <point x="409" y="372"/>
      <point x="414" y="420"/>
      <point x="409" y="467" type="curve"/>
      <point x="256" y="473" type="line"/>
      <point x="306" y="327" type="line"/>
    </contour>
  </outline>
</glyph>
<glyph name="u" format="1">
  <advance width="634"/>
  <unicode hex="0075"/>
  <outline>
    <contour>
      <point x="122" y="391" type="line"/>
      <point x="198" y="428" type="line"/>
      <point x="198" y="498" type="line"/>
      <point x="128" y="496"/>
      <point x="58" y="483"/>
      <point x="0" y="461" type="curve"/>
      <point x="5" y="413" type="line"/>
    </contour>
    <contour>
      <point x="473" y="173" type="line"/>
      <point x="423" y="138"/>
      <point x="370" y="105"/>
      <point x="322" y="103" type="curve" smooth="yes"/>
      <point x="274" y="100"/>
      <point x="252" y="128"/>
      <point x="252" y="186" type="curve" smooth="yes"/>
      <point x="252" y="450" type="line"/>
      <point x="198" y="498" type="line"/>
      <point x="79" y="449" type="line"/>
      <point x="79" y="185" type="line" smooth="yes"/>
      <point x="79" y="101"/>
      <point x="82" y="75"/>
      <point x="93" y="58" type="curve" smooth="yes"/>
      <point x="128" y="3"/>
      <point x="191" y="-17"/>
      <point x="230" y="-17" type="curve"/>
      <point x="307" y="6"/>
      <point x="402" y="65"/>
      <point x="478" y="146" type="curve"/>
    </contour>
    <contour>
      <point x="418" y="391" type="line"/>
      <point x="494" y="428" type="line"/>
      <point x="494" y="498" type="line"/>
      <point x="430" y="497"/>
      <point x="366" y="485"/>
      <point x="314" y="464" type="curve"/>
      <point x="319" y="416" type="line"/>
    </contour>
    <contour>
      <point x="602" y="100"/>
      <point x="588" y="98"/>
      <point x="573" y="98" type="curve" smooth="yes"/>
      <point x="557" y="98"/>
      <point x="548" y="108"/>
      <point x="548" y="122" type="curve"/>
      <point x="548" y="450" type="line"/>
      <point x="494" y="498" type="line"/>
      <point x="375" y="449" type="line"/>
      <point x="375" y="78" type="line"/>
      <point x="389" y="73" type="line"/>
      <point x="412" y="21"/>
      <point x="457" y="-15"/>
      <point x="497" y="-17" type="curve"/>
      <point x="630" y="57" type="line"/>
      <point x="624" y="101" type="line"/>
    </contour>
    <contour>
      <point x="569" y="11" type="move" name="ogonek"/>
    </contour>
    <contour>
      <point x="294" y="468" type="move" name="top"/>
    </contour>
  </outline>
</glyph>
<glyph name="y" format="1">
  <advance width="570"/>
  <unicode hex="0079"/>
  <outline>
    <contour>
      <point x="51" y="-74" type="curve"/>
      <point x="141" y="-230" type="line"/>
      <point x="296" y="-145"/>
      <point x="371" y="-49"/>
      <point x="424" y="83" type="curve"/>
      <point x="472" y="209"/>
      <point x="509" y="355"/>
      <point x="545" y="479" type="curve"/>
      <point x="365" y="479" type="line"/>
      <point x="349" y="375"/>
      <point x="322" y="256"/>
      <point x="297" y="156" type="curve"/>
      <point x="281" y="156" type="line"/>
      <point x="273" y="236" type="line"/>
      <point x="203" y="479" type="line"/>
      <point x="28" y="451" type="line"/>
      <point x="177" y="44" type="line"/>
      <point x="209" y="34"/>
      <point x="240" y="24"/>
      <point x="275" y="16" type="curve"/>
      <point x="205" y="-22"/>
      <point x="130" y="-50"/>
    </contour>
    <contour>
      <point x="-23" y="424" type="line"/>
      <point x="158" y="325" type="line"/>
      <point x="202" y="479" type="line"/>
      <point x="-22" y="479" type="line"/>
    </contour>
    <contour>
      <point x="411" y="479" type="line"/>
      <point x="498" y="393" type="line"/>
      <point x="523" y="403"/>
      <point x="551" y="415"/>
      <point x="573" y="430" type="curve"/>
      <point x="570" y="479" type="line"/>
    </contour>
    <contour>
      <point x="298" y="468" type="move" name="top"/>
    </contour>
  </outline>
</glyph>
<glyph name="braceleft" format="1">
  <advance width="529"/>
  <unicode hex="007B"/>
  <outline>
    <contour>
      <point x="443" y="-36" type="line"/>
      <point x="329" y="-24" type="line"/>
      <point x="341" y="149" type="line" smooth="yes"/>
      <point x="346" y="202"/>
      <point x="325" y="252"/>
      <point x="285" y="295" type="curve"/>
      <point x="285" y="304" type="line"/>
      <point x="325" y="346"/>
      <point x="346" y="397"/>
      <point x="341" y="449" type="curve" smooth="yes"/>
      <point x="329" y="620" type="line"/>
      <point x="446" y="620" type="line"/>
      <point x="440" y="729" type="line"/>
      <point x="239" y="715"/>
      <point x="157" y="622"/>
      <point x="157" y="543" type="curve" smooth="yes"/>
      <point x="157" y="443" type="line" smooth="yes"/>
      <point x="157" y="374"/>
      <point x="150" y="333"/>
      <point x="70" y="327" type="curve"/>
      <point x="64" y="268" type="line"/>
      <point x="152" y="262"/>
      <point x="157" y="223"/>
      <point x="157" y="142" type="curve" smooth="yes"/>
      <point x="157" y="28" type="line" smooth="yes"/>
      <point x="157" y="-42"/>
      <point x="253" y="-135"/>
      <point x="433" y="-145" type="curve"/>
    </contour>
  </outline>
</glyph>
<glyph name="bar" format="1">
  <advance width="323"/>
  <unicode hex="007C"/>
  <outline>
    <contour>
      <point x="96" y="735" type="line"/>
      <point x="96" y="-225" type="line"/>
      <point x="225" y="-225" type="line"/>
      <point x="224" y="735" type="line"/>
    </contour>
  </outline>
</glyph>
<glyph name="cent" format="1">
  <advance width="463"/>
  <unicode hex="00A2"/>
  <outline>
    <contour>
      <point x="216" y="599" type="line"/>
      <point x="216" y="465" type="line"/>
      <point x="314" y="465" type="line"/>
      <point x="314" y="599" type="line"/>
    </contour>
    <contour>
      <point x="216" y="17" type="line"/>
      <point x="216" y="-117" type="line"/>
      <point x="314" y="-117" type="line"/>
      <point x="314" y="17" type="line"/>
    </contour>
    <component base="c" yScale="0.938" yOffset="19"/>
  </outline>
</glyph>
<glyph name="currency" format="1">
  <advance width="510"/>
  <unicode hex="00A4"/>
  <outline>
    <contour>
      <point x="69" y="247"/>
      <point x="147" y="161"/>
      <point x="254" y="161" type="curve" smooth="yes"/>
      <point x="344" y="161"/>
      <point x="439" y="230"/>
      <point x="439" y="357" type="curve" smooth="yes"/>
      <point x="439" y="484"/>
      <point x="352" y="550"/>
      <point x="258" y="550" type="curve" smooth="yes"/>
      <point x="164" y="550"/>
      <point x="69" y="475"/>
      <point x="69" y="357" type="curve" smooth="yes"/>
    </contour>
    <contour>
      <point x="293" y="254"/>
      <point x="279" y="253"/>
      <point x="271" y="253" type="curve" smooth="yes"/>
      <point x="201" y="253"/>
      <point x="171" y="308"/>
      <point x="171" y="363" type="curve" smooth="yes"/>
      <point x="171" y="400"/>
      <point x="185" y="435"/>
      <point x="205" y="453" type="curve"/>
      <point x="218" y="455"/>
      <point x="227" y="456"/>
      <point x="238" y="456" type="curve" smooth="yes"/>
      <point x="312" y="456"/>
      <point x="337" y="401"/>
      <point x="337" y="348" type="curve" smooth="yes"/>
      <point x="337" y="309"/>
      <point x="323" y="272"/>
      <point x="305" y="257" type="curve"/>
    </contour>
    <contour>
      <point x="132" y="257" type="line"/>
      <point x="54" y="170" type="line"/>
      <point x="106" y="123" type="line"/>
      <point x="181" y="213" type="line"/>
    </contour>
    <contour>
      <point x="330" y="212" type="line"/>
      <point x="410" y="125" type="line"/>
      <point x="460" y="174" type="line"/>
      <point x="380" y="261" type="line"/>
    </contour>
    <contour>
      <point x="177" y="500" type="line"/>
      <point x="101" y="585" type="line"/>
      <point x="48" y="538" type="line"/>
      <point x="127" y="449" type="line"/>
    </contour>
    <contour>
      <point x="380" y="448" type="line"/>
      <point x="462" y="539" type="line"/>
      <point x="408" y="584" type="line"/>
      <point x="333" y="495" type="line"/>
    </contour>
  </outline>
</glyph>
<glyph name="yen" format="1">
  <advance width="657"/>
  <unicode hex="00A5"/>
  <outline>
    <contour>
      <point x="98" y="152" type="line"/>
      <point x="104" y="117" type="line"/>
      <point x="497" y="117" type="line"/>
      <point x="540" y="153" type="line"/>
      <point x="534" y="188" type="line"/>
      <point x="141" y="188" type="line"/>
    </contour>
    <contour>
      <point x="98" y="271" type="line"/>
      <point x="104" y="236" type="line"/>
      <point x="497" y="236" type="line"/>
      <point x="540" y="271" type="line"/>
      <point x="534" y="306" type="line"/>
      <point x="141" y="306" type="line"/>
    </contour>
    <component base="Y" xOffset="-20"/>
  </outline>
</glyph>
<glyph name="section" format="1">
  <advance width="523"/>
  <unicode hex="00A7"/>
  <outline>
    <contour>
      <point x="318" y="155" type="curve"/>
      <point x="370" y="113" type="line"/>
      <point x="445" y="146"/>
      <point x="487" y="194"/>
      <point x="487" y="258" type="curve"/>
      <point x="487" y="352"/>
      <point x="397" y="397"/>
      <point x="319" y="433" type="curve"/>
      <point x="249" y="466"/>
      <point x="204" y="484"/>
      <point x="204" y="527" type="curve"/>
      <point x="204" y="553"/>
      <point x="222" y="578"/>
      <point x="249" y="590" type="curve"/>
      <point x="313" y="594"/>
      <point x="378" y="571"/>
      <point x="417" y="537" type="curve"/>
      <point x="458" y="637" type="line"/>
      <point x="410" y="658"/>
      <point x="344" y="671"/>
      <point x="289" y="671" type="curve"/>
      <point x="159" y="671"/>
      <point x="60" y="603"/>
      <point x="60" y="503" type="curve"/>
      <point x="60" y="427"/>
      <point x="117" y="378"/>
      <point x="215" y="333" type="curve"/>
      <point x="280" y="303"/>
      <point x="360" y="278"/>
      <point x="360" y="217" type="curve"/>
      <point x="360" y="195"/>
      <point x="348" y="177"/>
    </contour>
    <contour>
      <point x="264" y="-149" type="curve"/>
      <point x="378" y="-149"/>
      <point x="465" y="-83"/>
      <point x="465" y="11" type="curve"/>
      <point x="465" y="88"/>
      <point x="407" y="138"/>
      <point x="323" y="175" type="curve"/>
      <point x="254" y="205"/>
      <point x="177" y="225"/>
      <point x="177" y="280" type="curve"/>
      <point x="177" y="310"/>
      <point x="199" y="334"/>
      <point x="231" y="355" type="curve"/>
      <point x="204" y="410" type="line"/>
      <point x="110" y="382"/>
      <point x="51" y="326"/>
      <point x="51" y="251" type="curve"/>
      <point x="51" y="165"/>
      <point x="130" y="121"/>
      <point x="222" y="78" type="curve"/>
      <point x="283" y="51"/>
      <point x="337" y="35"/>
      <point x="337" y="-8" type="curve"/>
      <point x="337" y="-26"/>
      <point x="326" y="-45"/>
      <point x="307" y="-57" type="curve"/>
      <point x="247" y="-42"/>
      <point x="180" y="-13"/>
      <point x="122" y="35" type="curve"/>
      <point x="54" y="-89" type="line"/>
      <point x="122" y="-132"/>
      <point x="205" y="-149"/>
    </contour>
    <contour>
      <point x="306" y="627" type="line"/>
      <point x="358" y="481" type="line"/>
      <point x="446" y="481" type="line"/>
      <point x="459" y="534"/>
      <point x="463" y="594"/>
      <point x="459" y="637" type="curve"/>
    </contour>
  </outline>
</glyph>
<glyph name="guillemetleft" format="1">
  <advance width="619"/>
  <unicode hex="00AB"/>
  <outline>
    <contour>
      <point x="310" y="214" type="line"/>
      <point x="477" y="33" type="line"/>
      <point x="565" y="95" type="line"/>
      <point x="471" y="253" type="line"/>
      <point x="559" y="420" type="line"/>
      <point x="476" y="476" type="line"/>
      <point x="310" y="293" type="line"/>
    </contour>
    <contour>
      <point x="54" y="214" type="line"/>
      <point x="221" y="33" type="line"/>
      <point x="309" y="95" type="line"/>
      <point x="215" y="253" type="line"/>
      <point x="303" y="420" type="line"/>
      <point x="220" y="476" type="line"/>
      <point x="54" y="293" type="line"/>
    </contour>
  </outline>
</glyph>
<glyph name="logicalnot" format="1">
  <advance width="592"/>
  <unicode hex="00AC"/>
  <outline>
    <contour>
      <point x="54" y="278" type="line"/>
      <point x="54" y="179" type="line"/>
      <point x="538" y="179" type="line"/>
      <point x="538" y="278" type="line"/>
    </contour>
    <contour>
      <point x="431" y="278" type="line"/>
      <point x="431" y="0" type="line"/>
      <point x="538" y="0" type="line"/>
      <point x="538" y="278" type="line"/>
    </contour>
  </outline>
</glyph>
<glyph name="softhyphen" format="1">
  <advance width="463"/>
  <unicode hex="00AD"/>
  <outline>
    <contour>
      <point x="393" y="222" type="line"/>
      <point x="414" y="264" type="line"/>
      <point x="358" y="354" type="line"/>
      <point x="54" y="354" type="line"/>
      <point x="33" y="312" type="line"/>
      <point x="89" y="222" type="line"/>
    </contour>
  </outline>
</glyph>
<glyph name="registered" format="1">
  <advance width="574"/>
  <unicode hex="00AE"/>
  <outline>
    <contour>
      <point x="561" y="662"/>
      <point x="445" y="776"/>
      <point x="289" y="776" type="curve" smooth="yes"/>
      <point x="131" y="776"/>
      <point x="12" y="662"/>
      <point x="12" y="503" type="curve" smooth="yes"/>
      <point x="12" y="349"/>
      <point x="124" y="232"/>
      <point x="286" y="232" type="curve" smooth="yes"/>
      <point x="449" y="232"/>
      <point x="561" y="351"/>
      <point x="561" y="505" type="curve" smooth="yes"/>
    </contour>
    <contour>
      <point x="501" y="376"/>
      <point x="410" y="289"/>
      <point x="282" y="289" type="curve" smooth="yes"/>
      <point x="158" y="289"/>
      <point x="72" y="371"/>
      <point x="72" y="499" type="curve" smooth="yes"/>
      <point x="72" y="630"/>
      <point x="163" y="720"/>
      <point x="286" y="720" type="curve" smooth="yes"/>
      <point x="411" y="720"/>
      <point x="501" y="631"/>
      <point x="501" y="503" type="curve" smooth="yes"/>
    </contour>
    <contour>
      <point x="145" y="643" type="line"/>
      <point x="145" y="616" type="line"/>
      <point x="201" y="609" type="line"/>
      <point x="201" y="643" type="line"/>
    </contour>
    <contour>
      <point x="179" y="378" type="line"/>
      <point x="255" y="378" type="line"/>
      <point x="255" y="643" type="line"/>
      <point x="179" y="643" type="line"/>
    </contour>
    <contour>
      <point x="320" y="595"/>
      <point x="330" y="577"/>
      <point x="330" y="557" type="curve" smooth="yes"/>
      <point x="330" y="532"/>
      <point x="315" y="514"/>
      <point x="275" y="514" type="curve" smooth="yes"/>
      <point x="263" y="514"/>
      <point x="251" y="516"/>
      <point x="240" y="518" type="curve"/>
      <point x="239" y="477" type="line"/>
      <point x="303" y="477" type="line" smooth="yes"/>
      <point x="376" y="477"/>
      <point x="412" y="517"/>
      <point x="412" y="560" type="curve" smooth="yes"/>
      <point x="412" y="606"/>
      <point x="369" y="643"/>
      <point x="294" y="643" type="curve"/>
      <point x="214" y="643" type="line"/>
      <point x="247" y="599" type="line"/>
      <point x="301" y="606" type="line"/>
    </contour>
    <contour>
      <point x="181" y="413"/>
      <point x="154" y="403"/>
      <point x="141" y="394" type="curve"/>
      <point x="144" y="378" type="line"/>
      <point x="186" y="378" type="line"/>
      <point x="190" y="418" type="line"/>
    </contour>
    <contour>
      <point x="230" y="378" type="line"/>
      <point x="290" y="378" type="line"/>
      <point x="291" y="403" type="line"/>
      <point x="231" y="411" type="line"/>
    </contour>
    <contour>
      <point x="270" y="497" type="line"/>
      <point x="336" y="378" type="line"/>
      <point x="424" y="378" type="line"/>
      <point x="346" y="502" type="line"/>
    </contour>
    <contour>
      <point x="374" y="378" type="line"/>
      <point x="435" y="378" type="line"/>
      <point x="435" y="403" type="line"/>
      <point x="375" y="411" type="line"/>
    </contour>
  </outline>
</glyph>
<glyph name="degree" format="1">
  <advance width="369"/>
  <unicode hex="00B0"/>
  <outline>
    <contour>
      <point x="172" y="379" type="curve"/>
      <point x="252" y="379"/>
      <point x="309" y="433"/>
      <point x="309" y="517" type="curve"/>
      <point x="309" y="596"/>
      <point x="248" y="657"/>
      <point x="168" y="657" type="curve"/>
      <point x="90" y="657"/>
      <point x="30" y="596"/>
      <point x="30" y="517" type="curve"/>
      <point x="30" y="434"/>
      <point x="96" y="379"/>
    </contour>
    <contour>
      <point x="175" y="455" type="curve"/>
      <point x="135" y="455"/>
      <point x="116" y="489"/>
      <point x="116" y="522" type="curve"/>
      <point x="116" y="540"/>
      <point x="122" y="558"/>
      <point x="132" y="571" type="curve"/>
      <point x="142" y="576"/>
      <point x="152" y="578"/>
      <point x="162" y="578" type="curve"/>
      <point x="199" y="578"/>
      <point x="219" y="543"/>
      <point x="219" y="509" type="curve"/>
      <point x="219" y="490"/>
      <point x="213" y="472"/>
      <point x="201" y="459" type="curve"/>
      <point x="192" y="456"/>
      <point x="183" y="455"/>
    </contour>
  </outline>
</glyph>
<glyph name="plusminus" format="1">
  <advance width="554"/>
  <unicode hex="00B1"/>
  <outline>
    <contour>
      <point x="330" y="434" type="line"/>
      <point x="330" y="610" type="line"/>
      <point x="223" y="610" type="line"/>
      <point x="223" y="434" type="line"/>
      <point x="54" y="434" type="line"/>
      <point x="54" y="337" type="line"/>
      <point x="223" y="337" type="line"/>
      <point x="223" y="160" type="line"/>
      <point x="330" y="160" type="line"/>
      <point x="330" y="337" type="line"/>
      <point x="500" y="337" type="line"/>
      <point x="500" y="434" type="line"/>
    </contour>
    <contour>
      <point x="56" y="97" type="line"/>
      <point x="56" y="0" type="line"/>
      <point x="495" y="0" type="line"/>
      <point x="495" y="97" type="line"/>
    </contour>
  </outline>
</glyph>
<glyph name="twosuperior" format="1">
  <advance width="322"/>
  <unicode hex="00B2"/>
  <outline>
    <contour>
      <point x="100" y="603" type="line"/>
      <point x="134" y="708" type="line"/>
      <point x="31" y="710" type="line"/>
      <point x="28" y="685"/>
      <point x="35" y="627"/>
      <point x="41" y="603" type="curve"/>
    </contour>
    <contour>
      <point x="46" y="418" type="line"/>
      <point x="279" y="418" type="line"/>
      <point x="295" y="516" type="line"/>
      <point x="158" y="485" type="line"/>
      <point x="154" y="492" type="line"/>
      <point x="238" y="545"/>
      <point x="283" y="597"/>
      <point x="283" y="648" type="curve" smooth="yes"/>
      <point x="283" y="703"/>
      <point x="234" y="751"/>
      <point x="157" y="751" type="curve" smooth="yes"/>
      <point x="115" y="751"/>
      <point x="69" y="737"/>
      <point x="31" y="710" type="curve"/>
      <point x="83" y="690" type="line"/>
      <point x="98" y="698"/>
      <point x="116" y="702"/>
      <point x="128" y="702" type="curve" smooth="yes"/>
      <point x="157" y="702"/>
      <point x="179" y="678"/>
      <point x="179" y="647" type="curve" smooth="yes"/>
      <point x="179" y="620"/>
      <point x="160" y="588"/>
      <point x="101" y="533" type="curve" smooth="yes"/>
      <point x="27" y="467" type="line"/>
    </contour>
  </outline>
</glyph>
<glyph name="threesuperior" format="1">
  <advance width="331"/>
  <unicode hex="00B3"/>
  <outline>
    <contour>
      <point x="149" y="724" type="line"/>
      <point x="42" y="718" type="line"/>
      <point x="40" y="695"/>
      <point x="43" y="647"/>
      <point x="49" y="623" type="curve"/>
      <point x="99" y="623" type="line"/>
    </contour>
    <contour>
      <point x="108" y="594" type="line"/>
      <point x="112" y="545" type="line"/>
      <point x="236" y="583" type="line"/>
      <point x="236" y="587" type="line"/>
      <point x="271" y="601"/>
      <point x="286" y="631"/>
      <point x="286" y="658" type="curve" smooth="yes"/>
      <point x="286" y="707"/>
      <point x="237" y="751"/>
      <point x="164" y="751" type="curve" smooth="yes"/>
      <point x="121" y="751"/>
      <point x="69" y="736"/>
      <point x="42" y="718" type="curve"/>
      <point x="61" y="683" type="line"/>
      <point x="81" y="696"/>
      <point x="110" y="700"/>
      <point x="127" y="700" type="curve" smooth="yes"/>
      <point x="164" y="700"/>
      <point x="187" y="677"/>
      <point x="187" y="648" type="curve" smooth="yes"/>
      <point x="187" y="624"/>
      <point x="169" y="594"/>
      <point x="119" y="594" type="curve" smooth="yes"/>
    </contour>
    <contour>
      <point x="30" y="435" type="line"/>
      <point x="70" y="416"/>
      <point x="120" y="408"/>
      <point x="159" y="408" type="curve" smooth="yes"/>
      <point x="232" y="408"/>
      <point x="302" y="438"/>
      <point x="302" y="504" type="curve" smooth="yes"/>
      <point x="302" y="558"/>
      <point x="254" y="594"/>
      <point x="201" y="586" type="curve"/>
      <point x="205" y="596" type="line"/>
      <point x="109" y="594" type="line"/>
      <point x="102" y="594" type="line"/>
      <point x="104" y="544" type="line"/>
      <point x="137" y="544" type="line" smooth="yes"/>
      <point x="176" y="544"/>
      <point x="196" y="521"/>
      <point x="196" y="497" type="curve" smooth="yes"/>
      <point x="196" y="483"/>
      <point x="189" y="468"/>
      <point x="172" y="460" type="curve"/>
      <point x="138" y="472"/>
      <point x="92" y="501"/>
      <point x="54" y="531" type="curve"/>
    </contour>
  </outline>
</glyph>
<glyph name="micro" format="1">
  <advance width="603"/>
  <unicode hex="00B5"/>
  <outline>
    <contour>
      <point x="571" y="100"/>
      <point x="557" y="98"/>
      <point x="542" y="98" type="curve" smooth="yes"/>
      <point x="526" y="98"/>
      <point x="517" y="108"/>
      <point x="517" y="122" type="curve"/>
      <point x="517" y="493" type="line"/>
      <point x="455" y="494"/>
      <point x="377" y="481"/>
      <point x="344" y="473" type="curve"/>
      <point x="344" y="78" type="line"/>
      <point x="358" y="73" type="line"/>
      <point x="381" y="21"/>
      <point x="426" y="-16"/>
      <point x="466" y="-17" type="curve"/>
      <point x="599" y="57" type="line"/>
      <point x="593" y="101" type="line"/>
    </contour>
    <contour>
      <point x="49" y="-227" type="line"/>
      <point x="115" y="-244"/>
      <point x="204" y="-215"/>
      <point x="226" y="-189" type="curve"/>
      <point x="139" y="29" type="line"/>
      <point x="161" y="3"/>
      <point x="183" y="-13"/>
      <point x="205" y="-14" type="curve"/>
      <point x="272" y="9"/>
      <point x="367" y="62"/>
      <point x="451" y="146" type="curve"/>
      <point x="446" y="173" type="line"/>
      <point x="397" y="138"/>
      <point x="342" y="105"/>
      <point x="294" y="103" type="curve" smooth="yes"/>
      <point x="247" y="101"/>
      <point x="221" y="127"/>
      <point x="221" y="186" type="curve" smooth="yes"/>
      <point x="221" y="493" type="line"/>
      <point x="159" y="494"/>
      <point x="81" y="481"/>
      <point x="48" y="473" type="curve"/>
    </contour>
    <contour>
      <point x="112" y="19" type="line"/>
      <point x="176" y="19" type="line"/>
      <point x="176" y="54" type="line"/>
      <point x="112" y="54" type="line"/>
    </contour>
  </outline>
</glyph>
<glyph name="paragraph" format="1">
  <advance width="693"/>
  <unicode hex="00B6"/>
  <outline>
    <contour>
      <point x="326" y="690" type="line"/>
      <point x="97" y="704"/>
      <point x="0" y="586"/>
      <point x="0" y="473" type="curve" smooth="yes"/>
      <point x="0" y="379"/>
      <point x="68" y="286"/>
      <point x="181" y="253" type="curve"/>
      <point x="219" y="290" type="line"/>
      <point x="194" y="332"/>
      <point x="180" y="371"/>
      <point x="180" y="417" type="curve" smooth="yes"/>
      <point x="180" y="533"/>
      <point x="269" y="599"/>
      <point x="383" y="592" type="curve" smooth="yes"/>
      <point x="660" y="577" type="line"/>
      <point x="667" y="646" type="line"/>
    </contour>
    <contour>
      <point x="308" y="-165" type="line"/>
      <point x="308" y="-84" type="line"/>
      <point x="308" y="-84"/>
      <point x="226" y="-101"/>
      <point x="178" y="-123" type="curve"/>
      <point x="184" y="-165" type="line"/>
    </contour>
    <contour>
      <point x="662" y="-165" type="line"/>
      <point x="663" y="-114" type="line"/>
      <point x="525" y="-98" type="line"/>
      <point x="522" y="-165" type="line"/>
    </contour>
    <contour>
      <point x="288" y="-166" type="line"/>
      <point x="397" y="-166" type="line"/>
      <point x="397" y="609" type="line"/>
      <point x="288" y="609" type="line"/>
    </contour>
    <contour>
      <point x="471" y="-166" type="line"/>
      <point x="580" y="-166" type="line"/>
      <point x="580" y="609" type="line"/>
      <point x="471" y="609" type="line"/>
    </contour>
  </outline>
</glyph>
<glyph name="periodcentered" format="1">
  <advance width="282"/>
  <unicode hex="00B7"/>
  <outline>
    <contour>
      <point x="174" y="205"/>
      <point x="209" y="251"/>
      <point x="224" y="290" type="curve"/>
      <point x="203" y="318"/>
      <point x="158" y="359"/>
      <point x="119" y="375" type="curve"/>
      <point x="85" y="356"/>
      <point x="51" y="310"/>
      <point x="30" y="267" type="curve"/>
      <point x="53" y="235"/>
      <point x="105" y="196"/>
      <point x="140" y="182" type="curve"/>
    </contour>
  </outline>
</glyph>
<glyph name="onesuperior" format="1">
  <advance width="272"/>
  <unicode hex="00B9"/>
  <outline>
    <contour>
      <point x="90" y="706" type="line"/>
      <point x="90" y="418" type="line"/>
      <point x="197" y="418" type="line"/>
      <point x="197" y="716" type="line"/>
    </contour>
    <contour>
      <point x="25" y="433" type="curve"/>
      <point x="28" y="418" type="line"/>
      <point x="99" y="418" type="line"/>
      <point x="99" y="467" type="line"/>
      <point x="75" y="462"/>
      <point x="41" y="446"/>
    </contour>
    <contour>
      <point x="186" y="465" type="line"/>
      <point x="184" y="418" type="line"/>
      <point x="253" y="418" type="line"/>
      <point x="253" y="446" type="line"/>
    </contour>
    <contour>
      <point x="12" y="667" type="line"/>
      <point x="31" y="629" type="line"/>
      <point x="154" y="676" type="line"/>
      <point x="162" y="723" type="line"/>
      <point x="152" y="745" type="line"/>
    </contour>
    <contour>
      <point x="150" y="745" type="line"/>
      <point x="145" y="706" type="line"/>
      <point x="196" y="716" type="line"/>
    </contour>
  </outline>
</glyph>
<glyph name="ordmasculine" format="1">
  <advance width="435"/>
  <unicode hex="00BA"/>
  <outline>
    <contour>
      <point x="30" y="351"/>
      <point x="111" y="285"/>
      <point x="204" y="285" type="curve" smooth="yes"/>
      <point x="293" y="285"/>
      <point x="375" y="345"/>
      <point x="375" y="455" type="curve" smooth="yes"/>
      <point x="375" y="565"/>
      <point x="294" y="631"/>
      <point x="206" y="631" type="curve" smooth="yes"/>
      <point x="122" y="631"/>
      <point x="30" y="570"/>
      <point x="30" y="457" type="curve" smooth="yes"/>
    </contour>
    <contour>
      <point x="225" y="356"/>
      <point x="220" y="355"/>
      <point x="213" y="355" type="curve" smooth="yes"/>
      <point x="174" y="355"/>
      <point x="154" y="389"/>
      <point x="154" y="457" type="curve" smooth="yes"/>
      <point x="154" y="503"/>
      <point x="164" y="541"/>
      <point x="177" y="549" type="curve"/>
      <point x="183" y="551"/>
      <point x="188" y="553"/>
      <point x="196" y="553" type="curve" smooth="yes"/>
      <point x="236" y="553"/>
      <point x="252" y="506"/>
      <point x="252" y="441" type="curve" smooth="yes"/>
      <point x="252" y="389"/>
      <point x="239" y="361"/>
      <point x="231" y="356" type="curve"/>
    </contour>
    <contour>
      <point x="17" y="255" type="line"/>
      <point x="17" y="192" type="line"/>
      <point x="391" y="192" type="line"/>
      <point x="391" y="255" type="line"/>
    </contour>
  </outline>
</glyph>
<glyph name="guillemetright" format="1">
  <advance width="619"/>
  <unicode hex="00BB"/>
  <outline>
    <contour>
      <point x="565" y="293" type="line"/>
      <point x="400" y="476" type="line"/>
      <point x="317" y="420" type="line"/>
      <point x="405" y="253" type="line"/>
      <point x="310" y="95" type="line"/>
      <point x="398" y="33" type="line"/>
      <point x="565" y="214" type="line"/>
    </contour>
    <contour>
      <point x="309" y="293" type="line"/>
      <point x="144" y="476" type="line"/>
      <point x="61" y="420" type="line"/>
      <point x="149" y="253" type="line"/>
      <point x="54" y="95" type="line"/>
      <point x="142" y="33" type="line"/>
      <point x="309" y="214" type="line"/>
    </contour>
  </outline>
</glyph>
<glyph name="AE" format="1">
  <advance width="956"/>
  <unicode hex="00C6"/>
  <outline>
    <contour>
      <point x="372" y="653" type="line"/>
      <point x="32" y="0" type="line"/>
      <point x="150" y="0" type="line"/>
      <point x="467" y="628" type="line"/>
    </contour>
    <contour>
      <point x="-20" y="34" type="curve"/>
      <point x="-14" y="0" type="line"/>
      <point x="80" y="0" type="line"/>
      <point x="79" y="87" type="line"/>
      <point x="56" y="75"/>
      <point x="7" y="54"/>
    </contour>
    <contour>
      <point x="129" y="75" type="line"/>
      <point x="126" y="0" type="line"/>
      <point x="266" y="0" type="line"/>
      <point x="267" y="53" type="line"/>
    </contour>
    <contour>
      <point x="336" y="34" type="curve"/>
      <point x="342" y="0" type="line"/>
      <point x="436" y="0" type="line"/>
      <point x="435" y="87" type="line"/>
      <point x="412" y="75"/>
      <point x="363" y="54"/>
    </contour>
    <contour>
      <point x="200" y="256" type="line"/>
      <point x="200" y="172" type="line"/>
      <point x="523" y="172" type="line"/>
      <point x="523" y="256" type="line"/>
    </contour>
    <contour>
      <point x="570" y="96" type="line"/>
      <point x="495" y="0" type="line"/>
      <point x="882" y="0" type="line"/>
      <point x="886" y="115" type="line"/>
    </contour>
    <contour>
      <point x="421" y="662" type="line"/>
      <point x="421" y="0" type="line"/>
      <point x="596" y="0" type="line"/>
      <point x="596" y="662" type="line"/>
    </contour>
    <contour>
      <point x="741" y="16" type="line"/>
      <point x="894" y="0" type="line"/>
      <point x="902" y="59"/>
      <point x="908" y="151"/>
      <point x="906" y="208" type="curve"/>
      <point x="807" y="216" type="line"/>
    </contour>
    <contour>
      <point x="271" y="609" type="line"/>
      <point x="393" y="591" type="line"/>
      <point x="454" y="662" type="line"/>
      <point x="272" y="662" type="line"/>
    </contour>
    <contour>
      <point x="571" y="290" type="line"/>
      <point x="811" y="280" type="line"/>
      <point x="811" y="388" type="line"/>
      <point x="571" y="368" type="line"/>
    </contour>
    <contour>
      <point x="564" y="573" type="line"/>
      <point x="886" y="554" type="line"/>
      <point x="900" y="662" type="line"/>
      <point x="489" y="662" type="line"/>
    </contour>
    <contour>
      <point x="749" y="644" type="line"/>
      <point x="782" y="460" type="line"/>
      <point x="882" y="460" type="line"/>
      <point x="896" y="527"/>
      <point x="903" y="619"/>
      <point x="900" y="662" type="curve"/>
    </contour>
    <contour>
      <point x="521" y="650" type="move" name="top"/>
    </contour>
  </outline>
</glyph>
<glyph name="Oslash" format="1">
  <advance width="687"/>
  <unicode hex="00D8"/>
  <outline>
    <contour>
      <point x="101" y="-49" type="line"/>
      <point x="176" y="-90" type="line"/>
      <point x="612" y="703" type="line"/>
      <point x="537" y="746" type="line"/>
    </contour>
    <component base="O"/>
  </outline>
</glyph>
<glyph name="Thorn" format="1">
  <advance width="633"/>
  <unicode hex="00DE"/>
  <outline>
    <contour>
      <point x="255" y="246" type="curve"/>
      <point x="252" y="143" type="line"/>
      <point x="378" y="144" type="line" smooth="yes"/>
      <point x="540" y="145"/>
      <point x="621" y="236"/>
      <point x="621" y="331" type="curve"/>
      <point x="621" y="426"/>
      <point x="539" y="524"/>
      <point x="374" y="524" type="curve"/>
      <point x="182" y="524" type="line"/>
      <point x="273" y="416" type="line"/>
      <point x="386" y="432" type="line"/>
      <point x="425" y="405"/>
      <point x="443" y="366"/>
      <point x="443" y="328" type="curve"/>
      <point x="443" y="274"/>
      <point x="407" y="228"/>
      <point x="333" y="228" type="curve"/>
      <point x="304" y="228"/>
      <point x="280" y="235"/>
    </contour>
    <contour>
      <point x="24" y="34" type="curve"/>
      <point x="30" y="0" type="line"/>
      <point x="124" y="0" type="line"/>
      <point x="123" y="87" type="line"/>
      <point x="100" y="75"/>
      <point x="51" y="54"/>
    </contour>
    <contour>
      <point x="245" y="75" type="line"/>
      <point x="242" y="0" type="line"/>
      <point x="382" y="0" type="line"/>
      <point x="383" y="53" type="line"/>
    </contour>
    <contour>
      <point x="111" y="650" type="line"/>
      <point x="111" y="0" type="line"/>
      <point x="292" y="0" type="line"/>
      <point x="292" y="650" type="line"/>
    </contour>
    <contour>
      <point x="32" y="597" type="line"/>
      <point x="170" y="575" type="line"/>
      <point x="173" y="650" type="line"/>
      <point x="33" y="650" type="line"/>
    </contour>
    <contour>
      <point x="273" y="650" type="line"/>
      <point x="274" y="564" type="line"/>
      <point x="297" y="576"/>
      <point x="346" y="597"/>
      <point x="373" y="617" type="curve"/>
      <point x="367" y="650" type="line"/>
    </contour>
  </outline>
</glyph>
<glyph name="germandbls" format="1">
  <advance width="658"/>
  <unicode hex="00DF"/>
  <outline>
    <contour>
      <point x="450" y="-18" type="curve"/>
      <point x="558" y="-18"/>
      <point x="642" y="39"/>
      <point x="642" y="137" type="curve"/>
      <point x="642" y="272"/>
      <point x="481" y="306"/>
      <point x="464" y="374" type="curve"/>
      <point x="523" y="418"/>
      <point x="548" y="462"/>
      <point x="548" y="510" type="curve"/>
      <point x="548" y="601"/>
      <point x="457" y="687"/>
      <point x="328" y="687" type="curve"/>
      <point x="249" y="687"/>
      <point x="93" y="640"/>
      <point x="93" y="478" type="curve"/>
      <point x="93" y="0" type="line"/>
      <point x="265" y="0" type="line"/>
      <point x="265" y="436" type="line"/>
      <point x="259" y="567" type="line"/>
      <point x="289" y="585"/>
      <point x="334" y="588"/>
      <point x="360" y="582" type="curve"/>
      <point x="421" y="510"/>
      <point x="365" y="411"/>
      <point x="316" y="339" type="curve"/>
      <point x="328" y="222"/>
      <point x="478" y="210"/>
      <point x="478" y="130" type="curve"/>
      <point x="478" y="116"/>
      <point x="472" y="102"/>
      <point x="460" y="88" type="curve"/>
      <point x="419" y="97"/>
      <point x="376" y="125"/>
      <point x="346" y="152" type="curve"/>
      <point x="305" y="8" type="line"/>
      <point x="351" y="-8"/>
      <point x="405" y="-18"/>
    </contour>
    <contour>
      <point x="21" y="35" type="curve"/>
      <point x="23" y="0" type="line"/>
      <point x="135" y="0" type="line"/>
      <point x="145" y="83" type="line"/>
      <point x="107" y="74"/>
      <point x="59" y="57"/>
    </contour>
    <contour>
      <point x="11" y="409" type="curve"/>
      <point x="13" y="354" type="line"/>
      <point x="201" y="356" type="line"/>
      <point x="214" y="425" type="line"/>
      <point x="147" y="485" type="line"/>
      <point x="97" y="468"/>
      <point x="51" y="444"/>
    </contour>
  </outline>
</glyph>
<glyph name="ae" format="1">
  <advance width="793"/>
  <unicode hex="00E6"/>
  <outline>
    <contour>
      <point x="55" y="392"/>
      <point x="59" y="341"/>
      <point x="72" y="295" type="curve"/>
      <point x="176" y="292" type="line"/>
      <point x="200" y="402" type="line"/>
      <point x="214" y="408"/>
      <point x="237" y="412"/>
      <point x="256" y="413" type="curve"/>
      <point x="281" y="401"/>
      <point x="301" y="377"/>
      <point x="302" y="314" type="curve" smooth="yes"/>
      <point x="303" y="199" type="line"/>
      <point x="409" y="157" type="line"/>
      <point x="445" y="415" type="line"/>
      <point x="419" y="455"/>
      <point x="379" y="496"/>
      <point x="334" y="498" type="curve" smooth="yes"/>
      <point x="257" y="498"/>
      <point x="146" y="474"/>
      <point x="61" y="441" type="curve"/>
    </contour>
    <contour>
      <point x="54" y="203"/>
      <point x="30" y="155"/>
      <point x="30" y="114" type="curve" smooth="yes"/>
      <point x="30" y="46"/>
      <point x="96" y="-31"/>
      <point x="216" y="-13" type="curve"/>
      <point x="369" y="72" type="line"/>
      <point x="356" y="120" type="line"/>
      <point x="330" y="111"/>
      <point x="256" y="85"/>
      <point x="218" y="82" type="curve"/>
      <point x="206" y="93"/>
      <point x="201" y="111"/>
      <point x="201" y="125" type="curve" smooth="yes"/>
      <point x="201" y="167"/>
      <point x="255" y="176"/>
      <point x="304" y="175" type="curve"/>
      <point x="332" y="174" type="line"/>
      <point x="333" y="237" type="line"/>
      <point x="111" y="232" type="line"/>
    </contour>
    <contour>
      <point x="414" y="231" type="line"/>
      <point x="713" y="229" type="line"/>
      <point x="771" y="287" type="line"/>
      <point x="688" y="321" type="line"/>
      <point x="402" y="303" type="line"/>
    </contour>
    <contour>
      <point x="740" y="134" type="line"/>
      <point x="693" y="109"/>
      <point x="656" y="96"/>
      <point x="611" y="96" type="curve" smooth="yes"/>
      <point x="528" y="96"/>
      <point x="464" y="144"/>
      <point x="464" y="256" type="curve" smooth="yes"/>
      <point x="464" y="319"/>
      <point x="484" y="387"/>
      <point x="532" y="417" type="curve"/>
      <point x="592" y="414"/>
      <point x="631" y="340"/>
      <point x="621" y="273" type="curve"/>
      <point x="777" y="287" type="line"/>
      <point x="779" y="440"/>
      <point x="659" y="500"/>
      <point x="559" y="500" type="curve" smooth="yes"/>
      <point x="502" y="500"/>
      <point x="447" y="479"/>
      <point x="403" y="444" type="curve"/>
      <point x="365" y="237" type="line"/>
      <point x="304" y="234" type="line"/>
      <point x="304" y="67"/>
      <point x="444" y="-35"/>
      <point x="608" y="-12" type="curve"/>
      <point x="765" y="77" type="line"/>
    </contour>
    <contour>
      <point x="282" y="20" type="move" name="ogonek"/>
    </contour>
    <contour>
      <point x="210" y="0" type="move" name="bottom"/>
    </contour>
    <contour>
      <point x="210" y="188" type="move" name="top"/>
    </contour>
  </outline>
</glyph>
<glyph name="eth" format="1">
  <advance width="535"/>
  <unicode hex="00F0"/>
  <outline>
    <contour>
      <point x="275" y="-27" type="curve"/>
      <point x="413" y="-27"/>
      <point x="524" y="78"/>
      <point x="524" y="257" type="curve"/>
      <point x="524" y="413"/>
      <point x="437" y="624"/>
      <point x="308" y="775" type="curve"/>
      <point x="187" y="714" type="line"/>
      <point x="265" y="603"/>
      <point x="301" y="515"/>
      <point x="331" y="430" type="curve"/>
      <point x="371" y="421" type="line"/>
      <point x="333" y="457"/>
      <point x="287" y="477"/>
      <point x="233" y="477" type="curve"/>
      <point x="118" y="477"/>
      <point x="11" y="389"/>
      <point x="11" y="238" type="curve"/>
      <point x="11" y="70"/>
      <point x="142" y="-27"/>
    </contour>
    <contour>
      <point x="309" y="68" type="curve"/>
      <point x="226" y="65"/>
      <point x="188" y="146"/>
      <point x="188" y="227" type="curve"/>
      <point x="188" y="291"/>
      <point x="211" y="358"/>
      <point x="246" y="387" type="curve"/>
      <point x="304" y="379"/>
      <point x="337" y="353"/>
      <point x="391" y="301" type="curve"/>
      <point x="331" y="401" type="line"/>
      <point x="378" y="294"/>
      <point x="366" y="130"/>
    </contour>
    <contour>
      <point x="149" y="564" type="line"/>
      <point x="216" y="521" type="line"/>
      <point x="499" y="641" type="line"/>
      <point x="448" y="740" type="line"/>
      <point x="141" y="604" type="line"/>
    </contour>
  </outline>
</glyph>
<glyph name="divide" format="1">
  <advance width="596"/>
  <unicode hex="00F7"/>
  <outline>
    <contour>
      <point x="54" y="306" type="line"/>
      <point x="54" y="207" type="line"/>
      <point x="542" y="207" type="line"/>
      <point x="542" y="306" type="line"/>
    </contour>
    <contour>
      <point x="376" y="99"/>
      <point x="349" y="139"/>
      <point x="294" y="163" type="curve"/>
      <point x="264" y="146"/>
      <point x="221" y="114"/>
      <point x="213" y="57" type="curve"/>
      <point x="227" y="31"/>
      <point x="255" y="-6"/>
      <point x="309" y="-20" type="curve"/>
      <point x="355" y="2"/>
      <point x="376" y="44"/>
      <point x="385" y="71" type="curve"/>
    </contour>
    <contour>
      <point x="377" y="467"/>
      <point x="350" y="507"/>
      <point x="295" y="531" type="curve"/>
      <point x="265" y="514"/>
      <point x="222" y="481"/>
      <point x="214" y="425" type="curve"/>
      <point x="228" y="398"/>
      <point x="256" y="362"/>
      <point x="310" y="348" type="curve"/>
      <point x="356" y="370"/>
      <point x="377" y="411"/>
      <point x="386" y="438" type="curve"/>
    </contour>
  </outline>
</glyph>
<glyph name="oslash" format="1">
  <advance width="536"/>
  <unicode hex="00F8"/>
  <outline>
    <contour>
      <point x="113" y="-88" type="line"/>
      <point x="499" y="482" type="line"/>
      <point x="411" y="539" type="line"/>
      <point x="27" y="-28" type="line"/>
    </contour>
    <contour>
      <point x="11" y="77"/>
      <point x="133" y="-20"/>
      <point x="266" y="-20" type="curve" smooth="yes"/>
      <point x="397" y="-20"/>
      <point x="511" y="72"/>
      <point x="511" y="238" type="curve" smooth="yes"/>
      <point x="511" y="408"/>
      <point x="392" y="500"/>
      <point x="262" y="500" type="curve" smooth="yes"/>
      <point x="131" y="500"/>
      <point x="11" y="408"/>
      <point x="11" y="243" type="curve" smooth="yes"/>
    </contour>
    <contour>
      <point x="288" y="71"/>
      <point x="280" y="70"/>
      <point x="271" y="70" type="curve" smooth="yes"/>
      <point x="210" y="70"/>
      <point x="186" y="147"/>
      <point x="186" y="241" type="curve" smooth="yes"/>
      <point x="186" y="307"/>
      <point x="196" y="365"/>
      <point x="216" y="393" type="curve"/>
      <point x="225" y="400"/>
      <point x="240" y="404"/>
      <point x="255" y="404" type="curve" smooth="yes"/>
      <point x="314" y="404"/>
      <point x="336" y="324"/>
      <point x="336" y="227" type="curve" smooth="yes"/>
      <point x="336" y="160"/>
      <point x="328" y="97"/>
      <point x="299" y="75" type="curve"/>
    </contour>
    <contour>
      <point x="261" y="468" type="move" name="top"/>
    </contour>
  </outline>
</glyph>
<glyph name="thorn" format="1">
  <advance width="585"/>
  <unicode hex="00FE"/>
  <outline>
    <contour>
      <point x="-19" y="649" type="line"/>
      <point x="110" y="615" type="line"/>
      <point x="185" y="666" type="line"/>
      <point x="187" y="737" type="line"/>
      <point x="112" y="733"/>
      <point x="39" y="720"/>
      <point x="-23" y="697" type="curve"/>
    </contour>
    <contour>
      <point x="187" y="737" type="line"/>
      <point x="67" y="684" type="line"/>
      <point x="67" y="14" type="line"/>
      <point x="241" y="42" type="line"/>
      <point x="241" y="687" type="line"/>
    </contour>
    <contour>
      <point x="66" y="-202" type="line"/>
      <point x="239" y="-202" type="line"/>
      <point x="239" y="444" type="line"/>
      <point x="185" y="492" type="line"/>
      <point x="66" y="440" type="line"/>
    </contour>
    <contour>
      <point x="114" y="-202" type="line"/>
      <point x="124" y="-119" type="line"/>
      <point x="86" y="-134"/>
      <point x="38" y="-151"/>
      <point x="0" y="-167" type="curve"/>
      <point x="2" y="-202" type="line"/>
    </contour>
    <contour>
      <point x="331" y="-202" type="line"/>
      <point x="333" y="-153" type="line"/>
      <point x="296" y="-133"/>
      <point x="252" y="-115"/>
      <point x="210" y="-99" type="curve"/>
      <point x="185" y="-202" type="line"/>
    </contour>
    <contour>
      <point x="185" y="330" type="line"/>
      <point x="224" y="354"/>
      <point x="258" y="373"/>
      <point x="291" y="373" type="curve" smooth="yes"/>
      <point x="353" y="373"/>
      <point x="390" y="307"/>
      <point x="390" y="232" type="curve" smooth="yes"/>
      <point x="390" y="172"/>
      <point x="368" y="110"/>
      <point x="329" y="76" type="curve"/>
      <point x="258" y="66"/>
      <point x="201" y="93"/>
      <point x="165" y="137" type="curve"/>
      <point x="68" y="20" type="line"/>
      <point x="138" y="-4"/>
      <point x="214" y="-18"/>
      <point x="277" y="-18" type="curve" smooth="yes"/>
      <point x="473" y="-18"/>
      <point x="568" y="118"/>
      <point x="568" y="262" type="curve" smooth="yes"/>
      <point x="568" y="396"/>
      <point x="486" y="514"/>
      <point x="348" y="491" type="curve"/>
      <point x="176" y="366" type="line"/>
    </contour>
  </outline>
</glyph>
<glyph name="Dcroat" format="1">
  <advance width="732"/>
  <unicode hex="0110"/>
  <outline>
    <contour>
      <point x="13" y="303" type="line"/>
      <point x="19" y="268" type="line"/>
      <point x="381" y="268" type="line"/>
      <point x="424" y="311" type="line"/>
      <point x="418" y="346" type="line"/>
      <point x="56" y="346" type="line"/>
    </contour>
    <component base="D"/>
  </outline>
</glyph>
<glyph name="eogonek" format="1">
  <advance width="515"/>
  <unicode hex="0119"/>
  <outline>
    <contour>
      <point x="330" y="-234" type="curve"/>
      <point x="456" y="-167" type="line"/>
      <point x="432" y="-117" type="line"/>
      <point x="353" y="-162"/>
      <point x="299" y="-140"/>
      <point x="299" y="-88" type="curve"/>
      <point x="299" y="-36"/>
      <point x="354" y="6"/>
      <point x="431" y="52" type="curve"/>
      <point x="472" y="77" type="line"/>
      <point x="422" y="80" type="line"/>
      <point x="263" y="35"/>
      <point x="180" y="-46"/>
      <point x="180" y="-121" type="curve"/>
      <point x="180" y="-185"/>
      <point x="240" y="-244"/>
    </contour>
    <component base="e"/>
  </outline>
</glyph>
<glyph name="Imacron" format="1">
  <advance width="412"/>
  <unicode hex="012A"/>
  <outline>
    <contour>
      <point x="27" y="806" type="curve"/>
      <point x="33" y="732" type="line"/>
      <point x="341" y="732" type="line"/>
      <point x="388" y="778" type="line"/>
      <point x="383" y="831" type="line"/>
      <point x="140" y="831" type="line"/>
      <point x="109" y="831"/>
      <point x="66" y="826"/>
    </contour>
    <component base="I"/>
  </outline>
</glyph>
<glyph name="imacron" format="1">
  <advance width="349"/>
  <unicode hex="012B"/>
  <outline>
    <contour>
      <point x="11" y="643" type="curve"/>
      <point x="17" y="569" type="line"/>
      <point x="289" y="569" type="line"/>
      <point x="336" y="615" type="line"/>
      <point x="331" y="668" type="line"/>
      <point x="124" y="668" type="line"/>
      <point x="93" y="668"/>
      <point x="50" y="662"/>
    </contour>
    <component base="dotlessi" xOffset="8"/>
  </outline>
</glyph>
<glyph name="dotlessi" format="1">
  <advance width="334"/>
  <unicode hex="0131"/>
  <outline>
    <contour>
      <point x="90" y="440" type="line"/>
      <point x="90" y="0" type="line"/>
      <point x="263" y="0" type="line"/>
      <point x="263" y="444" type="line"/>
      <point x="209" y="492" type="line"/>
    </contour>
    <contour>
      <point x="16" y="35" type="curve"/>
      <point x="18" y="0" type="line"/>
      <point x="130" y="0" type="line"/>
      <point x="140" y="83" type="line"/>
      <point x="102" y="74"/>
      <point x="54" y="57"/>
    </contour>
    <contour>
      <point x="198" y="103" type="curve"/>
      <point x="173" y="0" type="line"/>
      <point x="319" y="0" type="line"/>
      <point x="321" y="49" type="line"/>
      <point x="284" y="75"/>
      <point x="240" y="93"/>
    </contour>
    <contour>
      <point x="16" y="407" type="line"/>
      <point x="133" y="385" type="line"/>
      <point x="209" y="422" type="line"/>
      <point x="209" y="492" type="line"/>
      <point x="139" y="490"/>
      <point x="69" y="477"/>
      <point x="11" y="455" type="curve"/>
    </contour>
    <contour>
      <point x="322" y="10" type="move" name="ogonek"/>
    </contour>
    <contour>
      <point x="163" y="468" type="move" name="top"/>
    </contour>
  </outline>
</glyph>
<glyph name="Lslash" format="1">
  <advance width="634"/>
  <unicode hex="0141"/>
  <outline>
    <contour>
      <point x="24" y="277" type="line"/>
      <point x="53" y="216" type="line"/>
      <point x="418" y="386" type="line"/>
      <point x="433" y="438" type="line"/>
      <point x="417" y="462" type="line"/>
    </contour>
    <component base="L" xOffset="15"/>
  </outline>
</glyph>
<glyph name="lslash" format="1">
  <advance width="437"/>
  <unicode hex="0142"/>
  <outline>
    <contour>
      <point x="11" y="325" type="line"/>
      <point x="46" y="258" type="line"/>
      <point x="379" y="426" type="line"/>
      <point x="379" y="482" type="line"/>
      <point x="353" y="498" type="line"/>
    </contour>
    <component base="l" xOffset="28"/>
  </outline>
</glyph>
<glyph name="OE" format="1">
  <advance width="981"/>
  <unicode hex="0152"/>
  <outline>
    <contour>
      <point x="356" y="-16" type="curve"/>
      <point x="418" y="-16"/>
      <point x="481" y="-5"/>
      <point x="534" y="29" type="curve"/>
      <point x="485" y="134" type="line"/>
      <point x="465" y="99"/>
      <point x="411" y="80"/>
      <point x="364" y="80" type="curve"/>
      <point x="245" y="80"/>
      <point x="192" y="205"/>
      <point x="192" y="337" type="curve"/>
      <point x="192" y="434"/>
      <point x="221" y="527"/>
      <point x="271" y="568" type="curve"/>
      <point x="295" y="577"/>
      <point x="320" y="580"/>
      <point x="347" y="580" type="curve"/>
      <point x="399" y="580"/>
      <point x="460" y="566"/>
      <point x="484" y="521" type="curve"/>
      <point x="529" y="639" type="line"/>
      <point x="480" y="666"/>
      <point x="423" y="680"/>
      <point x="363" y="680" type="curve"/>
      <point x="185" y="680"/>
      <point x="11" y="559"/>
      <point x="11" y="331" type="curve"/>
      <point x="11" y="91"/>
      <point x="189" y="-16"/>
    </contour>
    <contour>
      <point x="584" y="96" type="line"/>
      <point x="507" y="0" type="line"/>
      <point x="920" y="0" type="line"/>
      <point x="906" y="115" type="line"/>
    </contour>
    <contour>
      <point x="437" y="662" type="line"/>
      <point x="437" y="0" type="line"/>
      <point x="618" y="0" type="line"/>
      <point x="618" y="662" type="line"/>
    </contour>
    <contour>
      <point x="766" y="16" type="line"/>
      <point x="919" y="0" type="line"/>
      <point x="927" y="59"/>
      <point x="933" y="151"/>
      <point x="931" y="208" type="curve"/>
      <point x="832" y="216" type="line"/>
    </contour>
    <contour>
      <point x="585" y="290" type="line"/>
      <point x="825" y="280" type="line"/>
      <point x="825" y="388" type="line"/>
      <point x="585" y="368" type="line"/>
    </contour>
    <contour>
      <point x="578" y="573" type="line"/>
      <point x="900" y="554" type="line"/>
      <point x="925" y="662" type="line"/>
      <point x="503" y="662" type="line"/>
    </contour>
    <contour>
      <point x="774" y="644" type="line"/>
      <point x="807" y="460" type="line"/>
      <point x="907" y="460" type="line"/>
      <point x="921" y="527"/>
      <point x="928" y="619"/>
      <point x="925" y="662" type="curve"/>
    </contour>
  </outline>
</glyph>
<glyph name="oe" format="1">
  <advance width="829"/>
  <unicode hex="0153"/>
  <outline>
    <contour>
      <point x="288" y="71"/>
      <point x="280" y="70"/>
      <point x="271" y="70" type="curve" smooth="yes"/>
      <point x="210" y="70"/>
      <point x="186" y="147"/>
      <point x="186" y="240" type="curve" smooth="yes"/>
      <point x="186" y="307"/>
      <point x="196" y="365"/>
      <point x="216" y="393" type="curve"/>
      <point x="225" y="400"/>
      <point x="240" y="404"/>
      <point x="254" y="404" type="curve" smooth="yes"/>
      <point x="314" y="404"/>
      <point x="336" y="324"/>
      <point x="336" y="227" type="curve" smooth="yes"/>
      <point x="336" y="160"/>
      <point x="328" y="97"/>
      <point x="299" y="75" type="curve"/>
    </contour>
    <contour>
      <point x="452" y="411" type="line"/>
      <point x="405" y="470"/>
      <point x="336" y="500"/>
      <point x="262" y="500" type="curve" smooth="yes"/>
      <point x="131" y="500"/>
      <point x="11" y="408"/>
      <point x="11" y="243" type="curve" smooth="yes"/>
      <point x="11" y="77"/>
      <point x="133" y="-20"/>
      <point x="266" y="-20" type="curve" smooth="yes"/>
      <point x="338" y="-20"/>
      <point x="407" y="9"/>
      <point x="452" y="65" type="curve"/>
    </contour>
    <contour>
      <point x="381" y="101" type="line"/>
      <point x="434" y="22"/>
      <point x="530" y="-28"/>
      <point x="644" y="-12" type="curve"/>
      <point x="800" y="77" type="line"/>
      <point x="776" y="134" type="line"/>
      <point x="728" y="109"/>
      <point x="692" y="96"/>
      <point x="647" y="96" type="curve" smooth="yes"/>
      <point x="559" y="96"/>
      <point x="497" y="148"/>
      <point x="497" y="250" type="curve" smooth="yes"/>
      <point x="497" y="314"/>
      <point x="521" y="387"/>
      <point x="567" y="417" type="curve"/>
      <point x="627" y="414"/>
      <point x="666" y="340"/>
      <point x="656" y="273" type="curve"/>
      <point x="813" y="287" type="line"/>
      <point x="814" y="440"/>
      <point x="694" y="500"/>
      <point x="595" y="500" type="curve" smooth="yes"/>
      <point x="508" y="500"/>
      <point x="428" y="454"/>
      <point x="381" y="380" type="curve"/>
    </contour>
    <contour>
      <point x="456" y="231" type="line"/>
      <point x="755" y="229" type="line"/>
      <point x="813" y="287" type="line"/>
      <point x="730" y="321" type="line"/>
      <point x="444" y="303" type="line"/>
    </contour>
    <contour>
      <point x="805" y="26" type="move" name="ogonek"/>
    </contour>
    <contour>
      <point x="603" y="0" type="move" name="bottom"/>
    </contour>
    <contour>
      <point x="600" y="468" type="move" name="top"/>
    </contour>
  </outline>
</glyph>
<glyph name="circumflexcomb" format="1">
  <advance width="0"/>
  <unicode hex="0302"/>
  <outline>
    <contour>
      <point x="-186" y="579" type="line"/>
      <point x="-121" y="529" type="line"/>
      <point x="1" y="643" type="line"/>
      <point x="139" y="534" type="line"/>
      <point x="194" y="587" type="line"/>
      <point x="63" y="743" type="line"/>
      <point x="-52" y="743" type="line"/>
    </contour>
    <contour>
      <point x="0" y="473" type="move" name="_top"/>
    </contour>
  </outline>
</glyph>
<glyph name="macroncomb" format="1">
  <advance width="0"/>
  <unicode hex="0304"/>
  <outline>
    <contour>
      <point x="-84" y="666"/>
      <point x="-127" y="660"/>
      <point x="-166" y="641" type="curve"/>
      <point x="-160" y="567" type="line"/>
      <point x="151" y="567" type="line"/>
      <point x="198" y="613" type="line"/>
      <point x="193" y="666" type="line"/>
      <point x="-53" y="666" type="line"/>
    </contour>
    <contour>
      <point x="1" y="473" type="move" name="_top"/>
    </contour>
  </outline>
</glyph>
<glyph name="dotaccentcomb" format="1">
  <advance width="0"/>
  <unicode hex="0307"/>
  <outline>
    <contour>
      <point x="13" y="549" type="curve"/>
      <point x="53" y="570"/>
      <point x="79" y="602"/>
      <point x="92" y="644" type="curve"/>
      <point x="82" y="685"/>
      <point x="42" y="721"/>
      <point x="-3" y="739" type="curve"/>
      <point x="-46" y="716"/>
      <point x="-80" y="680"/>
      <point x="-87" y="629" type="curve"/>
      <point x="-66" y="589"/>
      <point x="-34" y="563"/>
    </contour>
    <contour>
      <point x="0" y="473" type="move" name="_top"/>
    </contour>
  </outline>
</glyph>
<glyph name="ringcomb" format="1">
  <advance width="0"/>
  <unicode hex="030A"/>
  <outline>
    <contour>
      <point x="4" y="710" type="curve"/>
      <point x="74" y="710"/>
      <point x="123" y="759"/>
      <point x="123" y="829" type="curve"/>
      <point x="123" y="903"/>
      <point x="69" y="956"/>
      <point x="0" y="956" type="curve"/>
      <point x="-71" y="956"/>
      <point x="-123" y="902"/>
      <point x="-123" y="832" type="curve"/>
      <point x="-123" y="758"/>
      <point x="-66" y="710"/>
    </contour>
    <contour>
      <point x="2" y="758" type="curve"/>
      <point x="-30" y="758"/>
      <point x="-58" y="780"/>
      <point x="-58" y="816" type="curve"/>
      <point x="-58" y="849"/>
      <point x="-33" y="874"/>
      <point x="1" y="874" type="curve"/>
      <point x="33" y="874"/>
      <point x="59" y="850"/>
      <point x="59" y="815" type="curve"/>
      <point x="59" y="781"/>
      <point x="35" y="758"/>
    </contour>
    <contour>
      <point x="0" y="650" type="move" name="_top"/>
    </contour>
  </outline>
</glyph>
<glyph name="hungarumlautcomb" format="1">
  <advance width="0"/>
  <unicode hex="030B"/>
  <outline>
    <contour>
      <point x="-104" y="534" type="line"/>
      <point x="-51" y="587"/>
      <point x="7" y="648"/>
      <point x="64" y="697" type="curve"/>
      <point x="-41" y="774" type="line"/>
      <point x="-182" y="592" type="line"/>
    </contour>
    <contour>
      <point x="106" y="534" type="line"/>
      <point x="159" y="587"/>
      <point x="217" y="648"/>
      <point x="274" y="697" type="curve"/>
      <point x="169" y="774" type="line"/>
      <point x="28" y="592" type="line"/>
    </contour>
    <contour>
      <point x="0" y="473" type="move" name="_top"/>
    </contour>
  </outline>
</glyph>
<glyph name="caroncomb" format="1">
  <advance width="0"/>
  <unicode hex="030C"/>
  <outline>
    <contour>
      <point x="-208" y="695" type="line"/>
      <point x="-62" y="541" type="line"/>
      <point x="63" y="543" type="line"/>
      <point x="196" y="712" type="line"/>
      <point x="122" y="775" type="line"/>
      <point x="3" y="633" type="line"/>
      <point x="-120" y="774" type="line"/>
    </contour>
    <contour>
      <point x="0" y="473" type="move" name="_top"/>
    </contour>
  </outline>
</glyph>
<glyph name="dotbelowcomb" format="1">
  <advance width="0"/>
  <unicode hex="0323"/>
  <outline>
    <contour>
      <point x="13" y="-289" type="curve"/>
      <point x="53" y="-268"/>
      <point x="79" y="-235"/>
      <point x="92" y="-194" type="curve"/>
      <point x="82" y="-153"/>
      <point x="42" y="-117"/>
      <point x="-3" y="-98" type="curve"/>
      <point x="-46" y="-121"/>
      <point x="-80" y="-158"/>
      <point x="-87" y="-209" type="curve"/>
      <point x="-66" y="-248"/>
      <point x="-34" y="-274"/>
    </contour>
    <contour>
      <point x="0" y="0" type="move" name="_bottom"/>
    </contour>
  </outline>
</glyph>
<glyph name="commaaccentcomb" format="1">
  <advance width="0"/>
  <unicode hex="0326"/>
  <outline>
    <contour>
      <point x="-65" y="-148" type="line"/>
      <point x="-26" y="-176"/>
      <point x="-33" y="-227"/>
      <point x="-71" y="-277" type="curve"/>
      <point x="-19" y="-314" type="line"/>
      <point x="51" y="-271"/>
      <point x="148" y="-122"/>
      <point x="30" y="-67" type="curve"/>
      <point x="-67" y="-111" type="line"/>
    </contour>
    <contour>
      <point x="0" y="0" type="move" name="_bottom"/>
    </contour>
  </outline>
</glyph>
<glyph name="macronbelowcomb" format="1">
  <advance width="0"/>
  <unicode hex="0331"/>
  <outline>
    <contour>
      <point x="-191" y="-160" type="curve"/>
      <point x="-185" y="-234" type="line"/>
      <point x="146" y="-234" type="line"/>
      <point x="193" y="-188" type="line"/>
      <point x="188" y="-135" type="line"/>
      <point x="-78" y="-135" type="line"/>
      <point x="-109" y="-135"/>
      <point x="-152" y="-142"/>
    </contour>
    <contour>
      <point x="0" y="0" type="move" name="_bottom"/>
    </contour>
  </outline>
</glyph>
<glyph name="Theta" format="1">
  <advance width="687"/>
  <unicode hex="0398"/>
  <outline>
    <contour>
      <point x="239" y="271" type="line"/>
      <point x="443" y="260" type="line"/>
      <point x="443" y="403" type="line"/>
      <point x="239" y="385" type="line"/>
    </contour>
    <component base="O"/>
  </outline>
</glyph>
<glyph name="Lamda" format="1">
  <advance width="730"/>
  <unicode hex="039B"/>
  <outline>
    <contour>
      <point x="263" y="646" type="line"/>
      <point x="505" y="0" type="line"/>
      <point x="696" y="0" type="line"/>
      <point x="419" y="686" type="line"/>
    </contour>
    <contour>
      <point x="-20" y="32" type="curve"/>
      <point x="-14" y="0" type="line"/>
      <point x="80" y="0" type="line"/>
      <point x="79" y="85" type="line"/>
      <point x="42" y="69"/>
      <point x="9" y="52"/>
    </contour>
    <contour>
      <point x="129" y="75" type="line"/>
      <point x="126" y="0" type="line"/>
      <point x="266" y="0" type="line"/>
      <point x="267" y="53" type="line"/>
    </contour>
    <contour>
      <point x="396" y="32" type="curve"/>
      <point x="402" y="0" type="line"/>
      <point x="517" y="0" type="line"/>
      <point x="495" y="85" type="line"/>
      <point x="459" y="69"/>
      <point x="425" y="52"/>
    </contour>
    <contour>
      <point x="293" y="644" type="line"/>
      <point x="32" y="0" type="line"/>
      <point x="155" y="0" type="line"/>
      <point x="389" y="624" type="line"/>
    </contour>
    <contour>
      <point x="604" y="75" type="line"/>
      <point x="601" y="0" type="line"/>
      <point x="741" y="0" type="line"/>
      <point x="742" y="53" type="line"/>
    </contour>
  </outline>
</glyph>
<glyph name="Xi" format="1">
  <advance width="696"/>
  <unicode hex="039E"/>
  <outline>
    <contour>
      <point x="77" y="124" type="line"/>
      <point x="60" y="0" type="line"/>
      <point x="637" y="0" type="line"/>
      <point x="620" y="124" type="line"/>
      <point x="349" y="109" type="line"/>
    </contour>
    <contour>
      <point x="60" y="0" type="curve"/>
      <point x="213" y="16" type="line"/>
      <point x="148" y="239" type="line"/>
      <point x="48" y="231" type="line"/>
      <point x="46" y="168"/>
      <point x="51" y="66"/>
    </contour>
    <contour>
      <point x="81" y="433" type="curve"/>
      <point x="174" y="433" type="line"/>
      <point x="196" y="646" type="line"/>
      <point x="62" y="668" type="line"/>
      <point x="57" y="625"/>
      <point x="66" y="499"/>
    </contour>
    <contour>
      <point x="191" y="279" type="line"/>
      <point x="507" y="270" type="line"/>
      <point x="507" y="398" type="line"/>
      <point x="191" y="378" type="line"/>
    </contour>
    <contour>
      <point x="484" y="16" type="line"/>
      <point x="637" y="0" type="line"/>
      <point x="646" y="66"/>
      <point x="651" y="168"/>
      <point x="649" y="231" type="curve"/>
      <point x="549" y="239" type="line"/>
    </contour>
    <contour>
      <point x="62" y="668" type="curve"/>
      <point x="78" y="546" type="line"/>
      <point x="348" y="561" type="line"/>
      <point x="619" y="546" type="line"/>
      <point x="636" y="668" type="line"/>
      <point x="406" y="662"/>
      <point x="298" y="662"/>
    </contour>
    <contour>
      <point x="500" y="646" type="line"/>
      <point x="523" y="433" type="line"/>
      <point x="617" y="433" type="line"/>
      <point x="630" y="499"/>
      <point x="639" y="625"/>
      <point x="636" y="668" type="curve"/>
    </contour>
  </outline>
</glyph>
<glyph name="Pi" format="1">
  <advance width="821"/>
  <unicode hex="03A0"/>
  <outline>
    <contour>
      <point x="525" y="662" type="line"/>
      <point x="525" y="0" type="line"/>
      <point x="706" y="0" type="line"/>
      <point x="706" y="662" type="line"/>
    </contour>
    <contour>
      <point x="24" y="32" type="curve"/>
      <point x="30" y="0" type="line"/>
      <point x="124" y="0" type="line"/>
      <point x="123" y="85" type="line"/>
      <point x="86" y="69"/>
      <point x="53" y="52"/>
    </contour>
    <contour>
      <point x="243" y="75" type="line"/>
      <point x="240" y="0" type="line"/>
      <point x="380" y="0" type="line"/>
      <point x="381" y="53" type="line"/>
    </contour>
    <contour>
      <point x="109" y="662" type="line"/>
      <point x="109" y="0" type="line"/>
      <point x="290" y="0" type="line"/>
      <point x="290" y="662" type="line"/>
    </contour>
    <contour>
      <point x="440" y="32" type="curve"/>
      <point x="446" y="0" type="line"/>
      <point x="540" y="0" type="line"/>
      <point x="539" y="85" type="line"/>
      <point x="503" y="69"/>
      <point x="469" y="52"/>
    </contour>
    <contour>
      <point x="32" y="609" type="line"/>
      <point x="170" y="587" type="line"/>
      <point x="173" y="662" type="line"/>
      <point x="33" y="662" type="line"/>
    </contour>
    <contour>
      <point x="659" y="75" type="line"/>
      <point x="656" y="0" type="line"/>
      <point x="796" y="0" type="line"/>
      <point x="797" y="53" type="line"/>
    </contour>
    <contour>
      <point x="254" y="662" type="line"/>
      <point x="254" y="570" type="line"/>
      <point x="540" y="570" type="line"/>
      <point x="540" y="662" type="line"/>
    </contour>
    <contour>
      <point x="691" y="662" type="line"/>
      <point x="692" y="577" type="line"/>
      <point x="729" y="593"/>
      <point x="763" y="610"/>
      <point x="791" y="630" type="curve"/>
      <point x="785" y="662" type="line"/>
    </contour>
  </outline>
</glyph>
<glyph name="Sigma" format="1">
  <advance width="646"/>
  <unicode hex="03A3"/>
  <outline>
    <contour>
      <point x="27" y="75" type="line"/>
      <point x="56" y="0" type="line"/>
      <point x="579" y="0" type="line"/>
      <point x="487" y="113" type="line"/>
      <point x="135" y="107" type="line"/>
      <point x="161" y="52" type="line"/>
      <point x="415" y="350" type="line"/>
      <point x="218" y="614" type="line"/>
      <point x="147" y="582" type="line"/>
      <point x="558" y="552" type="line"/>
      <point x="586" y="662" type="line"/>
      <point x="70" y="662" type="line"/>
      <point x="30" y="586" type="line"/>
      <point x="264" y="281" type="line"/>
      <point x="248" y="337" type="line"/>
    </contour>
    <contour>
      <point x="426" y="16" type="line"/>
      <point x="579" y="0" type="line"/>
      <point x="589" y="57"/>
      <point x="598" y="174"/>
      <point x="596" y="232" type="curve"/>
      <point x="497" y="239" type="line"/>
    </contour>
    <contour>
      <point x="434" y="644" type="line"/>
      <point x="468" y="460" type="line"/>
      <point x="567" y="460" type="line"/>
      <point x="581" y="527"/>
      <point x="588" y="619"/>
      <point x="586" y="662" type="curve"/>
    </contour>
  </outline>
</glyph>
<glyph name="Upsilon" format="1">
  <advance width="693"/>
  <unicode hex="03A5"/>
  <outline>
    <contour>
      <point x="248" y="166" type="curve"/>
      <point x="429" y="189" type="line"/>
      <point x="429" y="384"/>
      <point x="520" y="566"/>
      <point x="608" y="582" type="curve"/>
      <point x="598" y="580" type="line"/>
      <point x="686" y="580" type="line"/>
      <point x="700" y="626" type="line"/>
      <point x="671" y="651"/>
      <point x="621" y="671"/>
      <point x="580" y="671" type="curve"/>
      <point x="478" y="671"/>
      <point x="382" y="547"/>
      <point x="353" y="293" type="curve"/>
      <point x="366" y="308" type="line"/>
      <point x="356" y="474" type="line"/>
      <point x="309" y="611"/>
      <point x="245" y="671"/>
      <point x="154" y="671" type="curve"/>
      <point x="101" y="671"/>
      <point x="43" y="648"/>
      <point x="-3" y="615" type="curve"/>
      <point x="11" y="568" type="line"/>
      <point x="103" y="576" type="line"/>
      <point x="80" y="579" type="line"/>
      <point x="168" y="558"/>
      <point x="248" y="352"/>
    </contour>
    <contour>
      <point x="161" y="32" type="curve"/>
      <point x="167" y="0" type="line"/>
      <point x="261" y="0" type="line"/>
      <point x="260" y="85" type="line"/>
      <point x="223" y="69"/>
      <point x="189" y="52"/>
    </contour>
    <contour>
      <point x="248" y="294" type="line"/>
      <point x="248" y="0" type="line"/>
      <point x="429" y="0" type="line"/>
      <point x="429" y="294" type="line"/>
    </contour>
    <contour>
      <point x="381" y="75" type="line"/>
      <point x="378" y="0" type="line"/>
      <point x="518" y="0" type="line"/>
      <point x="519" y="53" type="line"/>
    </contour>
    <contour>
      <point x="350" y="366" type="line"/>
      <point x="348" y="296" type="line"/>
      <point x="384" y="296" type="line"/>
      <point x="384" y="366" type="line"/>
    </contour>
    <contour>
      <point x="-57" y="343" type="move" name="left"/>
    </contour>
    <contour>
      <point x="355" y="650" type="move" name="top"/>
    </contour>
  </outline>
</glyph>
<glyph name="Phi" format="1">
  <advance width="774"/>
  <unicode hex="03A6"/>
  <outline>
    <contour>
      <point x="443" y="160" type="curve"/>
      <point x="431" y="89" type="line"/>
      <point x="639" y="89"/>
      <point x="763" y="184"/>
      <point x="763" y="340" type="curve"/>
      <point x="763" y="488"/>
      <point x="642" y="579"/>
      <point x="443" y="579" type="curve"/>
      <point x="425" y="508" type="line"/>
      <point x="530" y="508"/>
      <point x="588" y="445"/>
      <point x="588" y="330" type="curve"/>
      <point x="588" y="267"/>
      <point x="566" y="208"/>
      <point x="531" y="177" type="curve"/>
      <point x="506" y="166"/>
      <point x="474" y="160"/>
    </contour>
    <contour>
      <point x="217" y="15" type="curve"/>
      <point x="223" y="-17" type="line"/>
      <point x="317" y="-17" type="line"/>
      <point x="316" y="68" type="line"/>
      <point x="273" y="50"/>
      <point x="242" y="33"/>
    </contour>
    <contour>
      <point x="331" y="89" type="curve"/>
      <point x="349" y="160" type="line"/>
      <point x="245" y="160"/>
      <point x="187" y="223"/>
      <point x="187" y="338" type="curve"/>
      <point x="187" y="401"/>
      <point x="209" y="459"/>
      <point x="244" y="491" type="curve"/>
      <point x="268" y="501"/>
      <point x="301" y="508"/>
      <point x="331" y="508" type="curve"/>
      <point x="343" y="579" type="line"/>
      <point x="136" y="579"/>
      <point x="11" y="484"/>
      <point x="11" y="328" type="curve"/>
      <point x="11" y="179"/>
      <point x="132" y="89"/>
    </contour>
    <contour>
      <point x="426" y="58" type="line"/>
      <point x="423" y="-17" type="line"/>
      <point x="563" y="-17" type="line"/>
      <point x="564" y="36" type="line"/>
    </contour>
    <contour>
      <point x="306" y="680" type="line"/>
      <point x="306" y="-17" type="line"/>
      <point x="468" y="-17" type="line"/>
      <point x="468" y="680" type="line"/>
    </contour>
    <contour>
      <point x="225" y="627" type="line"/>
      <point x="363" y="605" type="line"/>
      <point x="366" y="680" type="line"/>
      <point x="226" y="680" type="line"/>
    </contour>
    <contour>
      <point x="458" y="680" type="line"/>
      <point x="459" y="595" type="line"/>
      <point x="502" y="613"/>
      <point x="532" y="629"/>
      <point x="558" y="648" type="curve"/>
      <point x="552" y="680" type="line"/>
    </contour>
  </outline>
</glyph>
<glyph name="Psi" format="1">
  <advance width="946"/>
  <unicode hex="03A8"/>
  <outline>
    <contour>
      <point x="428" y="198" type="curve"/>
      <point x="520" y="198" type="line"/>
      <point x="696" y="207"/>
      <point x="795" y="279"/>
      <point x="826" y="421" type="curve"/>
      <point x="863" y="590" type="line"/>
      <point x="821" y="576" type="line"/>
      <point x="944" y="576" type="line"/>
      <point x="953" y="623" type="line"/>
      <point x="911" y="654"/>
      <point x="861" y="671"/>
      <point x="816" y="671" type="curve"/>
      <point x="752" y="671"/>
      <point x="710" y="637"/>
      <point x="696" y="572" type="curve"/>
      <point x="674" y="465" type="line" smooth="yes"/>
      <point x="658" y="391"/>
      <point x="632" y="314"/>
      <point x="615" y="296" type="curve"/>
      <point x="591" y="281"/>
      <point x="568" y="275"/>
      <point x="526" y="273" type="curve"/>
      <point x="437" y="273" type="line"/>
      <point x="346" y="281"/>
      <point x="310" y="327"/>
      <point x="281" y="465" type="curve"/>
      <point x="260" y="572" type="line" smooth="yes"/>
      <point x="246" y="637"/>
      <point x="202" y="671"/>
      <point x="135" y="671" type="curve"/>
      <point x="90" y="671"/>
      <point x="40" y="654"/>
      <point x="-3" y="623" type="curve"/>
      <point x="7" y="576" type="line"/>
      <point x="130" y="576" type="line"/>
      <point x="88" y="590" type="line"/>
      <point x="125" y="420" type="line" smooth="yes"/>
      <point x="156" y="277"/>
      <point x="254" y="206"/>
    </contour>
    <contour>
      <point x="298" y="32" type="curve"/>
      <point x="304" y="0" type="line"/>
      <point x="398" y="0" type="line"/>
      <point x="397" y="85" type="line"/>
      <point x="354" y="67"/>
      <point x="324" y="51"/>
    </contour>
    <contour>
      <point x="519" y="75" type="line"/>
      <point x="516" y="0" type="line"/>
      <point x="656" y="0" type="line"/>
      <point x="657" y="53" type="line"/>
    </contour>
    <contour>
      <point x="385" y="662" type="line"/>
      <point x="385" y="0" type="line"/>
      <point x="566" y="0" type="line"/>
      <point x="566" y="662" type="line"/>
    </contour>
    <contour>
      <point x="308" y="609" type="line"/>
      <point x="446" y="587" type="line"/>
      <point x="449" y="662" type="line"/>
      <point x="309" y="662" type="line"/>
    </contour>
    <contour>
      <point x="551" y="662" type="line"/>
      <point x="552" y="577" type="line"/>
      <point x="591" y="594"/>
      <point x="619" y="610"/>
      <point x="650" y="630" type="curve"/>
      <point x="644" y="662" type="line"/>
    </contour>
  </outline>
</glyph>
<glyph name="Omega" format="1">
  <advance width="811"/>
  <unicode hex="03A9"/>
  <outline>
    <contour>
      <point x="30" y="115" type="line"/>
      <point x="25" y="0" type="line"/>
      <point x="358" y="0" type="line"/>
      <point x="381" y="72" type="line"/>
      <point x="301" y="161"/>
      <point x="265" y="263"/>
      <point x="265" y="381" type="curve"/>
      <point x="265" y="469"/>
      <point x="289" y="534"/>
      <point x="326" y="572" type="curve"/>
      <point x="346" y="580"/>
      <point x="367" y="585"/>
      <point x="388" y="585" type="curve"/>
      <point x="482" y="585"/>
      <point x="547" y="494"/>
      <point x="547" y="362" type="curve"/>
      <point x="547" y="247"/>
      <point x="508" y="156"/>
      <point x="433" y="72" type="curve"/>
      <point x="456" y="0" type="line"/>
      <point x="789" y="0" type="line"/>
      <point x="784" y="115" type="line"/>
      <point x="514" y="90" type="line"/>
      <point x="540" y="79" type="line"/>
      <point x="658" y="150"/>
      <point x="738" y="266"/>
      <point x="738" y="385" type="curve"/>
      <point x="738" y="554"/>
      <point x="595" y="682"/>
      <point x="405" y="682" type="curve"/>
      <point x="212" y="682"/>
      <point x="73" y="553"/>
      <point x="73" y="375" type="curve"/>
      <point x="73" y="248"/>
      <point x="157" y="132"/>
      <point x="286" y="80" type="curve"/>
      <point x="309" y="90" type="line"/>
    </contour>
    <contour>
      <point x="25" y="0" type="curve"/>
      <point x="155" y="16" type="line"/>
      <point x="90" y="216" type="line"/>
      <point x="13" y="208" type="line"/>
      <point x="11" y="156"/>
      <point x="16" y="65"/>
    </contour>
    <contour>
      <point x="659" y="16" type="line"/>
      <point x="790" y="0" type="line"/>
      <point x="798" y="65"/>
      <point x="804" y="156"/>
      <point x="802" y="208" type="curve"/>
      <point x="725" y="216" type="line"/>
    </contour>
    <contour>
      <point x="404" y="0" type="move" name="bottom"/>
    </contour>
    <contour>
      <point x="53" y="343" type="move" name="left"/>
    </contour>
  </outline>
</glyph>
<glyph name="alpha" format="1">
  <advance width="594"/>
  <unicode hex="03B1"/>
  <outline>
    <contour>
      <point x="202" y="-14" type="curve"/>
      <point x="271" y="-14"/>
      <point x="331" y="35"/>
      <point x="391" y="141" type="curve"/>
      <point x="336" y="113" type="line"/>
      <point x="403" y="113" type="line"/>
      <point x="369" y="174" type="line"/>
      <point x="375" y="64"/>
      <point x="422" y="-14"/>
      <point x="483" y="-14" type="curve"/>
      <point x="527" y="-14"/>
      <point x="582" y="39"/>
      <point x="600" y="99" type="curve"/>
      <point x="581" y="140" type="line"/>
      <point x="437" y="124" type="line"/>
      <point x="448" y="91" type="line"/>
      <point x="546" y="456" type="line"/>
      <point x="520" y="482"/>
      <point x="461" y="503"/>
      <point x="409" y="503" type="curve"/>
      <point x="370" y="474" type="line"/>
      <point x="359" y="345" type="line"/>
      <point x="361" y="319" type="line"/>
      <point x="355" y="284" type="line" smooth="yes"/>
      <point x="342" y="209"/>
      <point x="280" y="160"/>
      <point x="197" y="160" type="curve"/>
      <point x="168" y="160"/>
      <point x="142" y="165"/>
      <point x="116" y="175" type="curve"/>
      <point x="109" y="185"/>
      <point x="106" y="198"/>
      <point x="106" y="216" type="curve"/>
      <point x="106" y="283"/>
      <point x="163" y="326"/>
      <point x="247" y="326" type="curve"/>
      <point x="298" y="326"/>
      <point x="340" y="313"/>
      <point x="374" y="288" type="curve"/>
      <point x="370" y="339" type="line"/>
      <point x="352" y="438"/>
      <point x="288" y="501"/>
      <point x="208" y="501" type="curve"/>
      <point x="105" y="501"/>
      <point x="19" y="381"/>
      <point x="19" y="237" type="curve"/>
      <point x="19" y="96"/>
      <point x="99" y="-14"/>
    </contour>
    <contour>
      <point x="240" y="0" type="move" name="bottom"/>
    </contour>
    <contour>
      <point x="307" y="473" type="move" name="top"/>
    </contour>
  </outline>
</glyph>
<glyph name="delta" format="1">
  <advance width="502"/>
  <unicode hex="03B4"/>
  <outline>
    <contour>
      <point x="248" y="-20" type="curve"/>
      <point x="386" y="-20"/>
      <point x="483" y="89"/>
      <point x="483" y="242" type="curve"/>
      <point x="483" y="483"/>
      <point x="169" y="502"/>
      <point x="134" y="563" type="curve"/>
      <point x="139" y="584"/>
      <point x="166" y="597"/>
      <point x="205" y="597" type="curve"/>
      <point x="263" y="597"/>
      <point x="333" y="571"/>
      <point x="418" y="517" type="curve"/>
      <point x="452" y="528" type="line"/>
      <point x="467" y="558"/>
      <point x="483" y="622"/>
      <point x="483" y="655" type="curve"/>
      <point x="455" y="676"/>
      <point x="413" y="699"/>
      <point x="369" y="713" type="curve"/>
      <point x="328" y="727"/>
      <point x="283" y="735"/>
      <point x="242" y="735" type="curve"/>
      <point x="135" y="735"/>
      <point x="63" y="674"/>
      <point x="63" y="582" type="curve"/>
      <point x="63" y="500"/>
      <point x="112" y="431"/>
      <point x="201" y="389" type="curve"/>
      <point x="249" y="345" type="line"/>
      <point x="341" y="314"/>
      <point x="380" y="293"/>
      <point x="403" y="262" type="curve"/>
      <point x="394" y="200"/>
      <point x="314" y="155"/>
      <point x="210" y="155" type="curve"/>
      <point x="177" y="155"/>
      <point x="145" y="160"/>
      <point x="118" y="169" type="curve"/>
      <point x="110" y="179"/>
      <point x="105" y="193"/>
      <point x="105" y="211" type="curve"/>
      <point x="105" y="271"/>
      <point x="191" y="308"/>
      <point x="357" y="314" type="curve"/>
      <point x="170" y="411" type="line"/>
      <point x="75" y="387"/>
      <point x="19" y="317"/>
      <point x="19" y="217" type="curve"/>
      <point x="19" y="82"/>
      <point x="118" y="-20"/>
    </contour>
  </outline>
</glyph>
<glyph name="epsilon" format="1">
  <advance width="482"/>
  <unicode hex="03B5"/>
  <outline>
    <contour>
      <point x="253" y="-14" type="curve"/>
      <point x="342" y="-14"/>
      <point x="436" y="28"/>
      <point x="481" y="89" type="curve"/>
      <point x="452" y="146" type="line"/>
      <point x="384" y="125"/>
      <point x="337" y="117"/>
      <point x="253" y="117" type="curve"/>
      <point x="188" y="117"/>
      <point x="127" y="133"/>
      <point x="108" y="153" type="curve"/>
      <point x="122" y="175"/>
      <point x="171" y="198"/>
      <point x="207" y="201" type="curve"/>
      <point x="351" y="176" type="line"/>
      <point x="361" y="201"/>
      <point x="364" y="254"/>
      <point x="359" y="286" type="curve"/>
      <point x="337" y="306" type="line"/>
      <point x="187" y="266" type="line"/>
      <point x="176" y="258" type="line"/>
      <point x="88" y="247"/>
      <point x="25" y="197"/>
      <point x="25" y="139" type="curve"/>
      <point x="25" y="48"/>
      <point x="117" y="-14"/>
    </contour>
    <contour>
      <point x="172" y="239" type="curve"/>
      <point x="239" y="228" type="line"/>
      <point x="243" y="264" type="line"/>
      <point x="193" y="265"/>
      <point x="136" y="289"/>
      <point x="122" y="316" type="curve"/>
      <point x="143" y="345"/>
      <point x="195" y="362"/>
      <point x="267" y="362" type="curve"/>
      <point x="335" y="362"/>
      <point x="373" y="354"/>
      <point x="431" y="329" type="curve"/>
      <point x="462" y="346" type="line"/>
      <point x="466" y="392"/>
      <point x="463" y="438"/>
      <point x="452" y="472" type="curve"/>
      <point x="419" y="489"/>
      <point x="352" y="501"/>
      <point x="276" y="501" type="curve"/>
      <point x="132" y="501"/>
      <point x="33" y="440"/>
      <point x="33" y="351" type="curve"/>
      <point x="33" y="289"/>
      <point x="89" y="243"/>
    </contour>
    <contour>
      <point x="280" y="473" type="move" name="top"/>
    </contour>
  </outline>
</glyph>
<glyph name="zeta" format="1">
  <advance width="414"/>
  <unicode hex="03B6"/>
  <outline>
    <contour>
      <point x="220" y="-138" type="line"/>
      <point x="280" y="-186" type="line"/>
      <point x="381" y="-107"/>
      <point x="420" y="-49"/>
      <point x="420" y="17" type="curve"/>
      <point x="420" y="64"/>
      <point x="402" y="96"/>
      <point x="360" y="122" type="curve"/>
      <point x="335" y="136"/>
      <point x="302" y="147"/>
      <point x="219" y="171" type="curve"/>
      <point x="142" y="194"/>
      <point x="117" y="203"/>
      <point x="98" y="217" type="curve"/>
      <point x="131" y="347"/>
      <point x="281" y="484"/>
      <point x="434" y="523" type="curve"/>
      <point x="456" y="566" type="line"/>
      <point x="444" y="606"/>
      <point x="399" y="667"/>
      <point x="364" y="689" type="curve"/>
      <point x="186" y="622"/>
      <point x="24" y="408"/>
      <point x="24" y="239" type="curve"/>
      <point x="24" y="187"/>
      <point x="33" y="149"/>
      <point x="53" y="110" type="curve"/>
      <point x="81" y="60"/>
      <point x="126" y="27"/>
      <point x="200" y="4" type="curve"/>
      <point x="283" y="-21"/>
      <point x="308" y="-30"/>
      <point x="345" y="-47" type="curve"/>
      <point x="325" y="-15" type="line"/>
    </contour>
    <contour>
      <point x="168" y="564" type="curve"/>
      <point x="181" y="547" type="line"/>
      <point x="289" y="625" type="line"/>
      <point x="214" y="625"/>
      <point x="171" y="631"/>
      <point x="143" y="644" type="curve"/>
      <point x="77" y="737" type="line"/>
      <point x="11" y="718" type="line"/>
      <point x="-17" y="580"/>
      <point x="31" y="534"/>
    </contour>
  </outline>
</glyph>
<glyph name="eta" format="1">
  <advance width="556"/>
  <unicode hex="03B7"/>
  <outline>
    <contour>
      <point x="478" y="-223" type="curve"/>
      <point x="521" y="-200" type="line"/>
      <point x="524" y="221" type="line" smooth="yes"/>
      <point x="524" y="407"/>
      <point x="473" y="501"/>
      <point x="370" y="501" type="curve"/>
      <point x="292" y="501"/>
      <point x="235" y="439"/>
      <point x="209" y="327" type="curve"/>
      <point x="200" y="196" type="line"/>
      <point x="222" y="132" type="line"/>
      <point x="238" y="232"/>
      <point x="320" y="336"/>
      <point x="394" y="336" type="curve"/>
      <point x="409" y="336"/>
      <point x="421" y="334"/>
      <point x="429" y="328" type="curve"/>
      <point x="431" y="324"/>
      <point x="433" y="314"/>
      <point x="433" y="300" type="curve"/>
      <point x="433" y="246"/>
      <point x="420" y="171"/>
      <point x="336" y="-194" type="curve"/>
      <point x="373" y="-213"/>
      <point x="421" y="-223"/>
    </contour>
    <contour>
      <point x="84" y="7" type="line"/>
      <point x="94" y="-4" type="line"/>
      <point x="145" y="-10"/>
      <point x="219" y="-8"/>
      <point x="251" y="0" type="curve"/>
      <point x="221" y="196" type="line"/>
      <point x="218" y="342" type="line"/>
      <point x="217" y="396"/>
      <point x="208" y="435"/>
      <point x="189" y="462" type="curve"/>
      <point x="173" y="487"/>
      <point x="151" y="501"/>
      <point x="125" y="501" type="curve"/>
      <point x="80" y="501"/>
      <point x="29" y="456"/>
      <point x="2" y="393" type="curve"/>
      <point x="20" y="347" type="line"/>
      <point x="194" y="362" type="line"/>
      <point x="148" y="421" type="line"/>
    </contour>
    <contour>
      <point x="159" y="0" type="move" name="bottom"/>
    </contour>
    <contour>
      <point x="326" y="473" type="move" name="top"/>
    </contour>
  </outline>
</glyph>
<glyph name="iota" format="1">
  <advance width="308"/>
  <unicode hex="03B9"/>
  <outline>
    <contour>
      <point x="173" y="-14" type="curve"/>
      <point x="233" y="-14"/>
      <point x="292" y="42"/>
      <point x="312" y="102" type="curve"/>
      <point x="293" y="145" type="line"/>
      <point x="97" y="125" type="line"/>
      <point x="138" y="97" type="line"/>
      <point x="245" y="463" type="line"/>
      <point x="205" y="497" type="line"/>
      <point x="132" y="497"/>
      <point x="68" y="480"/>
      <point x="38" y="463" type="curve"/>
      <point x="48" y="198" type="line" smooth="yes"/>
      <point x="53" y="59"/>
      <point x="103" y="-14"/>
    </contour>
    <contour>
      <point x="160" y="473" type="move" name="top"/>
    </contour>
  </outline>
</glyph>
<glyph name="kappa" format="1">
  <advance width="559"/>
  <unicode hex="03BA"/>
  <outline>
    <contour>
      <point x="195" y="-10" type="curve"/>
      <point x="236" y="98"/>
      <point x="274" y="166"/>
      <point x="324" y="213" type="curve"/>
      <point x="375" y="261"/>
      <point x="438" y="303"/>
      <point x="522" y="342" type="curve"/>
      <point x="538" y="384" type="line"/>
      <point x="524" y="437"/>
      <point x="502" y="477"/>
      <point x="476" y="499" type="curve"/>
      <point x="399" y="471"/>
      <point x="331" y="423"/>
      <point x="272" y="350" type="curve"/>
      <point x="223" y="289"/>
      <point x="182" y="204"/>
      <point x="137" y="74" type="curve"/>
      <point x="143" y="56" type="line"/>
      <point x="216" y="466" type="line"/>
      <point x="177" y="497" type="line"/>
      <point x="117" y="496"/>
      <point x="59" y="483"/>
      <point x="25" y="463" type="curve"/>
      <point x="56" y="272" type="line"/>
      <point x="63" y="3" type="line"/>
      <point x="91" y="-10"/>
      <point x="155" y="-16"/>
    </contour>
    <contour>
      <point x="432" y="-16" type="curve"/>
      <point x="478" y="-16"/>
      <point x="528" y="33"/>
      <point x="546" y="97" type="curve"/>
      <point x="527" y="140" type="line"/>
      <point x="373" y="125" type="line"/>
      <point x="427" y="91" type="line"/>
      <point x="394" y="164"/>
      <point x="373" y="233"/>
      <point x="364" y="298" type="curve"/>
      <point x="260" y="224" type="line"/>
      <point x="336" y="74" type="line" smooth="yes"/>
      <point x="368" y="9"/>
      <point x="396" y="-16"/>
    </contour>
  </outline>
</glyph>
<glyph name="nu" format="1">
  <advance width="545"/>
  <unicode hex="03BD"/>
  <outline>
    <contour>
      <point x="303" y="-13" type="curve"/>
      <point x="434" y="83"/>
      <point x="523" y="249"/>
      <point x="523" y="392" type="curve"/>
      <point x="523" y="414"/>
      <point x="521" y="436"/>
      <point x="518" y="460" type="curve"/>
      <point x="484" y="481"/>
      <point x="435" y="492"/>
      <point x="373" y="494" type="curve"/>
      <point x="348" y="453" type="line"/>
      <point x="357" y="416"/>
      <point x="361" y="384"/>
      <point x="361" y="347" type="curve"/>
      <point x="361" y="219"/>
      <point x="306" y="104"/>
      <point x="227" y="66" type="curve"/>
      <point x="248" y="53" type="line"/>
      <point x="287" y="198" type="line"/>
      <point x="268" y="398"/>
      <point x="214" y="496"/>
      <point x="123" y="496" type="curve"/>
      <point x="73" y="496"/>
      <point x="20" y="455"/>
      <point x="-10" y="396" type="curve"/>
      <point x="8" y="342" type="line"/>
      <point x="102" y="350" type="line"/>
      <point x="121" y="305"/>
      <point x="139" y="246"/>
      <point x="156" y="179" type="curve"/>
      <point x="197" y="12" type="line"/>
      <point x="220" y="-6"/>
      <point x="269" y="-17"/>
    </contour>
    <contour>
      <point x="207" y="64" type="line"/>
      <point x="226" y="29" type="line"/>
      <point x="295" y="75" type="line"/>
      <point x="236" y="107" type="line"/>
    </contour>
  </outline>
</glyph>
<glyph name="pi" format="1">
  <advance width="772"/>
  <unicode hex="03C0"/>
  <outline>
    <contour>
      <point x="120" y="462"/>
      <point x="55" y="408"/>
      <point x="30" y="374" type="curve"/>
      <point x="66" y="320" type="line"/>
      <point x="161" y="385" type="line"/>
      <point x="709" y="354" type="line"/>
      <point x="748" y="383" type="line"/>
      <point x="744" y="473" type="line"/>
      <point x="159" y="473" type="line"/>
    </contour>
    <contour>
      <point x="653" y="0" type="line"/>
      <point x="613" y="442" type="line"/>
      <point x="469" y="439" type="line"/>
      <point x="473" y="33" type="line"/>
      <point x="525" y="-2" type="line"/>
    </contour>
    <contour>
      <point x="106" y="-8"/>
      <point x="167" y="-18"/>
      <point x="209" y="-18" type="curve" smooth="yes"/>
      <point x="349" y="-18"/>
      <point x="374" y="88"/>
      <point x="378" y="231" type="curve" smooth="yes"/>
      <point x="385" y="448" type="line"/>
      <point x="217" y="450" type="line"/>
      <point x="207" y="194" type="line" smooth="yes"/>
      <point x="205" y="142"/>
      <point x="203" y="83"/>
      <point x="191" y="63" type="curve"/>
      <point x="157" y="88"/>
      <point x="123" y="116"/>
      <point x="93" y="143" type="curve"/>
      <point x="42" y="17" type="line"/>
    </contour>
  </outline>
</glyph>
<glyph name="rho" format="1">
  <advance width="518"/>
  <unicode hex="03C1"/>
  <outline>
    <contour>
      <point x="28" y="-200" type="line"/>
      <point x="59" y="-224" type="line"/>
      <point x="117" y="-222"/>
      <point x="182" y="-205"/>
      <point x="212" y="-187" type="curve"/>
      <point x="112" y="121" type="line"/>
      <point x="134" y="142" type="line"/>
      <point x="131" y="162"/>
      <point x="130" y="181"/>
      <point x="130" y="206" type="curve"/>
      <point x="130" y="281"/>
      <point x="195" y="325"/>
      <point x="305" y="325" type="curve"/>
      <point x="342" y="325"/>
      <point x="375" y="321"/>
      <point x="400" y="311" type="curve"/>
      <point x="409" y="300"/>
      <point x="413" y="282"/>
      <point x="413" y="264" type="curve"/>
      <point x="413" y="198"/>
      <point x="348" y="155"/>
      <point x="232" y="155" type="curve"/>
      <point x="194" y="155"/>
      <point x="158" y="162"/>
      <point x="123" y="175" type="curve"/>
      <point x="103" y="126" type="line"/>
      <point x="142" y="39"/>
      <point x="209" y="-20"/>
      <point x="279" y="-20" type="curve"/>
      <point x="395" y="-20"/>
      <point x="499" y="103"/>
      <point x="499" y="250" type="curve"/>
      <point x="499" y="398"/>
      <point x="406" y="501"/>
      <point x="269" y="501" type="curve"/>
      <point x="132" y="501"/>
      <point x="37" y="390"/>
      <point x="37" y="230" type="curve"/>
      <point x="37" y="163"/>
      <point x="36" y="114"/>
      <point x="34" y="7" type="curve"/>
    </contour>
    <contour>
      <point x="288" y="473" type="move" name="top"/>
    </contour>
  </outline>
</glyph>
<glyph name="finalsigma" format="1">
  <advance width="456"/>
  <unicode hex="03C2"/>
  <outline>
    <contour>
      <point x="213" y="-138" type="line"/>
      <point x="274" y="-186" type="line"/>
      <point x="375" y="-106"/>
      <point x="413" y="-50"/>
      <point x="413" y="17" type="curve"/>
      <point x="413" y="64"/>
      <point x="396" y="96"/>
      <point x="353" y="122" type="curve"/>
      <point x="331" y="135"/>
      <point x="304" y="146"/>
      <point x="210" y="178" type="curve"/>
      <point x="126" y="207"/>
      <point x="101" y="218"/>
      <point x="91" y="231" type="curve"/>
      <point x="104" y="299"/>
      <point x="167" y="338"/>
      <point x="264" y="338" type="curve"/>
      <point x="408" y="316" type="line"/>
      <point x="442" y="343" type="line"/>
      <point x="448" y="388"/>
      <point x="445" y="446"/>
      <point x="435" y="483" type="curve"/>
      <point x="404" y="496"/>
      <point x="367" y="501"/>
      <point x="314" y="501" type="curve"/>
      <point x="147" y="501"/>
      <point x="19" y="389"/>
      <point x="19" y="242" type="curve"/>
      <point x="19" y="193"/>
      <point x="25" y="157"/>
      <point x="40" y="129" type="curve"/>
      <point x="65" y="75"/>
      <point x="115" y="37"/>
      <point x="195" y="9" type="curve"/>
      <point x="251" y="-11"/>
      <point x="282" y="-23"/>
      <point x="334" y="-45" type="curve"/>
      <point x="318" y="-15" type="line"/>
    </contour>
  </outline>
</glyph>
<glyph name="upsilon" format="1">
  <advance width="544"/>
  <unicode hex="03C5"/>
  <outline>
    <contour>
      <point x="291" y="-20" type="curve"/>
      <point x="427" y="-20"/>
      <point x="524" y="97"/>
      <point x="524" y="243" type="curve"/>
      <point x="524" y="312"/>
      <point x="504" y="386"/>
      <point x="467" y="452" type="curve"/>
      <point x="443" y="471"/>
      <point x="401" y="488"/>
      <point x="365" y="494" type="curve"/>
      <point x="338" y="459" type="line"/>
      <point x="364" y="400"/>
      <point x="379" y="340"/>
      <point x="379" y="286" type="curve"/>
      <point x="379" y="194"/>
      <point x="341" y="150"/>
      <point x="253" y="150" type="curve"/>
      <point x="218" y="150"/>
      <point x="190" y="158"/>
      <point x="170" y="170" type="curve"/>
      <point x="233" y="222" type="line"/>
      <point x="248" y="277"/>
      <point x="258" y="322"/>
      <point x="258" y="357" type="curve"/>
      <point x="258" y="439"/>
      <point x="197" y="495"/>
      <point x="138" y="495" type="curve"/>
      <point x="89" y="495"/>
      <point x="29" y="455"/>
      <point x="-3" y="397" type="curve"/>
      <point x="18" y="341" type="line"/>
      <point x="151" y="358" type="line"/>
      <point x="150" y="441" type="line"/>
      <point x="91" y="283"/>
      <point x="79" y="241"/>
      <point x="79" y="187" type="curve"/>
      <point x="79" y="73"/>
      <point x="164" y="-20"/>
    </contour>
    <contour>
      <point x="287" y="473" type="move" name="top"/>
    </contour>
  </outline>
</glyph>
<glyph name="phi" format="1">
  <advance width="697"/>
  <unicode hex="03C6"/>
  <outline>
    <contour>
      <point x="253" y="-198" type="line"/>
      <point x="293" y="-223" type="line"/>
      <point x="343" y="-223"/>
      <point x="408" y="-212"/>
      <point x="445" y="-198" type="curve"/>
      <point x="385" y="-1" type="line"/>
      <point x="386" y="61" type="line"/>
      <point x="386" y="191" type="line" smooth="yes"/>
      <point x="386" y="281"/>
      <point x="425" y="324"/>
      <point x="504" y="324" type="curve"/>
      <point x="540" y="324"/>
      <point x="565" y="319"/>
      <point x="580" y="308" type="curve"/>
      <point x="588" y="297"/>
      <point x="592" y="281"/>
      <point x="592" y="263" type="curve"/>
      <point x="592" y="191"/>
      <point x="506" y="150"/>
      <point x="350" y="150" type="curve"/>
      <point x="319" y="150" type="line"/>
      <point x="233" y="150"/>
      <point x="163" y="160"/>
      <point x="117" y="178" type="curve"/>
      <point x="109" y="188"/>
      <point x="105" y="202"/>
      <point x="105" y="220" type="curve"/>
      <point x="105" y="273"/>
      <point x="152" y="306"/>
      <point x="247" y="319" type="curve"/>
      <point x="270" y="351" type="line"/>
      <point x="269" y="405"/>
      <point x="251" y="468"/>
      <point x="228" y="500" type="curve"/>
      <point x="104" y="479"/>
      <point x="19" y="371"/>
      <point x="19" y="236" type="curve"/>
      <point x="19" y="83"/>
      <point x="148" y="-20"/>
      <point x="338" y="-20" type="curve"/>
      <point x="547" y="-20"/>
      <point x="677" y="87"/>
      <point x="677" y="254" type="curve"/>
      <point x="677" y="390"/>
      <point x="579" y="499"/>
      <point x="457" y="499" type="curve"/>
      <point x="351" y="499"/>
      <point x="293" y="414"/>
      <point x="293" y="256" type="curve"/>
      <point x="293" y="74" type="line"/>
      <point x="294" y="3" type="line"/>
    </contour>
  </outline>
</glyph>
<glyph name="chi" format="1">
  <advance width="575"/>
  <unicode hex="03C7"/>
  <outline>
    <contour>
      <point x="486" y="-224" type="curve"/>
      <point x="528" y="-224"/>
      <point x="569" y="-182"/>
      <point x="593" y="-112" type="curve"/>
      <point x="574" y="-68" type="line"/>
      <point x="419" y="-84" type="line"/>
      <point x="468" y="-118" type="line"/>
      <point x="362" y="164" type="line"/>
      <point x="293" y="185" type="line"/>
      <point x="295" y="303" type="line"/>
      <point x="257" y="423"/>
      <point x="181" y="496"/>
      <point x="95" y="496" type="curve"/>
      <point x="65" y="496"/>
      <point x="33" y="488"/>
      <point x="-5" y="472" type="curve"/>
      <point x="-2" y="432"/>
      <point x="15" y="380"/>
      <point x="41" y="335" type="curve"/>
      <point x="75" y="324" type="line"/>
      <point x="176" y="374" type="line"/>
      <point x="120" y="373" type="line"/>
      <point x="144" y="340"/>
      <point x="156" y="322"/>
      <point x="180" y="278" type="curve"/>
      <point x="215" y="215"/>
      <point x="232" y="182"/>
      <point x="257" y="132" type="curve"/>
      <point x="282" y="83" type="line"/>
      <point x="385" y="-130" type="line" smooth="yes"/>
      <point x="418" y="-197"/>
      <point x="447" y="-224"/>
    </contour>
    <contour>
      <point x="148" y="-227" type="curve"/>
      <point x="184" y="-205" type="line"/>
      <point x="313" y="92" type="line"/>
      <point x="253" y="173" type="line"/>
      <point x="35" y="-135" type="line"/>
      <point x="45" y="-172"/>
      <point x="102" y="-219"/>
    </contour>
    <contour>
      <point x="279" y="174" type="line"/>
      <point x="317" y="155" type="line"/>
      <point x="339" y="199" type="line"/>
      <point x="280" y="218" type="line"/>
    </contour>
    <contour>
      <point x="287" y="180" type="line"/>
      <point x="362" y="128" type="line"/>
      <point x="574" y="406" type="line"/>
      <point x="559" y="441"/>
      <point x="499" y="490"/>
      <point x="456" y="502" type="curve"/>
      <point x="423" y="486" type="line"/>
    </contour>
  </outline>
</glyph>
<glyph name="psi" format="1">
  <advance width="730"/>
  <unicode hex="03C8"/>
  <outline>
    <contour>
      <point x="389" y="-20" type="curve"/>
      <point x="590" y="-20"/>
      <point x="710" y="84"/>
      <point x="710" y="255" type="curve"/>
      <point x="710" y="323"/>
      <point x="690" y="391"/>
      <point x="653" y="452" type="curve"/>
      <point x="628" y="471"/>
      <point x="587" y="489"/>
      <point x="551" y="494" type="curve"/>
      <point x="524" y="459" type="line"/>
      <point x="550" y="406"/>
      <point x="565" y="353"/>
      <point x="565" y="302" type="curve"/>
      <point x="565" y="194"/>
      <point x="505" y="150"/>
      <point x="406" y="150" type="curve"/>
      <point x="371" y="150" type="line"/>
      <point x="276" y="150"/>
      <point x="216" y="163"/>
      <point x="171" y="185" type="curve"/>
      <point x="235" y="232" type="line"/>
      <point x="250" y="290"/>
      <point x="258" y="329"/>
      <point x="258" y="357" type="curve"/>
      <point x="258" y="433"/>
      <point x="203" y="495"/>
      <point x="138" y="495" type="curve"/>
      <point x="88" y="495"/>
      <point x="28" y="453"/>
      <point x="-3" y="397" type="curve"/>
      <point x="18" y="341" type="line"/>
      <point x="151" y="358" type="line"/>
      <point x="150" y="441" type="line"/>
      <point x="91" y="295"/>
      <point x="79" y="254"/>
      <point x="79" y="201" type="curve"/>
      <point x="79" y="67"/>
      <point x="202" y="-20"/>
    </contour>
    <contour>
      <point x="289" y="-198" type="line"/>
      <point x="326" y="-223" type="line"/>
      <point x="378" y="-223"/>
      <point x="445" y="-218"/>
      <point x="482" y="-204" type="curve"/>
      <point x="429" y="5" type="line"/>
      <point x="424" y="93" type="line"/>
      <point x="486" y="687" type="line"/>
      <point x="438" y="710" type="line"/>
      <point x="392" y="709"/>
      <point x="350" y="700"/>
      <point x="296" y="681" type="curve"/>
      <point x="337" y="106" type="line"/>
      <point x="331" y="6" type="line"/>
    </contour>
  </outline>
</glyph>
